G04 #@! TF.GenerationSoftware,KiCad,Pcbnew,(5.0.1-3-g963ef8bb5)*
G04 #@! TF.CreationDate,2020-03-03T22:13:18-05:00*
G04 #@! TF.ProjectId,NeuMaE,4E65754D61452E6B696361645F706362,rev?*
G04 #@! TF.SameCoordinates,Original*
G04 #@! TF.FileFunction,Copper,L1,Top,Signal*
G04 #@! TF.FilePolarity,Positive*
%FSLAX46Y46*%
G04 Gerber Fmt 4.6, Leading zero omitted, Abs format (unit mm)*
G04 Created by KiCad (PCBNEW (5.0.1-3-g963ef8bb5)) date Tuesday, 03 March 2020 at 22:13:18*
%MOMM*%
%LPD*%
G01*
G04 APERTURE LIST*
G04 #@! TA.AperFunction,ComponentPad*
%ADD10O,4.064000X2.032000*%
G04 #@! TD*
G04 #@! TA.AperFunction,ComponentPad*
%ADD11C,7.620000*%
G04 #@! TD*
G04 #@! TA.AperFunction,ComponentPad*
%ADD12C,2.000000*%
G04 #@! TD*
G04 #@! TA.AperFunction,ComponentPad*
%ADD13C,1.400000*%
G04 #@! TD*
G04 #@! TA.AperFunction,ComponentPad*
%ADD14R,1.200000X1.200000*%
G04 #@! TD*
G04 #@! TA.AperFunction,ComponentPad*
%ADD15C,1.200000*%
G04 #@! TD*
G04 #@! TA.AperFunction,ComponentPad*
%ADD16R,1.700000X1.700000*%
G04 #@! TD*
G04 #@! TA.AperFunction,ComponentPad*
%ADD17O,1.700000X1.700000*%
G04 #@! TD*
G04 #@! TA.AperFunction,ComponentPad*
%ADD18O,1.500000X1.050000*%
G04 #@! TD*
G04 #@! TA.AperFunction,ComponentPad*
%ADD19R,1.500000X1.050000*%
G04 #@! TD*
G04 #@! TA.AperFunction,ComponentPad*
%ADD20C,1.600000*%
G04 #@! TD*
G04 #@! TA.AperFunction,ComponentPad*
%ADD21O,1.600000X1.600000*%
G04 #@! TD*
G04 #@! TA.AperFunction,SMDPad,CuDef*
%ADD22R,1.100000X1.700000*%
G04 #@! TD*
G04 #@! TA.AperFunction,SMDPad,CuDef*
%ADD23R,2.000000X1.200000*%
G04 #@! TD*
G04 #@! TA.AperFunction,ViaPad*
%ADD24C,1.000000*%
G04 #@! TD*
G04 #@! TA.AperFunction,Conductor*
%ADD25C,0.500000*%
G04 #@! TD*
G04 #@! TA.AperFunction,Conductor*
%ADD26C,0.750000*%
G04 #@! TD*
G04 #@! TA.AperFunction,Conductor*
%ADD27C,1.000000*%
G04 #@! TD*
G04 APERTURE END LIST*
D10*
G04 #@! TO.P,U1,1*
G04 #@! TO.N,VCC*
X54102000Y-57150000D03*
G04 #@! TO.P,U1,3*
G04 #@! TO.N,+3V3*
X54102000Y-59690000D03*
G04 #@! TO.P,U1,2*
G04 #@! TO.N,GND*
X54102000Y-62230000D03*
D11*
G04 #@! TO.P,U1,HEAT*
G04 #@! TO.N,Net-(U1-PadHEAT)*
X71882000Y-59690000D03*
G04 #@! TD*
D12*
G04 #@! TO.P,SW1,1*
G04 #@! TO.N,GND*
X69700000Y-21336000D03*
G04 #@! TO.P,SW1,2*
G04 #@! TO.N,Net-(R4-Pad2)*
X69700000Y-16836000D03*
G04 #@! TO.P,SW1,1*
G04 #@! TO.N,GND*
X76200000Y-21336000D03*
G04 #@! TO.P,SW1,2*
G04 #@! TO.N,Net-(R4-Pad2)*
X76200000Y-16836000D03*
G04 #@! TD*
D13*
G04 #@! TO.P,C1,1*
G04 #@! TO.N,VCC*
X48006000Y-55118000D03*
G04 #@! TO.P,C1,2*
G04 #@! TO.N,GND*
X45506000Y-55118000D03*
G04 #@! TD*
D14*
G04 #@! TO.P,C2,1*
G04 #@! TO.N,+3V3*
X46736000Y-60452000D03*
D15*
G04 #@! TO.P,C2,2*
G04 #@! TO.N,GND*
X46736000Y-62452000D03*
G04 #@! TD*
D16*
G04 #@! TO.P,J1,1*
G04 #@! TO.N,Net-(J1-Pad1)*
X89916000Y-36068000D03*
D17*
G04 #@! TO.P,J1,2*
G04 #@! TO.N,Net-(J1-Pad2)*
X89916000Y-33528000D03*
G04 #@! TO.P,J1,3*
G04 #@! TO.N,+3V3*
X89916000Y-30988000D03*
G04 #@! TD*
D16*
G04 #@! TO.P,J2,1*
G04 #@! TO.N,Net-(J2-Pad1)*
X81534000Y-33528000D03*
D17*
G04 #@! TO.P,J2,2*
G04 #@! TO.N,/RXD*
X81534000Y-36068000D03*
G04 #@! TD*
G04 #@! TO.P,J3,3*
G04 #@! TO.N,Net-(J3-Pad3)*
X45466000Y-36576000D03*
G04 #@! TO.P,J3,2*
G04 #@! TO.N,Net-(J3-Pad2)*
X45466000Y-34036000D03*
D16*
G04 #@! TO.P,J3,1*
G04 #@! TO.N,GND*
X45466000Y-31496000D03*
G04 #@! TD*
D17*
G04 #@! TO.P,J4,2*
G04 #@! TO.N,GND*
X45720000Y-49276000D03*
D16*
G04 #@! TO.P,J4,1*
G04 #@! TO.N,VCC*
X48260000Y-49276000D03*
G04 #@! TD*
D18*
G04 #@! TO.P,Q1,2*
G04 #@! TO.N,Net-(Q1-Pad2)*
X89662000Y-41148000D03*
G04 #@! TO.P,Q1,3*
G04 #@! TO.N,GND*
X89662000Y-42418000D03*
D19*
G04 #@! TO.P,Q1,1*
G04 #@! TO.N,Net-(J1-Pad1)*
X89662000Y-39878000D03*
G04 #@! TD*
D20*
G04 #@! TO.P,R1,1*
G04 #@! TO.N,Net-(R1-Pad1)*
X54610000Y-35052000D03*
D21*
G04 #@! TO.P,R1,2*
G04 #@! TO.N,+3V3*
X54610000Y-45212000D03*
G04 #@! TD*
G04 #@! TO.P,R2,2*
G04 #@! TO.N,Net-(Q1-Pad2)*
X89408000Y-46228000D03*
D20*
G04 #@! TO.P,R2,1*
G04 #@! TO.N,/MOTOR*
X89408000Y-56388000D03*
G04 #@! TD*
G04 #@! TO.P,R3,1*
G04 #@! TO.N,Net-(Q1-Pad2)*
X84582000Y-46228000D03*
D21*
G04 #@! TO.P,R3,2*
G04 #@! TO.N,GND*
X84582000Y-56388000D03*
G04 #@! TD*
G04 #@! TO.P,R4,2*
G04 #@! TO.N,Net-(R4-Pad2)*
X82296000Y-16256000D03*
D20*
G04 #@! TO.P,R4,1*
G04 #@! TO.N,+3V3*
X82296000Y-26416000D03*
G04 #@! TD*
G04 #@! TO.P,R5,1*
G04 #@! TO.N,+3V3*
X54356000Y-32004000D03*
D21*
G04 #@! TO.P,R5,2*
G04 #@! TO.N,Net-(R5-Pad2)*
X54356000Y-21844000D03*
G04 #@! TD*
G04 #@! TO.P,R6,2*
G04 #@! TO.N,Net-(R6-Pad2)*
X80264000Y-46228000D03*
D20*
G04 #@! TO.P,R6,1*
G04 #@! TO.N,GND*
X80264000Y-56388000D03*
G04 #@! TD*
D12*
G04 #@! TO.P,SW2,2*
G04 #@! TO.N,Net-(R5-Pad2)*
X57912000Y-21518000D03*
G04 #@! TO.P,SW2,1*
G04 #@! TO.N,GND*
X57912000Y-17018000D03*
G04 #@! TO.P,SW2,2*
G04 #@! TO.N,Net-(R5-Pad2)*
X64412000Y-21518000D03*
G04 #@! TO.P,SW2,1*
G04 #@! TO.N,GND*
X64412000Y-17018000D03*
G04 #@! TD*
D22*
G04 #@! TO.P,U2,14*
G04 #@! TO.N,Net-(U2-Pad14)*
X73237501Y-49675001D03*
G04 #@! TO.P,U2,13*
G04 #@! TO.N,Net-(U2-Pad13)*
X71237501Y-49675001D03*
G04 #@! TO.P,U2,12*
G04 #@! TO.N,Net-(U2-Pad12)*
X69237501Y-49675001D03*
G04 #@! TO.P,U2,11*
G04 #@! TO.N,Net-(U2-Pad11)*
X67237501Y-49675001D03*
G04 #@! TO.P,U2,10*
G04 #@! TO.N,Net-(U2-Pad10)*
X65237501Y-49675001D03*
G04 #@! TO.P,U2,9*
G04 #@! TO.N,Net-(U2-Pad9)*
X63237501Y-49675001D03*
D23*
G04 #@! TO.P,U2,22*
G04 #@! TO.N,Net-(J2-Pad1)*
X75737501Y-34175001D03*
G04 #@! TO.P,U2,21*
G04 #@! TO.N,/RXD*
X75737501Y-36175001D03*
G04 #@! TO.P,U2,20*
G04 #@! TO.N,Net-(J5-Pad3)*
X75737501Y-38175001D03*
G04 #@! TO.P,U2,19*
G04 #@! TO.N,Net-(J5-Pad2)*
X75737501Y-40175001D03*
G04 #@! TO.P,U2,18*
G04 #@! TO.N,Net-(R4-Pad2)*
X75737501Y-42175001D03*
G04 #@! TO.P,U2,17*
G04 #@! TO.N,Net-(J5-Pad1)*
X75737501Y-44175001D03*
G04 #@! TO.P,U2,16*
G04 #@! TO.N,Net-(R6-Pad2)*
X75737501Y-46175001D03*
G04 #@! TO.P,U2,15*
G04 #@! TO.N,GND*
X75737501Y-48175001D03*
G04 #@! TO.P,U2,8*
G04 #@! TO.N,+3V3*
X60737501Y-48175001D03*
G04 #@! TO.P,U2,7*
G04 #@! TO.N,Net-(J3-Pad3)*
X60737501Y-46175001D03*
G04 #@! TO.P,U2,6*
G04 #@! TO.N,/MOTOR*
X60737501Y-44175001D03*
G04 #@! TO.P,U2,5*
G04 #@! TO.N,/PIN5*
X60737501Y-42175001D03*
G04 #@! TO.P,U2,4*
G04 #@! TO.N,/PIN4*
X60737501Y-40175001D03*
G04 #@! TO.P,U2,3*
G04 #@! TO.N,Net-(R1-Pad1)*
X60737501Y-38175001D03*
G04 #@! TO.P,U2,2*
G04 #@! TO.N,/ADC*
X60737501Y-36175001D03*
G04 #@! TO.P,U2,1*
G04 #@! TO.N,Net-(R5-Pad2)*
X60737501Y-34175001D03*
G04 #@! TD*
D20*
G04 #@! TO.P,R7,1*
G04 #@! TO.N,VCC*
X49530000Y-45466000D03*
D21*
G04 #@! TO.P,R7,2*
G04 #@! TO.N,/ADC*
X49530000Y-35306000D03*
G04 #@! TD*
G04 #@! TO.P,R8,2*
G04 #@! TO.N,GND*
X49530000Y-22352000D03*
D20*
G04 #@! TO.P,R8,1*
G04 #@! TO.N,/ADC*
X49530000Y-32512000D03*
G04 #@! TD*
D16*
G04 #@! TO.P,J5,1*
G04 #@! TO.N,Net-(J5-Pad1)*
X89916000Y-26162000D03*
D17*
G04 #@! TO.P,J5,2*
G04 #@! TO.N,Net-(J5-Pad2)*
X89916000Y-23622000D03*
G04 #@! TO.P,J5,3*
G04 #@! TO.N,Net-(J5-Pad3)*
X89916000Y-21082000D03*
G04 #@! TO.P,J5,4*
G04 #@! TO.N,/PIN4*
X89916000Y-18542000D03*
G04 #@! TO.P,J5,5*
G04 #@! TO.N,/PIN5*
X89916000Y-16002000D03*
G04 #@! TD*
D24*
G04 #@! TO.N,/MOTOR*
X69850000Y-45212000D03*
G04 #@! TO.N,Net-(J5-Pad1)*
X87884000Y-33528000D03*
G04 #@! TO.N,Net-(J5-Pad2)*
X85083092Y-31041570D03*
G04 #@! TO.N,Net-(J5-Pad3)*
X83820000Y-30734000D03*
G04 #@! TO.N,/PIN4*
X70832502Y-30480000D03*
X70832502Y-30480000D03*
G04 #@! TO.N,/PIN5*
X72136000Y-28448000D03*
X74930000Y-28448000D03*
G04 #@! TD*
D25*
G04 #@! TO.N,Net-(Q1-Pad2)*
X89995872Y-41148000D02*
X89662000Y-41148000D01*
D26*
X89408000Y-46228000D02*
X88236990Y-45056990D01*
X84582000Y-46228000D02*
X89408000Y-46228000D01*
X88236990Y-41557010D02*
X88715999Y-41078001D01*
X88236990Y-45056990D02*
X88236990Y-41557010D01*
X89592001Y-41078001D02*
X89662000Y-41148000D01*
X88715999Y-41078001D02*
X89592001Y-41078001D01*
D25*
G04 #@! TO.N,GND*
X45506000Y-49490000D02*
X45720000Y-49276000D01*
D27*
X45720000Y-54904000D02*
X45506000Y-55118000D01*
X45720000Y-49276000D02*
X45720000Y-54904000D01*
X53880000Y-62452000D02*
X54102000Y-62230000D01*
X46736000Y-62452000D02*
X53880000Y-62452000D01*
X76137501Y-48175001D02*
X75737501Y-48175001D01*
X80264000Y-52301500D02*
X76137501Y-48175001D01*
X80264000Y-56388000D02*
X80264000Y-52301500D01*
X68730000Y-21336000D02*
X64412000Y-17018000D01*
X69700000Y-21336000D02*
X68730000Y-21336000D01*
X64412000Y-17018000D02*
X57912000Y-17018000D01*
X44806001Y-55817999D02*
X45506000Y-55118000D01*
X44806001Y-61370529D02*
X44806001Y-55817999D01*
X45887472Y-62452000D02*
X44806001Y-61370529D01*
X46736000Y-62452000D02*
X45887472Y-62452000D01*
D25*
G04 #@! TO.N,Net-(J1-Pad1)*
X89662000Y-35814000D02*
X89916000Y-35560000D01*
X89662000Y-39878000D02*
X89662000Y-35814000D01*
D26*
X89662000Y-36322000D02*
X89916000Y-36068000D01*
X89662000Y-39878000D02*
X89662000Y-36322000D01*
D27*
G04 #@! TO.N,VCC*
X48260000Y-54864000D02*
X48006000Y-55118000D01*
X48260000Y-49276000D02*
X48260000Y-54864000D01*
X52070000Y-55118000D02*
X54102000Y-57150000D01*
X48006000Y-55118000D02*
X52070000Y-55118000D01*
X48260000Y-46736000D02*
X49530000Y-45466000D01*
X48260000Y-49276000D02*
X48260000Y-46736000D01*
G04 #@! TO.N,+3V3*
X54102000Y-59690000D02*
X55118000Y-59690000D01*
X60737501Y-54070499D02*
X60737501Y-48768000D01*
D25*
X60737501Y-48768000D02*
X60737501Y-48175001D01*
D27*
X57573001Y-48175001D02*
X54610000Y-45212000D01*
X60737501Y-48175001D02*
X57573001Y-48175001D01*
X86868000Y-30988000D02*
X82296000Y-26416000D01*
X89916000Y-30988000D02*
X86868000Y-30988000D01*
X60737501Y-54098724D02*
X60737501Y-49775001D01*
X60737501Y-49775001D02*
X60737501Y-48175001D01*
X54102000Y-59690000D02*
X55146225Y-59690000D01*
X60737501Y-47974499D02*
X61136998Y-47575002D01*
X60737501Y-56086499D02*
X60737501Y-47974499D01*
X57134000Y-59690000D02*
X60737501Y-56086499D01*
X54102000Y-59690000D02*
X57134000Y-59690000D01*
X47498000Y-59690000D02*
X46736000Y-60452000D01*
X54102000Y-59690000D02*
X47498000Y-59690000D01*
D26*
G04 #@! TO.N,Net-(J2-Pad1)*
X80886999Y-34175001D02*
X81534000Y-33528000D01*
X75737501Y-34175001D02*
X80886999Y-34175001D01*
G04 #@! TO.N,/RXD*
X75844502Y-36068000D02*
X75737501Y-36175001D01*
X81534000Y-36068000D02*
X75844502Y-36068000D01*
G04 #@! TO.N,Net-(J3-Pad3)*
X48616998Y-36576000D02*
X46668081Y-36576000D01*
X58215999Y-46175001D02*
X48616998Y-36576000D01*
X46668081Y-36576000D02*
X45466000Y-36576000D01*
X60737501Y-46175001D02*
X58215999Y-46175001D01*
G04 #@! TO.N,Net-(R1-Pad1)*
X57733001Y-38175001D02*
X60737501Y-38175001D01*
X54610000Y-35052000D02*
X57733001Y-38175001D01*
G04 #@! TO.N,/MOTOR*
X68813001Y-44175001D02*
X69850000Y-45212000D01*
X60737501Y-44175001D02*
X68813001Y-44175001D01*
D25*
G04 #@! TO.N,Net-(R4-Pad2)*
X75737501Y-42175001D02*
X75337501Y-42175001D01*
D26*
X69700000Y-16836000D02*
X76200000Y-16836000D01*
X76780000Y-16256000D02*
X76200000Y-16836000D01*
X82296000Y-16256000D02*
X76780000Y-16256000D01*
X74785787Y-16836000D02*
X73548500Y-18073287D01*
X76200000Y-16836000D02*
X74785787Y-16836000D01*
X73548500Y-41736000D02*
X73548500Y-39878000D01*
X75737501Y-42175001D02*
X73987501Y-42175001D01*
X73548500Y-39878000D02*
X73548500Y-40386000D01*
X73987501Y-42175001D02*
X73548500Y-41736000D01*
X73548500Y-18073287D02*
X73548500Y-39878000D01*
G04 #@! TO.N,Net-(R5-Pad2)*
X57586000Y-21844000D02*
X57912000Y-21518000D01*
X54356000Y-21844000D02*
X57586000Y-21844000D01*
X60337501Y-34175001D02*
X60737501Y-34175001D01*
X57912000Y-31749500D02*
X60337501Y-34175001D01*
X57912000Y-21518000D02*
X57912000Y-31749500D01*
X57912000Y-21518000D02*
X64412000Y-21518000D01*
D25*
G04 #@! TO.N,Net-(R6-Pad2)*
X80211001Y-46175001D02*
X80264000Y-46228000D01*
X75737501Y-46175001D02*
X80211001Y-46175001D01*
G04 #@! TO.N,/ADC*
X60337501Y-36175001D02*
X60737501Y-36175001D01*
X49530000Y-35306000D02*
X51034001Y-33801999D01*
D26*
X49530000Y-32512000D02*
X49530000Y-35306000D01*
X56389499Y-33576999D02*
X58987501Y-36175001D01*
X51259001Y-33576999D02*
X56389499Y-33576999D01*
X49530000Y-35306000D02*
X51259001Y-33576999D01*
X50329999Y-33311999D02*
X49530000Y-32512000D01*
X50497001Y-33479001D02*
X50329999Y-33311999D01*
X58987501Y-36175001D02*
X56291501Y-33479001D01*
X56291501Y-33479001D02*
X50497001Y-33479001D01*
X60737501Y-36175001D02*
X58987501Y-36175001D01*
D25*
G04 #@! TO.N,Net-(J5-Pad1)*
X75737501Y-44175001D02*
X78962925Y-44175001D01*
D26*
X87884000Y-35572124D02*
X87884000Y-33528000D01*
X79281123Y-44175001D02*
X87884000Y-35572124D01*
X75737501Y-44175001D02*
X79281123Y-44175001D01*
G04 #@! TO.N,Net-(J5-Pad2)*
X81168939Y-40175001D02*
X85083092Y-36260848D01*
X85083092Y-36260848D02*
X85083092Y-31041570D01*
X75737501Y-40175001D02*
X81168939Y-40175001D01*
G04 #@! TO.N,Net-(J5-Pad3)*
X81684001Y-38175001D02*
X83820000Y-36039002D01*
X83820000Y-36039002D02*
X83820000Y-30734000D01*
X75737501Y-38175001D02*
X81684001Y-38175001D01*
G04 #@! TO.N,/PIN4*
X70332503Y-31395001D02*
X70332503Y-30979999D01*
X70332503Y-30979999D02*
X70832502Y-30480000D01*
X61552503Y-40175001D02*
X70332503Y-31395001D01*
X60737501Y-40175001D02*
X61552503Y-40175001D01*
G04 #@! TO.N,/PIN5*
X77470000Y-28448000D02*
X89916000Y-16002000D01*
X74930000Y-28448000D02*
X77470000Y-28448000D01*
X62487501Y-42175001D02*
X60737501Y-42175001D01*
X72136000Y-32526502D02*
X62487501Y-42175001D01*
X72136000Y-28448000D02*
X72136000Y-32526502D01*
G04 #@! TD*
M02*
