M48
;DRILL file {KiCad (5.0.1-3-g963ef8bb5)} date Wednesday, 04 March 2020 at 16:59:19
;FORMAT={-:-/ absolute / inch / decimal}
FMAT,2
INCH,TZ
T1C0.0236
T2C0.0276
T3C0.0295
T4C0.0315
T5C0.0394
T6C0.0433
T7C0.0500
T8C0.1260
%
G90
G05
M72
T1
X1.98Y-2.32
X1.98Y-2.3987
T2
X2.16Y-1.89
X2.16Y-1.9884
T3
X3.32Y-1.61
X3.32Y-1.66
X3.32Y-1.71
T4
X2.65Y-1.35
X2.6977Y-1.5977
X2.72Y-1.37
X2.74Y-1.49
X2.75Y-1.78
X3.25Y-1.82
X2.1Y-0.89
X2.1Y-1.29
X2.12Y-1.39
X2.12Y-1.79
X3.12Y-1.82
X3.12Y-2.22
X3.38Y-1.82
X3.38Y-2.22
X2.23Y-0.89
X2.23Y-1.29
X3.14Y-0.71
X3.14Y-1.11
X2.26Y-1.39
X2.26Y-1.79
X3.25Y-2.22
T5
X3.12Y-1.32
X3.12Y-1.42
X3.36Y-0.72
X3.36Y-0.82
X3.36Y-0.92
X3.36Y-1.02
X3.36Y-1.12
X3.36Y-1.27
X3.36Y-1.37
X3.36Y-1.47
X2.09Y-0.73
X2.19Y-0.73
X2.02Y-1.92
X2.02Y-2.02
X1.97Y-1.49
X1.97Y-1.59
X1.97Y-1.69
T6
X2.7441Y-0.7128
X2.7441Y-0.89
X3.Y-0.7128
X3.Y-0.89
X2.36Y-0.71
X2.36Y-0.8872
X2.6159Y-0.71
X2.6159Y-0.8872
T7
X2.17Y-2.17
X2.17Y-2.27
X2.17Y-2.37
T8
X2.87Y-2.27
T0
M30
