G04 #@! TF.GenerationSoftware,KiCad,Pcbnew,(5.0.1-3-g963ef8bb5)*
G04 #@! TF.CreationDate,2020-03-03T22:19:26-05:00*
G04 #@! TF.ProjectId,NeuMaE,4E65754D61452E6B696361645F706362,rev?*
G04 #@! TF.SameCoordinates,Original*
G04 #@! TF.FileFunction,Soldermask,Top*
G04 #@! TF.FilePolarity,Negative*
%FSLAX46Y46*%
G04 Gerber Fmt 4.6, Leading zero omitted, Abs format (unit mm)*
G04 Created by KiCad (PCBNEW (5.0.1-3-g963ef8bb5)) date Tuesday, 03 March 2020 at 22:19:26*
%MOMM*%
%LPD*%
G01*
G04 APERTURE LIST*
%ADD10C,0.100000*%
G04 APERTURE END LIST*
D10*
G36*
X73008211Y-55977375D02*
X73710868Y-56268425D01*
X74343247Y-56690967D01*
X74881033Y-57228753D01*
X75303575Y-57861132D01*
X75594625Y-58563789D01*
X75743000Y-59309723D01*
X75743000Y-60070277D01*
X75594625Y-60816211D01*
X75303575Y-61518868D01*
X74881033Y-62151247D01*
X74343247Y-62689033D01*
X73710868Y-63111575D01*
X73008211Y-63402625D01*
X72262277Y-63551000D01*
X71501723Y-63551000D01*
X70755789Y-63402625D01*
X70053132Y-63111575D01*
X69420753Y-62689033D01*
X68882967Y-62151247D01*
X68460425Y-61518868D01*
X68169375Y-60816211D01*
X68021000Y-60070277D01*
X68021000Y-59309723D01*
X68169375Y-58563789D01*
X68460425Y-57861132D01*
X68882967Y-57228753D01*
X69420753Y-56690967D01*
X70053132Y-56268425D01*
X70755789Y-55977375D01*
X71501723Y-55829000D01*
X72262277Y-55829000D01*
X73008211Y-55977375D01*
X73008211Y-55977375D01*
G37*
G36*
X55233114Y-61169176D02*
X55327168Y-61178439D01*
X55528299Y-61239451D01*
X55560899Y-61256876D01*
X55713662Y-61338529D01*
X55876133Y-61471867D01*
X56009471Y-61634338D01*
X56091124Y-61787101D01*
X56108549Y-61819701D01*
X56169561Y-62020832D01*
X56190162Y-62230000D01*
X56169561Y-62439168D01*
X56108549Y-62640299D01*
X56091124Y-62672899D01*
X56009471Y-62825662D01*
X55876133Y-62988133D01*
X55713662Y-63121471D01*
X55560899Y-63203124D01*
X55528299Y-63220549D01*
X55327168Y-63281561D01*
X55233114Y-63290824D01*
X55170413Y-63297000D01*
X53033587Y-63297000D01*
X52970886Y-63290824D01*
X52876832Y-63281561D01*
X52675701Y-63220549D01*
X52643101Y-63203124D01*
X52490338Y-63121471D01*
X52327867Y-62988133D01*
X52194529Y-62825662D01*
X52112876Y-62672899D01*
X52095451Y-62640299D01*
X52034439Y-62439168D01*
X52013838Y-62230000D01*
X52034439Y-62020832D01*
X52095451Y-61819701D01*
X52112876Y-61787101D01*
X52194529Y-61634338D01*
X52327867Y-61471867D01*
X52490338Y-61338529D01*
X52643101Y-61256876D01*
X52675701Y-61239451D01*
X52876832Y-61178439D01*
X52970886Y-61169176D01*
X53033587Y-61163000D01*
X55170413Y-61163000D01*
X55233114Y-61169176D01*
X55233114Y-61169176D01*
G37*
G36*
X46925890Y-61826017D02*
X47044361Y-61875089D01*
X47150992Y-61946338D01*
X47241662Y-62037008D01*
X47312911Y-62143639D01*
X47361983Y-62262110D01*
X47387000Y-62387881D01*
X47387000Y-62516119D01*
X47361983Y-62641890D01*
X47312911Y-62760361D01*
X47241662Y-62866992D01*
X47150992Y-62957662D01*
X47044361Y-63028911D01*
X46925890Y-63077983D01*
X46800119Y-63103000D01*
X46671881Y-63103000D01*
X46546110Y-63077983D01*
X46427639Y-63028911D01*
X46321008Y-62957662D01*
X46230338Y-62866992D01*
X46159089Y-62760361D01*
X46110017Y-62641890D01*
X46085000Y-62516119D01*
X46085000Y-62387881D01*
X46110017Y-62262110D01*
X46159089Y-62143639D01*
X46230338Y-62037008D01*
X46321008Y-61946338D01*
X46427639Y-61875089D01*
X46546110Y-61826017D01*
X46671881Y-61801000D01*
X46800119Y-61801000D01*
X46925890Y-61826017D01*
X46925890Y-61826017D01*
G37*
G36*
X47387000Y-61103000D02*
X46085000Y-61103000D01*
X46085000Y-59801000D01*
X47387000Y-59801000D01*
X47387000Y-61103000D01*
X47387000Y-61103000D01*
G37*
G36*
X55233114Y-58629176D02*
X55327168Y-58638439D01*
X55528299Y-58699451D01*
X55560899Y-58716876D01*
X55713662Y-58798529D01*
X55876133Y-58931867D01*
X56009471Y-59094338D01*
X56091124Y-59247101D01*
X56108549Y-59279701D01*
X56169561Y-59480832D01*
X56190162Y-59690000D01*
X56169561Y-59899168D01*
X56108549Y-60100299D01*
X56108546Y-60100304D01*
X56009471Y-60285662D01*
X55876133Y-60448133D01*
X55713662Y-60581471D01*
X55560899Y-60663124D01*
X55528299Y-60680549D01*
X55327168Y-60741561D01*
X55233114Y-60750824D01*
X55170413Y-60757000D01*
X53033587Y-60757000D01*
X52970886Y-60750824D01*
X52876832Y-60741561D01*
X52675701Y-60680549D01*
X52643101Y-60663124D01*
X52490338Y-60581471D01*
X52327867Y-60448133D01*
X52194529Y-60285662D01*
X52095454Y-60100304D01*
X52095451Y-60100299D01*
X52034439Y-59899168D01*
X52013838Y-59690000D01*
X52034439Y-59480832D01*
X52095451Y-59279701D01*
X52112876Y-59247101D01*
X52194529Y-59094338D01*
X52327867Y-58931867D01*
X52490338Y-58798529D01*
X52643101Y-58716876D01*
X52675701Y-58699451D01*
X52876832Y-58638439D01*
X52970886Y-58629176D01*
X53033587Y-58623000D01*
X55170413Y-58623000D01*
X55233114Y-58629176D01*
X55233114Y-58629176D01*
G37*
G36*
X55233114Y-56089176D02*
X55327168Y-56098439D01*
X55528299Y-56159451D01*
X55560899Y-56176876D01*
X55713662Y-56258529D01*
X55876133Y-56391867D01*
X56009471Y-56554338D01*
X56082499Y-56690965D01*
X56108549Y-56739701D01*
X56169561Y-56940832D01*
X56190162Y-57150000D01*
X56169561Y-57359168D01*
X56108549Y-57560299D01*
X56108546Y-57560304D01*
X56009471Y-57745662D01*
X55876133Y-57908133D01*
X55713662Y-58041471D01*
X55560899Y-58123124D01*
X55528299Y-58140549D01*
X55327168Y-58201561D01*
X55233114Y-58210824D01*
X55170413Y-58217000D01*
X53033587Y-58217000D01*
X52970886Y-58210824D01*
X52876832Y-58201561D01*
X52675701Y-58140549D01*
X52643101Y-58123124D01*
X52490338Y-58041471D01*
X52327867Y-57908133D01*
X52194529Y-57745662D01*
X52095454Y-57560304D01*
X52095451Y-57560299D01*
X52034439Y-57359168D01*
X52013838Y-57150000D01*
X52034439Y-56940832D01*
X52095451Y-56739701D01*
X52121501Y-56690965D01*
X52194529Y-56554338D01*
X52327867Y-56391867D01*
X52490338Y-56258529D01*
X52643101Y-56176876D01*
X52675701Y-56159451D01*
X52876832Y-56098439D01*
X52970886Y-56089176D01*
X53033587Y-56083000D01*
X55170413Y-56083000D01*
X55233114Y-56089176D01*
X55233114Y-56089176D01*
G37*
G36*
X80512228Y-55569703D02*
X80667100Y-55633853D01*
X80806481Y-55726985D01*
X80925015Y-55845519D01*
X81018147Y-55984900D01*
X81082297Y-56139772D01*
X81115000Y-56304184D01*
X81115000Y-56471816D01*
X81082297Y-56636228D01*
X81018147Y-56791100D01*
X80925015Y-56930481D01*
X80806481Y-57049015D01*
X80667100Y-57142147D01*
X80512228Y-57206297D01*
X80347816Y-57239000D01*
X80180184Y-57239000D01*
X80015772Y-57206297D01*
X79860900Y-57142147D01*
X79721519Y-57049015D01*
X79602985Y-56930481D01*
X79509853Y-56791100D01*
X79445703Y-56636228D01*
X79413000Y-56471816D01*
X79413000Y-56304184D01*
X79445703Y-56139772D01*
X79509853Y-55984900D01*
X79602985Y-55845519D01*
X79721519Y-55726985D01*
X79860900Y-55633853D01*
X80015772Y-55569703D01*
X80180184Y-55537000D01*
X80347816Y-55537000D01*
X80512228Y-55569703D01*
X80512228Y-55569703D01*
G37*
G36*
X84748821Y-55549313D02*
X84748824Y-55549314D01*
X84748825Y-55549314D01*
X84909239Y-55597975D01*
X84909241Y-55597976D01*
X84909244Y-55597977D01*
X85057078Y-55676995D01*
X85186659Y-55783341D01*
X85293005Y-55912922D01*
X85372023Y-56060756D01*
X85372024Y-56060759D01*
X85372025Y-56060761D01*
X85401962Y-56159451D01*
X85420687Y-56221179D01*
X85437117Y-56388000D01*
X85420687Y-56554821D01*
X85420686Y-56554824D01*
X85420686Y-56554825D01*
X85379388Y-56690967D01*
X85372023Y-56715244D01*
X85293005Y-56863078D01*
X85186659Y-56992659D01*
X85057078Y-57099005D01*
X84909244Y-57178023D01*
X84909241Y-57178024D01*
X84909239Y-57178025D01*
X84748825Y-57226686D01*
X84748824Y-57226686D01*
X84748821Y-57226687D01*
X84623804Y-57239000D01*
X84540196Y-57239000D01*
X84415179Y-57226687D01*
X84415176Y-57226686D01*
X84415175Y-57226686D01*
X84254761Y-57178025D01*
X84254759Y-57178024D01*
X84254756Y-57178023D01*
X84106922Y-57099005D01*
X83977341Y-56992659D01*
X83870995Y-56863078D01*
X83791977Y-56715244D01*
X83784613Y-56690967D01*
X83743314Y-56554825D01*
X83743314Y-56554824D01*
X83743313Y-56554821D01*
X83726883Y-56388000D01*
X83743313Y-56221179D01*
X83762038Y-56159451D01*
X83791975Y-56060761D01*
X83791976Y-56060759D01*
X83791977Y-56060756D01*
X83870995Y-55912922D01*
X83977341Y-55783341D01*
X84106922Y-55676995D01*
X84254756Y-55597977D01*
X84254759Y-55597976D01*
X84254761Y-55597975D01*
X84415175Y-55549314D01*
X84415176Y-55549314D01*
X84415179Y-55549313D01*
X84540196Y-55537000D01*
X84623804Y-55537000D01*
X84748821Y-55549313D01*
X84748821Y-55549313D01*
G37*
G36*
X89656228Y-55569703D02*
X89811100Y-55633853D01*
X89950481Y-55726985D01*
X90069015Y-55845519D01*
X90162147Y-55984900D01*
X90226297Y-56139772D01*
X90259000Y-56304184D01*
X90259000Y-56471816D01*
X90226297Y-56636228D01*
X90162147Y-56791100D01*
X90069015Y-56930481D01*
X89950481Y-57049015D01*
X89811100Y-57142147D01*
X89656228Y-57206297D01*
X89491816Y-57239000D01*
X89324184Y-57239000D01*
X89159772Y-57206297D01*
X89004900Y-57142147D01*
X88865519Y-57049015D01*
X88746985Y-56930481D01*
X88653853Y-56791100D01*
X88589703Y-56636228D01*
X88557000Y-56471816D01*
X88557000Y-56304184D01*
X88589703Y-56139772D01*
X88653853Y-55984900D01*
X88746985Y-55845519D01*
X88865519Y-55726985D01*
X89004900Y-55633853D01*
X89159772Y-55569703D01*
X89324184Y-55537000D01*
X89491816Y-55537000D01*
X89656228Y-55569703D01*
X89656228Y-55569703D01*
G37*
G36*
X48138004Y-54378544D02*
X48225059Y-54395860D01*
X48361732Y-54452472D01*
X48361733Y-54452473D01*
X48484738Y-54534662D01*
X48589338Y-54639262D01*
X48589340Y-54639265D01*
X48671528Y-54762268D01*
X48728140Y-54898941D01*
X48757000Y-55044033D01*
X48757000Y-55191967D01*
X48728140Y-55337059D01*
X48671528Y-55473732D01*
X48590446Y-55595079D01*
X48589338Y-55596738D01*
X48484738Y-55701338D01*
X48484735Y-55701340D01*
X48361732Y-55783528D01*
X48225059Y-55840140D01*
X48138004Y-55857456D01*
X48079969Y-55869000D01*
X47932031Y-55869000D01*
X47873996Y-55857456D01*
X47786941Y-55840140D01*
X47650268Y-55783528D01*
X47527265Y-55701340D01*
X47527262Y-55701338D01*
X47422662Y-55596738D01*
X47421554Y-55595079D01*
X47340472Y-55473732D01*
X47283860Y-55337059D01*
X47255000Y-55191967D01*
X47255000Y-55044033D01*
X47283860Y-54898941D01*
X47340472Y-54762268D01*
X47422660Y-54639265D01*
X47422662Y-54639262D01*
X47527262Y-54534662D01*
X47650267Y-54452473D01*
X47650268Y-54452472D01*
X47786941Y-54395860D01*
X47873996Y-54378544D01*
X47932031Y-54367000D01*
X48079969Y-54367000D01*
X48138004Y-54378544D01*
X48138004Y-54378544D01*
G37*
G36*
X45638004Y-54378544D02*
X45725059Y-54395860D01*
X45861732Y-54452472D01*
X45861733Y-54452473D01*
X45984738Y-54534662D01*
X46089338Y-54639262D01*
X46089340Y-54639265D01*
X46171528Y-54762268D01*
X46228140Y-54898941D01*
X46257000Y-55044033D01*
X46257000Y-55191967D01*
X46228140Y-55337059D01*
X46171528Y-55473732D01*
X46090446Y-55595079D01*
X46089338Y-55596738D01*
X45984738Y-55701338D01*
X45984735Y-55701340D01*
X45861732Y-55783528D01*
X45725059Y-55840140D01*
X45638004Y-55857456D01*
X45579969Y-55869000D01*
X45432031Y-55869000D01*
X45373996Y-55857456D01*
X45286941Y-55840140D01*
X45150268Y-55783528D01*
X45027265Y-55701340D01*
X45027262Y-55701338D01*
X44922662Y-55596738D01*
X44921554Y-55595079D01*
X44840472Y-55473732D01*
X44783860Y-55337059D01*
X44755000Y-55191967D01*
X44755000Y-55044033D01*
X44783860Y-54898941D01*
X44840472Y-54762268D01*
X44922660Y-54639265D01*
X44922662Y-54639262D01*
X45027262Y-54534662D01*
X45150267Y-54452473D01*
X45150268Y-54452472D01*
X45286941Y-54395860D01*
X45373996Y-54378544D01*
X45432031Y-54367000D01*
X45579969Y-54367000D01*
X45638004Y-54378544D01*
X45638004Y-54378544D01*
G37*
G36*
X73838501Y-50576001D02*
X72636501Y-50576001D01*
X72636501Y-48774001D01*
X73838501Y-48774001D01*
X73838501Y-50576001D01*
X73838501Y-50576001D01*
G37*
G36*
X63838501Y-50576001D02*
X62636501Y-50576001D01*
X62636501Y-48774001D01*
X63838501Y-48774001D01*
X63838501Y-50576001D01*
X63838501Y-50576001D01*
G37*
G36*
X65838501Y-50576001D02*
X64636501Y-50576001D01*
X64636501Y-48774001D01*
X65838501Y-48774001D01*
X65838501Y-50576001D01*
X65838501Y-50576001D01*
G37*
G36*
X67838501Y-50576001D02*
X66636501Y-50576001D01*
X66636501Y-48774001D01*
X67838501Y-48774001D01*
X67838501Y-50576001D01*
X67838501Y-50576001D01*
G37*
G36*
X69838501Y-50576001D02*
X68636501Y-50576001D01*
X68636501Y-48774001D01*
X69838501Y-48774001D01*
X69838501Y-50576001D01*
X69838501Y-50576001D01*
G37*
G36*
X71838501Y-50576001D02*
X70636501Y-50576001D01*
X70636501Y-48774001D01*
X71838501Y-48774001D01*
X71838501Y-50576001D01*
X71838501Y-50576001D01*
G37*
G36*
X49161000Y-50177000D02*
X47359000Y-50177000D01*
X47359000Y-48375000D01*
X49161000Y-48375000D01*
X49161000Y-50177000D01*
X49161000Y-50177000D01*
G37*
G36*
X45830442Y-48381518D02*
X45896627Y-48388037D01*
X46009853Y-48422384D01*
X46066467Y-48439557D01*
X46205087Y-48513652D01*
X46222991Y-48523222D01*
X46258729Y-48552552D01*
X46360186Y-48635814D01*
X46443448Y-48737271D01*
X46472778Y-48773009D01*
X46472779Y-48773011D01*
X46556443Y-48929533D01*
X46556443Y-48929534D01*
X46607963Y-49099373D01*
X46625359Y-49276000D01*
X46607963Y-49452627D01*
X46573616Y-49565853D01*
X46556443Y-49622467D01*
X46482348Y-49761087D01*
X46472778Y-49778991D01*
X46443448Y-49814729D01*
X46360186Y-49916186D01*
X46258729Y-49999448D01*
X46222991Y-50028778D01*
X46222989Y-50028779D01*
X46066467Y-50112443D01*
X46009853Y-50129616D01*
X45896627Y-50163963D01*
X45830443Y-50170481D01*
X45764260Y-50177000D01*
X45675740Y-50177000D01*
X45609557Y-50170481D01*
X45543373Y-50163963D01*
X45430147Y-50129616D01*
X45373533Y-50112443D01*
X45217011Y-50028779D01*
X45217009Y-50028778D01*
X45181271Y-49999448D01*
X45079814Y-49916186D01*
X44996552Y-49814729D01*
X44967222Y-49778991D01*
X44957652Y-49761087D01*
X44883557Y-49622467D01*
X44866384Y-49565853D01*
X44832037Y-49452627D01*
X44814641Y-49276000D01*
X44832037Y-49099373D01*
X44883557Y-48929534D01*
X44883557Y-48929533D01*
X44967221Y-48773011D01*
X44967222Y-48773009D01*
X44996552Y-48737271D01*
X45079814Y-48635814D01*
X45181271Y-48552552D01*
X45217009Y-48523222D01*
X45234913Y-48513652D01*
X45373533Y-48439557D01*
X45430147Y-48422384D01*
X45543373Y-48388037D01*
X45609558Y-48381518D01*
X45675740Y-48375000D01*
X45764260Y-48375000D01*
X45830442Y-48381518D01*
X45830442Y-48381518D01*
G37*
G36*
X76788501Y-48826001D02*
X74686501Y-48826001D01*
X74686501Y-47524001D01*
X76788501Y-47524001D01*
X76788501Y-48826001D01*
X76788501Y-48826001D01*
G37*
G36*
X61788501Y-48826001D02*
X59686501Y-48826001D01*
X59686501Y-47524001D01*
X61788501Y-47524001D01*
X61788501Y-48826001D01*
X61788501Y-48826001D01*
G37*
G36*
X80430821Y-45389313D02*
X80430824Y-45389314D01*
X80430825Y-45389314D01*
X80591239Y-45437975D01*
X80591241Y-45437976D01*
X80591244Y-45437977D01*
X80739078Y-45516995D01*
X80868659Y-45623341D01*
X80975005Y-45752922D01*
X81054023Y-45900756D01*
X81054024Y-45900759D01*
X81054025Y-45900761D01*
X81102686Y-46061175D01*
X81102687Y-46061179D01*
X81119117Y-46228000D01*
X81102687Y-46394821D01*
X81102686Y-46394824D01*
X81102686Y-46394825D01*
X81077993Y-46476228D01*
X81054023Y-46555244D01*
X80975005Y-46703078D01*
X80868659Y-46832659D01*
X80739078Y-46939005D01*
X80591244Y-47018023D01*
X80591241Y-47018024D01*
X80591239Y-47018025D01*
X80430825Y-47066686D01*
X80430824Y-47066686D01*
X80430821Y-47066687D01*
X80305804Y-47079000D01*
X80222196Y-47079000D01*
X80097179Y-47066687D01*
X80097176Y-47066686D01*
X80097175Y-47066686D01*
X79936761Y-47018025D01*
X79936759Y-47018024D01*
X79936756Y-47018023D01*
X79788922Y-46939005D01*
X79659341Y-46832659D01*
X79552995Y-46703078D01*
X79473977Y-46555244D01*
X79450008Y-46476228D01*
X79425314Y-46394825D01*
X79425314Y-46394824D01*
X79425313Y-46394821D01*
X79408883Y-46228000D01*
X79425313Y-46061179D01*
X79425314Y-46061175D01*
X79473975Y-45900761D01*
X79473976Y-45900759D01*
X79473977Y-45900756D01*
X79552995Y-45752922D01*
X79659341Y-45623341D01*
X79788922Y-45516995D01*
X79936756Y-45437977D01*
X79936759Y-45437976D01*
X79936761Y-45437975D01*
X80097175Y-45389314D01*
X80097176Y-45389314D01*
X80097179Y-45389313D01*
X80222196Y-45377000D01*
X80305804Y-45377000D01*
X80430821Y-45389313D01*
X80430821Y-45389313D01*
G37*
G36*
X84830228Y-45409703D02*
X84985100Y-45473853D01*
X85124481Y-45566985D01*
X85243015Y-45685519D01*
X85336147Y-45824900D01*
X85400297Y-45979772D01*
X85433000Y-46144184D01*
X85433000Y-46311816D01*
X85400297Y-46476228D01*
X85336147Y-46631100D01*
X85243015Y-46770481D01*
X85124481Y-46889015D01*
X84985100Y-46982147D01*
X84830228Y-47046297D01*
X84665816Y-47079000D01*
X84498184Y-47079000D01*
X84333772Y-47046297D01*
X84178900Y-46982147D01*
X84039519Y-46889015D01*
X83920985Y-46770481D01*
X83827853Y-46631100D01*
X83763703Y-46476228D01*
X83731000Y-46311816D01*
X83731000Y-46144184D01*
X83763703Y-45979772D01*
X83827853Y-45824900D01*
X83920985Y-45685519D01*
X84039519Y-45566985D01*
X84178900Y-45473853D01*
X84333772Y-45409703D01*
X84498184Y-45377000D01*
X84665816Y-45377000D01*
X84830228Y-45409703D01*
X84830228Y-45409703D01*
G37*
G36*
X89574821Y-45389313D02*
X89574824Y-45389314D01*
X89574825Y-45389314D01*
X89735239Y-45437975D01*
X89735241Y-45437976D01*
X89735244Y-45437977D01*
X89883078Y-45516995D01*
X90012659Y-45623341D01*
X90119005Y-45752922D01*
X90198023Y-45900756D01*
X90198024Y-45900759D01*
X90198025Y-45900761D01*
X90246686Y-46061175D01*
X90246687Y-46061179D01*
X90263117Y-46228000D01*
X90246687Y-46394821D01*
X90246686Y-46394824D01*
X90246686Y-46394825D01*
X90221993Y-46476228D01*
X90198023Y-46555244D01*
X90119005Y-46703078D01*
X90012659Y-46832659D01*
X89883078Y-46939005D01*
X89735244Y-47018023D01*
X89735241Y-47018024D01*
X89735239Y-47018025D01*
X89574825Y-47066686D01*
X89574824Y-47066686D01*
X89574821Y-47066687D01*
X89449804Y-47079000D01*
X89366196Y-47079000D01*
X89241179Y-47066687D01*
X89241176Y-47066686D01*
X89241175Y-47066686D01*
X89080761Y-47018025D01*
X89080759Y-47018024D01*
X89080756Y-47018023D01*
X88932922Y-46939005D01*
X88803341Y-46832659D01*
X88696995Y-46703078D01*
X88617977Y-46555244D01*
X88594008Y-46476228D01*
X88569314Y-46394825D01*
X88569314Y-46394824D01*
X88569313Y-46394821D01*
X88552883Y-46228000D01*
X88569313Y-46061179D01*
X88569314Y-46061175D01*
X88617975Y-45900761D01*
X88617976Y-45900759D01*
X88617977Y-45900756D01*
X88696995Y-45752922D01*
X88803341Y-45623341D01*
X88932922Y-45516995D01*
X89080756Y-45437977D01*
X89080759Y-45437976D01*
X89080761Y-45437975D01*
X89241175Y-45389314D01*
X89241176Y-45389314D01*
X89241179Y-45389313D01*
X89366196Y-45377000D01*
X89449804Y-45377000D01*
X89574821Y-45389313D01*
X89574821Y-45389313D01*
G37*
G36*
X76788501Y-46826001D02*
X74686501Y-46826001D01*
X74686501Y-45524001D01*
X76788501Y-45524001D01*
X76788501Y-46826001D01*
X76788501Y-46826001D01*
G37*
G36*
X61788501Y-46826001D02*
X59686501Y-46826001D01*
X59686501Y-45524001D01*
X61788501Y-45524001D01*
X61788501Y-46826001D01*
X61788501Y-46826001D01*
G37*
G36*
X49778228Y-44647703D02*
X49933100Y-44711853D01*
X50072481Y-44804985D01*
X50191015Y-44923519D01*
X50284147Y-45062900D01*
X50348297Y-45217772D01*
X50381000Y-45382184D01*
X50381000Y-45549816D01*
X50348297Y-45714228D01*
X50284147Y-45869100D01*
X50191015Y-46008481D01*
X50072481Y-46127015D01*
X49933100Y-46220147D01*
X49778228Y-46284297D01*
X49613816Y-46317000D01*
X49446184Y-46317000D01*
X49281772Y-46284297D01*
X49126900Y-46220147D01*
X48987519Y-46127015D01*
X48868985Y-46008481D01*
X48775853Y-45869100D01*
X48711703Y-45714228D01*
X48679000Y-45549816D01*
X48679000Y-45382184D01*
X48711703Y-45217772D01*
X48775853Y-45062900D01*
X48868985Y-44923519D01*
X48987519Y-44804985D01*
X49126900Y-44711853D01*
X49281772Y-44647703D01*
X49446184Y-44615000D01*
X49613816Y-44615000D01*
X49778228Y-44647703D01*
X49778228Y-44647703D01*
G37*
G36*
X54776821Y-44373313D02*
X54776824Y-44373314D01*
X54776825Y-44373314D01*
X54937239Y-44421975D01*
X54937241Y-44421976D01*
X54937244Y-44421977D01*
X55085078Y-44500995D01*
X55214659Y-44607341D01*
X55321005Y-44736922D01*
X55400023Y-44884756D01*
X55448687Y-45045179D01*
X55465117Y-45212000D01*
X55448687Y-45378821D01*
X55448686Y-45378824D01*
X55448686Y-45378825D01*
X55406773Y-45516995D01*
X55400023Y-45539244D01*
X55321005Y-45687078D01*
X55214659Y-45816659D01*
X55085078Y-45923005D01*
X54937244Y-46002023D01*
X54937241Y-46002024D01*
X54937239Y-46002025D01*
X54776825Y-46050686D01*
X54776824Y-46050686D01*
X54776821Y-46050687D01*
X54651804Y-46063000D01*
X54568196Y-46063000D01*
X54443179Y-46050687D01*
X54443176Y-46050686D01*
X54443175Y-46050686D01*
X54282761Y-46002025D01*
X54282759Y-46002024D01*
X54282756Y-46002023D01*
X54134922Y-45923005D01*
X54005341Y-45816659D01*
X53898995Y-45687078D01*
X53819977Y-45539244D01*
X53813228Y-45516995D01*
X53771314Y-45378825D01*
X53771314Y-45378824D01*
X53771313Y-45378821D01*
X53754883Y-45212000D01*
X53771313Y-45045179D01*
X53819977Y-44884756D01*
X53898995Y-44736922D01*
X54005341Y-44607341D01*
X54134922Y-44500995D01*
X54282756Y-44421977D01*
X54282759Y-44421976D01*
X54282761Y-44421975D01*
X54443175Y-44373314D01*
X54443176Y-44373314D01*
X54443179Y-44373313D01*
X54568196Y-44361000D01*
X54651804Y-44361000D01*
X54776821Y-44373313D01*
X54776821Y-44373313D01*
G37*
G36*
X61788501Y-44826001D02*
X59686501Y-44826001D01*
X59686501Y-43524001D01*
X61788501Y-43524001D01*
X61788501Y-44826001D01*
X61788501Y-44826001D01*
G37*
G36*
X76788501Y-44826001D02*
X74686501Y-44826001D01*
X74686501Y-43524001D01*
X76788501Y-43524001D01*
X76788501Y-44826001D01*
X76788501Y-44826001D01*
G37*
G36*
X90463000Y-40454000D02*
X90298664Y-40454000D01*
X90274278Y-40456402D01*
X90250829Y-40463515D01*
X90229218Y-40475066D01*
X90210276Y-40490612D01*
X90194730Y-40509554D01*
X90183179Y-40531165D01*
X90176066Y-40554614D01*
X90173664Y-40579000D01*
X90176066Y-40603386D01*
X90183179Y-40626835D01*
X90194730Y-40648446D01*
X90219365Y-40675626D01*
X90296264Y-40738736D01*
X90368244Y-40826443D01*
X90421729Y-40926508D01*
X90454666Y-41035084D01*
X90465787Y-41148000D01*
X90454666Y-41260916D01*
X90421729Y-41369492D01*
X90421726Y-41369497D01*
X90368244Y-41469557D01*
X90296264Y-41557264D01*
X90208557Y-41629244D01*
X90127143Y-41672760D01*
X90106768Y-41686373D01*
X90089441Y-41703701D01*
X90075827Y-41724075D01*
X90066450Y-41746714D01*
X90061669Y-41770747D01*
X90061669Y-41795252D01*
X90066449Y-41819285D01*
X90075827Y-41841924D01*
X90089440Y-41862299D01*
X90106768Y-41879626D01*
X90127143Y-41893240D01*
X90208557Y-41936756D01*
X90296264Y-42008736D01*
X90368244Y-42096443D01*
X90421729Y-42196508D01*
X90454666Y-42305084D01*
X90465787Y-42418000D01*
X90454666Y-42530916D01*
X90421729Y-42639492D01*
X90368244Y-42739557D01*
X90296264Y-42827264D01*
X90208557Y-42899244D01*
X90108492Y-42952729D01*
X89999916Y-42985666D01*
X89915298Y-42994000D01*
X89408702Y-42994000D01*
X89324084Y-42985666D01*
X89215508Y-42952729D01*
X89115443Y-42899244D01*
X89027736Y-42827264D01*
X88955756Y-42739557D01*
X88902271Y-42639492D01*
X88869334Y-42530916D01*
X88858213Y-42418000D01*
X88869334Y-42305084D01*
X88902271Y-42196508D01*
X88955756Y-42096443D01*
X89027736Y-42008736D01*
X89115443Y-41936756D01*
X89196857Y-41893240D01*
X89217232Y-41879627D01*
X89234559Y-41862299D01*
X89248173Y-41841925D01*
X89257550Y-41819286D01*
X89262331Y-41795253D01*
X89262331Y-41770748D01*
X89257551Y-41746715D01*
X89248173Y-41724076D01*
X89234560Y-41703701D01*
X89217232Y-41686374D01*
X89196857Y-41672760D01*
X89115443Y-41629244D01*
X89027736Y-41557264D01*
X88955756Y-41469557D01*
X88902274Y-41369497D01*
X88902271Y-41369492D01*
X88869334Y-41260916D01*
X88858213Y-41148000D01*
X88869334Y-41035084D01*
X88902271Y-40926508D01*
X88955756Y-40826443D01*
X89027736Y-40738736D01*
X89104635Y-40675626D01*
X89121962Y-40658299D01*
X89135576Y-40637924D01*
X89144954Y-40615285D01*
X89149734Y-40591252D01*
X89149734Y-40566748D01*
X89144953Y-40542714D01*
X89135576Y-40520075D01*
X89121962Y-40499701D01*
X89104635Y-40482374D01*
X89084260Y-40468760D01*
X89061621Y-40459382D01*
X89025336Y-40454000D01*
X88861000Y-40454000D01*
X88861000Y-39302000D01*
X90463000Y-39302000D01*
X90463000Y-40454000D01*
X90463000Y-40454000D01*
G37*
G36*
X61788501Y-42826001D02*
X59686501Y-42826001D01*
X59686501Y-41524001D01*
X61788501Y-41524001D01*
X61788501Y-42826001D01*
X61788501Y-42826001D01*
G37*
G36*
X76788501Y-42826001D02*
X74686501Y-42826001D01*
X74686501Y-41524001D01*
X76788501Y-41524001D01*
X76788501Y-42826001D01*
X76788501Y-42826001D01*
G37*
G36*
X61788501Y-40826001D02*
X59686501Y-40826001D01*
X59686501Y-39524001D01*
X61788501Y-39524001D01*
X61788501Y-40826001D01*
X61788501Y-40826001D01*
G37*
G36*
X76788501Y-40826001D02*
X74686501Y-40826001D01*
X74686501Y-39524001D01*
X76788501Y-39524001D01*
X76788501Y-40826001D01*
X76788501Y-40826001D01*
G37*
G36*
X76788501Y-38826001D02*
X74686501Y-38826001D01*
X74686501Y-37524001D01*
X76788501Y-37524001D01*
X76788501Y-38826001D01*
X76788501Y-38826001D01*
G37*
G36*
X61788501Y-38826001D02*
X59686501Y-38826001D01*
X59686501Y-37524001D01*
X61788501Y-37524001D01*
X61788501Y-38826001D01*
X61788501Y-38826001D01*
G37*
G36*
X45576442Y-35681518D02*
X45642627Y-35688037D01*
X45753049Y-35721533D01*
X45812467Y-35739557D01*
X45890146Y-35781078D01*
X45968991Y-35823222D01*
X46004729Y-35852552D01*
X46106186Y-35935814D01*
X46189448Y-36037271D01*
X46218778Y-36073009D01*
X46218779Y-36073011D01*
X46302443Y-36229533D01*
X46319616Y-36286147D01*
X46353963Y-36399373D01*
X46371359Y-36576000D01*
X46353963Y-36752627D01*
X46333289Y-36820779D01*
X46302443Y-36922467D01*
X46277570Y-36969000D01*
X46218778Y-37078991D01*
X46189448Y-37114729D01*
X46106186Y-37216186D01*
X46004729Y-37299448D01*
X45968991Y-37328778D01*
X45968989Y-37328779D01*
X45812467Y-37412443D01*
X45755853Y-37429616D01*
X45642627Y-37463963D01*
X45576442Y-37470482D01*
X45510260Y-37477000D01*
X45421740Y-37477000D01*
X45355558Y-37470482D01*
X45289373Y-37463963D01*
X45176147Y-37429616D01*
X45119533Y-37412443D01*
X44963011Y-37328779D01*
X44963009Y-37328778D01*
X44927271Y-37299448D01*
X44825814Y-37216186D01*
X44742552Y-37114729D01*
X44713222Y-37078991D01*
X44654430Y-36969000D01*
X44629557Y-36922467D01*
X44598711Y-36820779D01*
X44578037Y-36752627D01*
X44560641Y-36576000D01*
X44578037Y-36399373D01*
X44612384Y-36286147D01*
X44629557Y-36229533D01*
X44713221Y-36073011D01*
X44713222Y-36073009D01*
X44742552Y-36037271D01*
X44825814Y-35935814D01*
X44927271Y-35852552D01*
X44963009Y-35823222D01*
X45041854Y-35781078D01*
X45119533Y-35739557D01*
X45178951Y-35721533D01*
X45289373Y-35688037D01*
X45355558Y-35681518D01*
X45421740Y-35675000D01*
X45510260Y-35675000D01*
X45576442Y-35681518D01*
X45576442Y-35681518D01*
G37*
G36*
X90817000Y-36969000D02*
X89015000Y-36969000D01*
X89015000Y-35167000D01*
X90817000Y-35167000D01*
X90817000Y-36969000D01*
X90817000Y-36969000D01*
G37*
G36*
X81644442Y-35173518D02*
X81710627Y-35180037D01*
X81823853Y-35214384D01*
X81880467Y-35231557D01*
X82008939Y-35300228D01*
X82036991Y-35315222D01*
X82072729Y-35344552D01*
X82174186Y-35427814D01*
X82253123Y-35524001D01*
X82286778Y-35565009D01*
X82286779Y-35565011D01*
X82370443Y-35721533D01*
X82370443Y-35721534D01*
X82421963Y-35891373D01*
X82439359Y-36068000D01*
X82421963Y-36244627D01*
X82387616Y-36357853D01*
X82370443Y-36414467D01*
X82296348Y-36553087D01*
X82286778Y-36570991D01*
X82282667Y-36576000D01*
X82174186Y-36708186D01*
X82072729Y-36791448D01*
X82036991Y-36820778D01*
X82019087Y-36830348D01*
X81880467Y-36904443D01*
X81823853Y-36921616D01*
X81710627Y-36955963D01*
X81644442Y-36962482D01*
X81578260Y-36969000D01*
X81489740Y-36969000D01*
X81423558Y-36962482D01*
X81357373Y-36955963D01*
X81244147Y-36921616D01*
X81187533Y-36904443D01*
X81048913Y-36830348D01*
X81031009Y-36820778D01*
X80995271Y-36791448D01*
X80893814Y-36708186D01*
X80785333Y-36576000D01*
X80781222Y-36570991D01*
X80771652Y-36553087D01*
X80697557Y-36414467D01*
X80680384Y-36357853D01*
X80646037Y-36244627D01*
X80628641Y-36068000D01*
X80646037Y-35891373D01*
X80697557Y-35721534D01*
X80697557Y-35721533D01*
X80781221Y-35565011D01*
X80781222Y-35565009D01*
X80814877Y-35524001D01*
X80893814Y-35427814D01*
X80995271Y-35344552D01*
X81031009Y-35315222D01*
X81059061Y-35300228D01*
X81187533Y-35231557D01*
X81244147Y-35214384D01*
X81357373Y-35180037D01*
X81423558Y-35173518D01*
X81489740Y-35167000D01*
X81578260Y-35167000D01*
X81644442Y-35173518D01*
X81644442Y-35173518D01*
G37*
G36*
X61788501Y-36826001D02*
X59686501Y-36826001D01*
X59686501Y-35524001D01*
X61788501Y-35524001D01*
X61788501Y-36826001D01*
X61788501Y-36826001D01*
G37*
G36*
X76788501Y-36826001D02*
X74686501Y-36826001D01*
X74686501Y-35524001D01*
X76788501Y-35524001D01*
X76788501Y-36826001D01*
X76788501Y-36826001D01*
G37*
G36*
X49696821Y-34467313D02*
X49696824Y-34467314D01*
X49696825Y-34467314D01*
X49857239Y-34515975D01*
X49857241Y-34515976D01*
X49857244Y-34515977D01*
X50005078Y-34594995D01*
X50134659Y-34701341D01*
X50241005Y-34830922D01*
X50320023Y-34978756D01*
X50368687Y-35139179D01*
X50385117Y-35306000D01*
X50368687Y-35472821D01*
X50368686Y-35472824D01*
X50368686Y-35472825D01*
X50340722Y-35565011D01*
X50320023Y-35633244D01*
X50241005Y-35781078D01*
X50134659Y-35910659D01*
X50005078Y-36017005D01*
X49857244Y-36096023D01*
X49857241Y-36096024D01*
X49857239Y-36096025D01*
X49696825Y-36144686D01*
X49696824Y-36144686D01*
X49696821Y-36144687D01*
X49571804Y-36157000D01*
X49488196Y-36157000D01*
X49363179Y-36144687D01*
X49363176Y-36144686D01*
X49363175Y-36144686D01*
X49202761Y-36096025D01*
X49202759Y-36096024D01*
X49202756Y-36096023D01*
X49054922Y-36017005D01*
X48925341Y-35910659D01*
X48818995Y-35781078D01*
X48739977Y-35633244D01*
X48719279Y-35565011D01*
X48691314Y-35472825D01*
X48691314Y-35472824D01*
X48691313Y-35472821D01*
X48674883Y-35306000D01*
X48691313Y-35139179D01*
X48739977Y-34978756D01*
X48818995Y-34830922D01*
X48925341Y-34701341D01*
X49054922Y-34594995D01*
X49202756Y-34515977D01*
X49202759Y-34515976D01*
X49202761Y-34515975D01*
X49363175Y-34467314D01*
X49363176Y-34467314D01*
X49363179Y-34467313D01*
X49488196Y-34455000D01*
X49571804Y-34455000D01*
X49696821Y-34467313D01*
X49696821Y-34467313D01*
G37*
G36*
X54858228Y-34233703D02*
X55013100Y-34297853D01*
X55152481Y-34390985D01*
X55271015Y-34509519D01*
X55364147Y-34648900D01*
X55428297Y-34803772D01*
X55461000Y-34968184D01*
X55461000Y-35135816D01*
X55428297Y-35300228D01*
X55364147Y-35455100D01*
X55271015Y-35594481D01*
X55152481Y-35713015D01*
X55013100Y-35806147D01*
X54858228Y-35870297D01*
X54693816Y-35903000D01*
X54526184Y-35903000D01*
X54361772Y-35870297D01*
X54206900Y-35806147D01*
X54067519Y-35713015D01*
X53948985Y-35594481D01*
X53855853Y-35455100D01*
X53791703Y-35300228D01*
X53759000Y-35135816D01*
X53759000Y-34968184D01*
X53791703Y-34803772D01*
X53855853Y-34648900D01*
X53948985Y-34509519D01*
X54067519Y-34390985D01*
X54206900Y-34297853D01*
X54361772Y-34233703D01*
X54526184Y-34201000D01*
X54693816Y-34201000D01*
X54858228Y-34233703D01*
X54858228Y-34233703D01*
G37*
G36*
X45576443Y-33141519D02*
X45642627Y-33148037D01*
X45753049Y-33181533D01*
X45812467Y-33199557D01*
X45937044Y-33266146D01*
X45968991Y-33283222D01*
X46004729Y-33312552D01*
X46106186Y-33395814D01*
X46189448Y-33497271D01*
X46218778Y-33533009D01*
X46218779Y-33533011D01*
X46302443Y-33689533D01*
X46319616Y-33746147D01*
X46353963Y-33859373D01*
X46371359Y-34036000D01*
X46353963Y-34212627D01*
X46333289Y-34280779D01*
X46302443Y-34382467D01*
X46234531Y-34509519D01*
X46218778Y-34538991D01*
X46189448Y-34574729D01*
X46106186Y-34676186D01*
X46004729Y-34759448D01*
X45968991Y-34788778D01*
X45968989Y-34788779D01*
X45812467Y-34872443D01*
X45755853Y-34889616D01*
X45642627Y-34923963D01*
X45576442Y-34930482D01*
X45510260Y-34937000D01*
X45421740Y-34937000D01*
X45355558Y-34930482D01*
X45289373Y-34923963D01*
X45176147Y-34889616D01*
X45119533Y-34872443D01*
X44963011Y-34788779D01*
X44963009Y-34788778D01*
X44927271Y-34759448D01*
X44825814Y-34676186D01*
X44742552Y-34574729D01*
X44713222Y-34538991D01*
X44697469Y-34509519D01*
X44629557Y-34382467D01*
X44598711Y-34280779D01*
X44578037Y-34212627D01*
X44560641Y-34036000D01*
X44578037Y-33859373D01*
X44612384Y-33746147D01*
X44629557Y-33689533D01*
X44713221Y-33533011D01*
X44713222Y-33533009D01*
X44742552Y-33497271D01*
X44825814Y-33395814D01*
X44927271Y-33312552D01*
X44963009Y-33283222D01*
X44994956Y-33266146D01*
X45119533Y-33199557D01*
X45178951Y-33181533D01*
X45289373Y-33148037D01*
X45355557Y-33141519D01*
X45421740Y-33135000D01*
X45510260Y-33135000D01*
X45576443Y-33141519D01*
X45576443Y-33141519D01*
G37*
G36*
X76788501Y-34826001D02*
X74686501Y-34826001D01*
X74686501Y-33524001D01*
X76788501Y-33524001D01*
X76788501Y-34826001D01*
X76788501Y-34826001D01*
G37*
G36*
X61788501Y-34826001D02*
X59686501Y-34826001D01*
X59686501Y-33524001D01*
X61788501Y-33524001D01*
X61788501Y-34826001D01*
X61788501Y-34826001D01*
G37*
G36*
X82435000Y-34429000D02*
X80633000Y-34429000D01*
X80633000Y-32627000D01*
X82435000Y-32627000D01*
X82435000Y-34429000D01*
X82435000Y-34429000D01*
G37*
G36*
X90026442Y-32633518D02*
X90092627Y-32640037D01*
X90205853Y-32674384D01*
X90262467Y-32691557D01*
X90387044Y-32758146D01*
X90418991Y-32775222D01*
X90454729Y-32804552D01*
X90556186Y-32887814D01*
X90639448Y-32989271D01*
X90668778Y-33025009D01*
X90668779Y-33025011D01*
X90752443Y-33181533D01*
X90752443Y-33181534D01*
X90803963Y-33351373D01*
X90821359Y-33528000D01*
X90803963Y-33704627D01*
X90769616Y-33817853D01*
X90752443Y-33874467D01*
X90678348Y-34013087D01*
X90668778Y-34030991D01*
X90664667Y-34036000D01*
X90556186Y-34168186D01*
X90454729Y-34251448D01*
X90418991Y-34280778D01*
X90418989Y-34280779D01*
X90262467Y-34364443D01*
X90205853Y-34381616D01*
X90092627Y-34415963D01*
X90026443Y-34422481D01*
X89960260Y-34429000D01*
X89871740Y-34429000D01*
X89805557Y-34422481D01*
X89739373Y-34415963D01*
X89626147Y-34381616D01*
X89569533Y-34364443D01*
X89413011Y-34280779D01*
X89413009Y-34280778D01*
X89377271Y-34251448D01*
X89275814Y-34168186D01*
X89167333Y-34036000D01*
X89163222Y-34030991D01*
X89153652Y-34013087D01*
X89079557Y-33874467D01*
X89062384Y-33817853D01*
X89028037Y-33704627D01*
X89010641Y-33528000D01*
X89028037Y-33351373D01*
X89079557Y-33181534D01*
X89079557Y-33181533D01*
X89163221Y-33025011D01*
X89163222Y-33025009D01*
X89192552Y-32989271D01*
X89275814Y-32887814D01*
X89377271Y-32804552D01*
X89413009Y-32775222D01*
X89444956Y-32758146D01*
X89569533Y-32691557D01*
X89626147Y-32674384D01*
X89739373Y-32640037D01*
X89805558Y-32633518D01*
X89871740Y-32627000D01*
X89960260Y-32627000D01*
X90026442Y-32633518D01*
X90026442Y-32633518D01*
G37*
G36*
X49778228Y-31693703D02*
X49933100Y-31757853D01*
X50072481Y-31850985D01*
X50191015Y-31969519D01*
X50284147Y-32108900D01*
X50348297Y-32263772D01*
X50381000Y-32428184D01*
X50381000Y-32595816D01*
X50348297Y-32760228D01*
X50284147Y-32915100D01*
X50191015Y-33054481D01*
X50072481Y-33173015D01*
X49933100Y-33266147D01*
X49778228Y-33330297D01*
X49613816Y-33363000D01*
X49446184Y-33363000D01*
X49281772Y-33330297D01*
X49126900Y-33266147D01*
X48987519Y-33173015D01*
X48868985Y-33054481D01*
X48775853Y-32915100D01*
X48711703Y-32760228D01*
X48679000Y-32595816D01*
X48679000Y-32428184D01*
X48711703Y-32263772D01*
X48775853Y-32108900D01*
X48868985Y-31969519D01*
X48987519Y-31850985D01*
X49126900Y-31757853D01*
X49281772Y-31693703D01*
X49446184Y-31661000D01*
X49613816Y-31661000D01*
X49778228Y-31693703D01*
X49778228Y-31693703D01*
G37*
G36*
X54604228Y-31185703D02*
X54759100Y-31249853D01*
X54898481Y-31342985D01*
X55017015Y-31461519D01*
X55110147Y-31600900D01*
X55174297Y-31755772D01*
X55207000Y-31920184D01*
X55207000Y-32087816D01*
X55174297Y-32252228D01*
X55110147Y-32407100D01*
X55017015Y-32546481D01*
X54898481Y-32665015D01*
X54759100Y-32758147D01*
X54604228Y-32822297D01*
X54439816Y-32855000D01*
X54272184Y-32855000D01*
X54107772Y-32822297D01*
X53952900Y-32758147D01*
X53813519Y-32665015D01*
X53694985Y-32546481D01*
X53601853Y-32407100D01*
X53537703Y-32252228D01*
X53505000Y-32087816D01*
X53505000Y-31920184D01*
X53537703Y-31755772D01*
X53601853Y-31600900D01*
X53694985Y-31461519D01*
X53813519Y-31342985D01*
X53952900Y-31249853D01*
X54107772Y-31185703D01*
X54272184Y-31153000D01*
X54439816Y-31153000D01*
X54604228Y-31185703D01*
X54604228Y-31185703D01*
G37*
G36*
X46367000Y-32397000D02*
X44565000Y-32397000D01*
X44565000Y-30595000D01*
X46367000Y-30595000D01*
X46367000Y-32397000D01*
X46367000Y-32397000D01*
G37*
G36*
X90026442Y-30093518D02*
X90092627Y-30100037D01*
X90205853Y-30134384D01*
X90262467Y-30151557D01*
X90401087Y-30225652D01*
X90418991Y-30235222D01*
X90454729Y-30264552D01*
X90556186Y-30347814D01*
X90639448Y-30449271D01*
X90668778Y-30485009D01*
X90668779Y-30485011D01*
X90752443Y-30641533D01*
X90752443Y-30641534D01*
X90803963Y-30811373D01*
X90821359Y-30988000D01*
X90803963Y-31164627D01*
X90797569Y-31185704D01*
X90752443Y-31334467D01*
X90747889Y-31342986D01*
X90668778Y-31490991D01*
X90639448Y-31526729D01*
X90556186Y-31628186D01*
X90454729Y-31711448D01*
X90418991Y-31740778D01*
X90418989Y-31740779D01*
X90262467Y-31824443D01*
X90205853Y-31841616D01*
X90092627Y-31875963D01*
X90026442Y-31882482D01*
X89960260Y-31889000D01*
X89871740Y-31889000D01*
X89805558Y-31882482D01*
X89739373Y-31875963D01*
X89626147Y-31841616D01*
X89569533Y-31824443D01*
X89413011Y-31740779D01*
X89413009Y-31740778D01*
X89377271Y-31711448D01*
X89275814Y-31628186D01*
X89192552Y-31526729D01*
X89163222Y-31490991D01*
X89084111Y-31342986D01*
X89079557Y-31334467D01*
X89034431Y-31185704D01*
X89028037Y-31164627D01*
X89010641Y-30988000D01*
X89028037Y-30811373D01*
X89079557Y-30641534D01*
X89079557Y-30641533D01*
X89163221Y-30485011D01*
X89163222Y-30485009D01*
X89192552Y-30449271D01*
X89275814Y-30347814D01*
X89377271Y-30264552D01*
X89413009Y-30235222D01*
X89430913Y-30225652D01*
X89569533Y-30151557D01*
X89626147Y-30134384D01*
X89739373Y-30100037D01*
X89805558Y-30093518D01*
X89871740Y-30087000D01*
X89960260Y-30087000D01*
X90026442Y-30093518D01*
X90026442Y-30093518D01*
G37*
G36*
X82544228Y-25597703D02*
X82699100Y-25661853D01*
X82838481Y-25754985D01*
X82957015Y-25873519D01*
X83050147Y-26012900D01*
X83114297Y-26167772D01*
X83147000Y-26332184D01*
X83147000Y-26499816D01*
X83114297Y-26664228D01*
X83050147Y-26819100D01*
X82957015Y-26958481D01*
X82838481Y-27077015D01*
X82699100Y-27170147D01*
X82544228Y-27234297D01*
X82379816Y-27267000D01*
X82212184Y-27267000D01*
X82047772Y-27234297D01*
X81892900Y-27170147D01*
X81753519Y-27077015D01*
X81634985Y-26958481D01*
X81541853Y-26819100D01*
X81477703Y-26664228D01*
X81445000Y-26499816D01*
X81445000Y-26332184D01*
X81477703Y-26167772D01*
X81541853Y-26012900D01*
X81634985Y-25873519D01*
X81753519Y-25754985D01*
X81892900Y-25661853D01*
X82047772Y-25597703D01*
X82212184Y-25565000D01*
X82379816Y-25565000D01*
X82544228Y-25597703D01*
X82544228Y-25597703D01*
G37*
G36*
X90817000Y-27063000D02*
X89015000Y-27063000D01*
X89015000Y-25261000D01*
X90817000Y-25261000D01*
X90817000Y-27063000D01*
X90817000Y-27063000D01*
G37*
G36*
X90026442Y-22727518D02*
X90092627Y-22734037D01*
X90205853Y-22768384D01*
X90262467Y-22785557D01*
X90340146Y-22827078D01*
X90418991Y-22869222D01*
X90454729Y-22898552D01*
X90556186Y-22981814D01*
X90639448Y-23083271D01*
X90668778Y-23119009D01*
X90668779Y-23119011D01*
X90752443Y-23275533D01*
X90752443Y-23275534D01*
X90803963Y-23445373D01*
X90821359Y-23622000D01*
X90803963Y-23798627D01*
X90769616Y-23911853D01*
X90752443Y-23968467D01*
X90678348Y-24107087D01*
X90668778Y-24124991D01*
X90639448Y-24160729D01*
X90556186Y-24262186D01*
X90454729Y-24345448D01*
X90418991Y-24374778D01*
X90418989Y-24374779D01*
X90262467Y-24458443D01*
X90205853Y-24475616D01*
X90092627Y-24509963D01*
X90026442Y-24516482D01*
X89960260Y-24523000D01*
X89871740Y-24523000D01*
X89805558Y-24516482D01*
X89739373Y-24509963D01*
X89626147Y-24475616D01*
X89569533Y-24458443D01*
X89413011Y-24374779D01*
X89413009Y-24374778D01*
X89377271Y-24345448D01*
X89275814Y-24262186D01*
X89192552Y-24160729D01*
X89163222Y-24124991D01*
X89153652Y-24107087D01*
X89079557Y-23968467D01*
X89062384Y-23911853D01*
X89028037Y-23798627D01*
X89010641Y-23622000D01*
X89028037Y-23445373D01*
X89079557Y-23275534D01*
X89079557Y-23275533D01*
X89163221Y-23119011D01*
X89163222Y-23119009D01*
X89192552Y-23083271D01*
X89275814Y-22981814D01*
X89377271Y-22898552D01*
X89413009Y-22869222D01*
X89491854Y-22827078D01*
X89569533Y-22785557D01*
X89626147Y-22768384D01*
X89739373Y-22734037D01*
X89805557Y-22727519D01*
X89871740Y-22721000D01*
X89960260Y-22721000D01*
X90026442Y-22727518D01*
X90026442Y-22727518D01*
G37*
G36*
X49696821Y-21513313D02*
X49696824Y-21513314D01*
X49696825Y-21513314D01*
X49857239Y-21561975D01*
X49857241Y-21561976D01*
X49857244Y-21561977D01*
X50005078Y-21640995D01*
X50134659Y-21747341D01*
X50241005Y-21876922D01*
X50320023Y-22024756D01*
X50320024Y-22024759D01*
X50320025Y-22024761D01*
X50364460Y-22171244D01*
X50368687Y-22185179D01*
X50385117Y-22352000D01*
X50368687Y-22518821D01*
X50368686Y-22518824D01*
X50368686Y-22518825D01*
X50333741Y-22634025D01*
X50320023Y-22679244D01*
X50241005Y-22827078D01*
X50134659Y-22956659D01*
X50005078Y-23063005D01*
X49857244Y-23142023D01*
X49857241Y-23142024D01*
X49857239Y-23142025D01*
X49696825Y-23190686D01*
X49696824Y-23190686D01*
X49696821Y-23190687D01*
X49571804Y-23203000D01*
X49488196Y-23203000D01*
X49363179Y-23190687D01*
X49363176Y-23190686D01*
X49363175Y-23190686D01*
X49202761Y-23142025D01*
X49202759Y-23142024D01*
X49202756Y-23142023D01*
X49054922Y-23063005D01*
X48925341Y-22956659D01*
X48818995Y-22827078D01*
X48739977Y-22679244D01*
X48726260Y-22634025D01*
X48691314Y-22518825D01*
X48691314Y-22518824D01*
X48691313Y-22518821D01*
X48674883Y-22352000D01*
X48691313Y-22185179D01*
X48695540Y-22171244D01*
X48739975Y-22024761D01*
X48739976Y-22024759D01*
X48739977Y-22024756D01*
X48818995Y-21876922D01*
X48925341Y-21747341D01*
X49054922Y-21640995D01*
X49202756Y-21561977D01*
X49202759Y-21561976D01*
X49202761Y-21561975D01*
X49363175Y-21513314D01*
X49363176Y-21513314D01*
X49363179Y-21513313D01*
X49488196Y-21501000D01*
X49571804Y-21501000D01*
X49696821Y-21513313D01*
X49696821Y-21513313D01*
G37*
G36*
X54522821Y-21005313D02*
X54522824Y-21005314D01*
X54522825Y-21005314D01*
X54683239Y-21053975D01*
X54683241Y-21053976D01*
X54683244Y-21053977D01*
X54831078Y-21132995D01*
X54960659Y-21239341D01*
X55067005Y-21368922D01*
X55146023Y-21516756D01*
X55146024Y-21516759D01*
X55146025Y-21516761D01*
X55166722Y-21584991D01*
X55194687Y-21677179D01*
X55211117Y-21844000D01*
X55194687Y-22010821D01*
X55194686Y-22010824D01*
X55194686Y-22010825D01*
X55190459Y-22024761D01*
X55146023Y-22171244D01*
X55067005Y-22319078D01*
X54960659Y-22448659D01*
X54831078Y-22555005D01*
X54683244Y-22634023D01*
X54683241Y-22634024D01*
X54683239Y-22634025D01*
X54522825Y-22682686D01*
X54522824Y-22682686D01*
X54522821Y-22682687D01*
X54397804Y-22695000D01*
X54314196Y-22695000D01*
X54189179Y-22682687D01*
X54189176Y-22682686D01*
X54189175Y-22682686D01*
X54028761Y-22634025D01*
X54028759Y-22634024D01*
X54028756Y-22634023D01*
X53880922Y-22555005D01*
X53751341Y-22448659D01*
X53644995Y-22319078D01*
X53565977Y-22171244D01*
X53521542Y-22024761D01*
X53517314Y-22010825D01*
X53517314Y-22010824D01*
X53517313Y-22010821D01*
X53500883Y-21844000D01*
X53517313Y-21677179D01*
X53545278Y-21584991D01*
X53565975Y-21516761D01*
X53565976Y-21516759D01*
X53565977Y-21516756D01*
X53644995Y-21368922D01*
X53751341Y-21239341D01*
X53880922Y-21132995D01*
X54028756Y-21053977D01*
X54028759Y-21053976D01*
X54028761Y-21053975D01*
X54189175Y-21005314D01*
X54189176Y-21005314D01*
X54189179Y-21005313D01*
X54314196Y-20993000D01*
X54397804Y-20993000D01*
X54522821Y-21005313D01*
X54522821Y-21005313D01*
G37*
G36*
X64718565Y-20507389D02*
X64909834Y-20586615D01*
X65081976Y-20701637D01*
X65228363Y-20848024D01*
X65343385Y-21020166D01*
X65422611Y-21211435D01*
X65463000Y-21414484D01*
X65463000Y-21621516D01*
X65422611Y-21824565D01*
X65343385Y-22015834D01*
X65228363Y-22187976D01*
X65081976Y-22334363D01*
X64909834Y-22449385D01*
X64718565Y-22528611D01*
X64515516Y-22569000D01*
X64308484Y-22569000D01*
X64105435Y-22528611D01*
X63914166Y-22449385D01*
X63742024Y-22334363D01*
X63595637Y-22187976D01*
X63480615Y-22015834D01*
X63401389Y-21824565D01*
X63361000Y-21621516D01*
X63361000Y-21414484D01*
X63401389Y-21211435D01*
X63480615Y-21020166D01*
X63595637Y-20848024D01*
X63742024Y-20701637D01*
X63914166Y-20586615D01*
X64105435Y-20507389D01*
X64308484Y-20467000D01*
X64515516Y-20467000D01*
X64718565Y-20507389D01*
X64718565Y-20507389D01*
G37*
G36*
X58218565Y-20507389D02*
X58409834Y-20586615D01*
X58581976Y-20701637D01*
X58728363Y-20848024D01*
X58843385Y-21020166D01*
X58922611Y-21211435D01*
X58963000Y-21414484D01*
X58963000Y-21621516D01*
X58922611Y-21824565D01*
X58843385Y-22015834D01*
X58728363Y-22187976D01*
X58581976Y-22334363D01*
X58409834Y-22449385D01*
X58218565Y-22528611D01*
X58015516Y-22569000D01*
X57808484Y-22569000D01*
X57605435Y-22528611D01*
X57414166Y-22449385D01*
X57242024Y-22334363D01*
X57095637Y-22187976D01*
X56980615Y-22015834D01*
X56901389Y-21824565D01*
X56861000Y-21621516D01*
X56861000Y-21414484D01*
X56901389Y-21211435D01*
X56980615Y-21020166D01*
X57095637Y-20848024D01*
X57242024Y-20701637D01*
X57414166Y-20586615D01*
X57605435Y-20507389D01*
X57808484Y-20467000D01*
X58015516Y-20467000D01*
X58218565Y-20507389D01*
X58218565Y-20507389D01*
G37*
G36*
X70006565Y-20325389D02*
X70197834Y-20404615D01*
X70369976Y-20519637D01*
X70516363Y-20666024D01*
X70631385Y-20838166D01*
X70710611Y-21029435D01*
X70751000Y-21232484D01*
X70751000Y-21439516D01*
X70710611Y-21642565D01*
X70631385Y-21833834D01*
X70516363Y-22005976D01*
X70369976Y-22152363D01*
X70197834Y-22267385D01*
X70006565Y-22346611D01*
X69803516Y-22387000D01*
X69596484Y-22387000D01*
X69393435Y-22346611D01*
X69202166Y-22267385D01*
X69030024Y-22152363D01*
X68883637Y-22005976D01*
X68768615Y-21833834D01*
X68689389Y-21642565D01*
X68649000Y-21439516D01*
X68649000Y-21232484D01*
X68689389Y-21029435D01*
X68768615Y-20838166D01*
X68883637Y-20666024D01*
X69030024Y-20519637D01*
X69202166Y-20404615D01*
X69393435Y-20325389D01*
X69596484Y-20285000D01*
X69803516Y-20285000D01*
X70006565Y-20325389D01*
X70006565Y-20325389D01*
G37*
G36*
X76506565Y-20325389D02*
X76697834Y-20404615D01*
X76869976Y-20519637D01*
X77016363Y-20666024D01*
X77131385Y-20838166D01*
X77210611Y-21029435D01*
X77251000Y-21232484D01*
X77251000Y-21439516D01*
X77210611Y-21642565D01*
X77131385Y-21833834D01*
X77016363Y-22005976D01*
X76869976Y-22152363D01*
X76697834Y-22267385D01*
X76506565Y-22346611D01*
X76303516Y-22387000D01*
X76096484Y-22387000D01*
X75893435Y-22346611D01*
X75702166Y-22267385D01*
X75530024Y-22152363D01*
X75383637Y-22005976D01*
X75268615Y-21833834D01*
X75189389Y-21642565D01*
X75149000Y-21439516D01*
X75149000Y-21232484D01*
X75189389Y-21029435D01*
X75268615Y-20838166D01*
X75383637Y-20666024D01*
X75530024Y-20519637D01*
X75702166Y-20404615D01*
X75893435Y-20325389D01*
X76096484Y-20285000D01*
X76303516Y-20285000D01*
X76506565Y-20325389D01*
X76506565Y-20325389D01*
G37*
G36*
X90026443Y-20187519D02*
X90092627Y-20194037D01*
X90205853Y-20228384D01*
X90262467Y-20245557D01*
X90401087Y-20319652D01*
X90418991Y-20329222D01*
X90454729Y-20358552D01*
X90556186Y-20441814D01*
X90639448Y-20543271D01*
X90668778Y-20579009D01*
X90672844Y-20586616D01*
X90752443Y-20735533D01*
X90752443Y-20735534D01*
X90803963Y-20905373D01*
X90821359Y-21082000D01*
X90803963Y-21258627D01*
X90770505Y-21368922D01*
X90752443Y-21428467D01*
X90705251Y-21516756D01*
X90668778Y-21584991D01*
X90639448Y-21620729D01*
X90556186Y-21722186D01*
X90454729Y-21805448D01*
X90418991Y-21834778D01*
X90418989Y-21834779D01*
X90262467Y-21918443D01*
X90205853Y-21935616D01*
X90092627Y-21969963D01*
X90026443Y-21976481D01*
X89960260Y-21983000D01*
X89871740Y-21983000D01*
X89805558Y-21976482D01*
X89739373Y-21969963D01*
X89626147Y-21935616D01*
X89569533Y-21918443D01*
X89413011Y-21834779D01*
X89413009Y-21834778D01*
X89377271Y-21805448D01*
X89275814Y-21722186D01*
X89192552Y-21620729D01*
X89163222Y-21584991D01*
X89126749Y-21516756D01*
X89079557Y-21428467D01*
X89061495Y-21368922D01*
X89028037Y-21258627D01*
X89010641Y-21082000D01*
X89028037Y-20905373D01*
X89079557Y-20735534D01*
X89079557Y-20735533D01*
X89159156Y-20586616D01*
X89163222Y-20579009D01*
X89192552Y-20543271D01*
X89275814Y-20441814D01*
X89377271Y-20358552D01*
X89413009Y-20329222D01*
X89430913Y-20319652D01*
X89569533Y-20245557D01*
X89626147Y-20228384D01*
X89739373Y-20194037D01*
X89805558Y-20187518D01*
X89871740Y-20181000D01*
X89960260Y-20181000D01*
X90026443Y-20187519D01*
X90026443Y-20187519D01*
G37*
G36*
X90026443Y-17647519D02*
X90092627Y-17654037D01*
X90204499Y-17687973D01*
X90262467Y-17705557D01*
X90378135Y-17767384D01*
X90418991Y-17789222D01*
X90454729Y-17818552D01*
X90556186Y-17901814D01*
X90639448Y-18003271D01*
X90668778Y-18039009D01*
X90668779Y-18039011D01*
X90752443Y-18195533D01*
X90752443Y-18195534D01*
X90803963Y-18365373D01*
X90821359Y-18542000D01*
X90803963Y-18718627D01*
X90769616Y-18831853D01*
X90752443Y-18888467D01*
X90678348Y-19027087D01*
X90668778Y-19044991D01*
X90639448Y-19080729D01*
X90556186Y-19182186D01*
X90454729Y-19265448D01*
X90418991Y-19294778D01*
X90418989Y-19294779D01*
X90262467Y-19378443D01*
X90205853Y-19395616D01*
X90092627Y-19429963D01*
X90026443Y-19436481D01*
X89960260Y-19443000D01*
X89871740Y-19443000D01*
X89805557Y-19436481D01*
X89739373Y-19429963D01*
X89626147Y-19395616D01*
X89569533Y-19378443D01*
X89413011Y-19294779D01*
X89413009Y-19294778D01*
X89377271Y-19265448D01*
X89275814Y-19182186D01*
X89192552Y-19080729D01*
X89163222Y-19044991D01*
X89153652Y-19027087D01*
X89079557Y-18888467D01*
X89062384Y-18831853D01*
X89028037Y-18718627D01*
X89010641Y-18542000D01*
X89028037Y-18365373D01*
X89079557Y-18195534D01*
X89079557Y-18195533D01*
X89163221Y-18039011D01*
X89163222Y-18039009D01*
X89192552Y-18003271D01*
X89275814Y-17901814D01*
X89377271Y-17818552D01*
X89413009Y-17789222D01*
X89453865Y-17767384D01*
X89569533Y-17705557D01*
X89627501Y-17687973D01*
X89739373Y-17654037D01*
X89805557Y-17647519D01*
X89871740Y-17641000D01*
X89960260Y-17641000D01*
X90026443Y-17647519D01*
X90026443Y-17647519D01*
G37*
G36*
X64718565Y-16007389D02*
X64909834Y-16086615D01*
X65081976Y-16201637D01*
X65228363Y-16348024D01*
X65343385Y-16520166D01*
X65422611Y-16711435D01*
X65463000Y-16914484D01*
X65463000Y-17121516D01*
X65422611Y-17324565D01*
X65343385Y-17515834D01*
X65228363Y-17687976D01*
X65081976Y-17834363D01*
X64909834Y-17949385D01*
X64718565Y-18028611D01*
X64515516Y-18069000D01*
X64308484Y-18069000D01*
X64105435Y-18028611D01*
X63914166Y-17949385D01*
X63742024Y-17834363D01*
X63595637Y-17687976D01*
X63480615Y-17515834D01*
X63401389Y-17324565D01*
X63361000Y-17121516D01*
X63361000Y-16914484D01*
X63401389Y-16711435D01*
X63480615Y-16520166D01*
X63595637Y-16348024D01*
X63742024Y-16201637D01*
X63914166Y-16086615D01*
X64105435Y-16007389D01*
X64308484Y-15967000D01*
X64515516Y-15967000D01*
X64718565Y-16007389D01*
X64718565Y-16007389D01*
G37*
G36*
X58218565Y-16007389D02*
X58409834Y-16086615D01*
X58581976Y-16201637D01*
X58728363Y-16348024D01*
X58843385Y-16520166D01*
X58922611Y-16711435D01*
X58963000Y-16914484D01*
X58963000Y-17121516D01*
X58922611Y-17324565D01*
X58843385Y-17515834D01*
X58728363Y-17687976D01*
X58581976Y-17834363D01*
X58409834Y-17949385D01*
X58218565Y-18028611D01*
X58015516Y-18069000D01*
X57808484Y-18069000D01*
X57605435Y-18028611D01*
X57414166Y-17949385D01*
X57242024Y-17834363D01*
X57095637Y-17687976D01*
X56980615Y-17515834D01*
X56901389Y-17324565D01*
X56861000Y-17121516D01*
X56861000Y-16914484D01*
X56901389Y-16711435D01*
X56980615Y-16520166D01*
X57095637Y-16348024D01*
X57242024Y-16201637D01*
X57414166Y-16086615D01*
X57605435Y-16007389D01*
X57808484Y-15967000D01*
X58015516Y-15967000D01*
X58218565Y-16007389D01*
X58218565Y-16007389D01*
G37*
G36*
X70006565Y-15825389D02*
X70197834Y-15904615D01*
X70369976Y-16019637D01*
X70516363Y-16166024D01*
X70631385Y-16338166D01*
X70710611Y-16529435D01*
X70751000Y-16732484D01*
X70751000Y-16939516D01*
X70710611Y-17142565D01*
X70631385Y-17333834D01*
X70516363Y-17505976D01*
X70369976Y-17652363D01*
X70197834Y-17767385D01*
X70006565Y-17846611D01*
X69803516Y-17887000D01*
X69596484Y-17887000D01*
X69393435Y-17846611D01*
X69202166Y-17767385D01*
X69030024Y-17652363D01*
X68883637Y-17505976D01*
X68768615Y-17333834D01*
X68689389Y-17142565D01*
X68649000Y-16939516D01*
X68649000Y-16732484D01*
X68689389Y-16529435D01*
X68768615Y-16338166D01*
X68883637Y-16166024D01*
X69030024Y-16019637D01*
X69202166Y-15904615D01*
X69393435Y-15825389D01*
X69596484Y-15785000D01*
X69803516Y-15785000D01*
X70006565Y-15825389D01*
X70006565Y-15825389D01*
G37*
G36*
X76506565Y-15825389D02*
X76697834Y-15904615D01*
X76869976Y-16019637D01*
X77016363Y-16166024D01*
X77131385Y-16338166D01*
X77210611Y-16529435D01*
X77251000Y-16732484D01*
X77251000Y-16939516D01*
X77210611Y-17142565D01*
X77131385Y-17333834D01*
X77016363Y-17505976D01*
X76869976Y-17652363D01*
X76697834Y-17767385D01*
X76506565Y-17846611D01*
X76303516Y-17887000D01*
X76096484Y-17887000D01*
X75893435Y-17846611D01*
X75702166Y-17767385D01*
X75530024Y-17652363D01*
X75383637Y-17505976D01*
X75268615Y-17333834D01*
X75189389Y-17142565D01*
X75149000Y-16939516D01*
X75149000Y-16732484D01*
X75189389Y-16529435D01*
X75268615Y-16338166D01*
X75383637Y-16166024D01*
X75530024Y-16019637D01*
X75702166Y-15904615D01*
X75893435Y-15825389D01*
X76096484Y-15785000D01*
X76303516Y-15785000D01*
X76506565Y-15825389D01*
X76506565Y-15825389D01*
G37*
G36*
X82462821Y-15417313D02*
X82462824Y-15417314D01*
X82462825Y-15417314D01*
X82623239Y-15465975D01*
X82623241Y-15465976D01*
X82623244Y-15465977D01*
X82771078Y-15544995D01*
X82900659Y-15651341D01*
X83007005Y-15780922D01*
X83086023Y-15928756D01*
X83086024Y-15928759D01*
X83086025Y-15928761D01*
X83113591Y-16019635D01*
X83134687Y-16089179D01*
X83151117Y-16256000D01*
X83134687Y-16422821D01*
X83134686Y-16422824D01*
X83134686Y-16422825D01*
X83109762Y-16504989D01*
X83086023Y-16583244D01*
X83007005Y-16731078D01*
X82900659Y-16860659D01*
X82771078Y-16967005D01*
X82623244Y-17046023D01*
X82623241Y-17046024D01*
X82623239Y-17046025D01*
X82462825Y-17094686D01*
X82462824Y-17094686D01*
X82462821Y-17094687D01*
X82337804Y-17107000D01*
X82254196Y-17107000D01*
X82129179Y-17094687D01*
X82129176Y-17094686D01*
X82129175Y-17094686D01*
X81968761Y-17046025D01*
X81968759Y-17046024D01*
X81968756Y-17046023D01*
X81820922Y-16967005D01*
X81691341Y-16860659D01*
X81584995Y-16731078D01*
X81505977Y-16583244D01*
X81482239Y-16504989D01*
X81457314Y-16422825D01*
X81457314Y-16422824D01*
X81457313Y-16422821D01*
X81440883Y-16256000D01*
X81457313Y-16089179D01*
X81478409Y-16019635D01*
X81505975Y-15928761D01*
X81505976Y-15928759D01*
X81505977Y-15928756D01*
X81584995Y-15780922D01*
X81691341Y-15651341D01*
X81820922Y-15544995D01*
X81968756Y-15465977D01*
X81968759Y-15465976D01*
X81968761Y-15465975D01*
X82129175Y-15417314D01*
X82129176Y-15417314D01*
X82129179Y-15417313D01*
X82254196Y-15405000D01*
X82337804Y-15405000D01*
X82462821Y-15417313D01*
X82462821Y-15417313D01*
G37*
G36*
X90026443Y-15107519D02*
X90092627Y-15114037D01*
X90205853Y-15148384D01*
X90262467Y-15165557D01*
X90401087Y-15239652D01*
X90418991Y-15249222D01*
X90454729Y-15278552D01*
X90556186Y-15361814D01*
X90639448Y-15463271D01*
X90668778Y-15499009D01*
X90668779Y-15499011D01*
X90752443Y-15655533D01*
X90752443Y-15655534D01*
X90803963Y-15825373D01*
X90821359Y-16002000D01*
X90803963Y-16178627D01*
X90796983Y-16201637D01*
X90752443Y-16348467D01*
X90712699Y-16422821D01*
X90668778Y-16504991D01*
X90656325Y-16520165D01*
X90556186Y-16642186D01*
X90454729Y-16725448D01*
X90418991Y-16754778D01*
X90418989Y-16754779D01*
X90262467Y-16838443D01*
X90205853Y-16855616D01*
X90092627Y-16889963D01*
X90026443Y-16896481D01*
X89960260Y-16903000D01*
X89871740Y-16903000D01*
X89805557Y-16896481D01*
X89739373Y-16889963D01*
X89626147Y-16855616D01*
X89569533Y-16838443D01*
X89413011Y-16754779D01*
X89413009Y-16754778D01*
X89377271Y-16725448D01*
X89275814Y-16642186D01*
X89175675Y-16520165D01*
X89163222Y-16504991D01*
X89119301Y-16422821D01*
X89079557Y-16348467D01*
X89035017Y-16201637D01*
X89028037Y-16178627D01*
X89010641Y-16002000D01*
X89028037Y-15825373D01*
X89079557Y-15655534D01*
X89079557Y-15655533D01*
X89163221Y-15499011D01*
X89163222Y-15499009D01*
X89192552Y-15463271D01*
X89275814Y-15361814D01*
X89377271Y-15278552D01*
X89413009Y-15249222D01*
X89430913Y-15239652D01*
X89569533Y-15165557D01*
X89626147Y-15148384D01*
X89739373Y-15114037D01*
X89805557Y-15107519D01*
X89871740Y-15101000D01*
X89960260Y-15101000D01*
X90026443Y-15107519D01*
X90026443Y-15107519D01*
G37*
M02*
