G04 #@! TF.GenerationSoftware,KiCad,Pcbnew,(5.0.1-3-g963ef8bb5)*
G04 #@! TF.CreationDate,2020-03-03T22:13:18-05:00*
G04 #@! TF.ProjectId,NeuMaE,4E65754D61452E6B696361645F706362,rev?*
G04 #@! TF.SameCoordinates,Original*
G04 #@! TF.FileFunction,Legend,Top*
G04 #@! TF.FilePolarity,Positive*
%FSLAX46Y46*%
G04 Gerber Fmt 4.6, Leading zero omitted, Abs format (unit mm)*
G04 Created by KiCad (PCBNEW (5.0.1-3-g963ef8bb5)) date Tuesday, 03 March 2020 at 22:13:18*
%MOMM*%
%LPD*%
G01*
G04 APERTURE LIST*
%ADD10C,0.254000*%
%ADD11C,0.120000*%
%ADD12C,0.127000*%
%ADD13C,0.015000*%
%ADD14C,0.150000*%
G04 APERTURE END LIST*
D10*
G04 #@! TO.C,U1*
X67437000Y-53975000D02*
X67437000Y-65405000D01*
X67437000Y-65405000D02*
X58547000Y-65405000D01*
X58547000Y-65405000D02*
X58547000Y-53975000D01*
X58547000Y-53975000D02*
X67437000Y-53975000D01*
D11*
G04 #@! TO.C,SW1*
X69450000Y-18336000D02*
X69450000Y-19836000D01*
X70700000Y-22336000D02*
X75200000Y-22336000D01*
X76450000Y-19836000D02*
X76450000Y-18336000D01*
X75200000Y-15836000D02*
X70700000Y-15836000D01*
G04 #@! TO.C,C1*
X49176000Y-56238000D02*
X44336000Y-56238000D01*
X49176000Y-53998000D02*
X44336000Y-53998000D01*
X49176000Y-56238000D02*
X49176000Y-53998000D01*
X44336000Y-56238000D02*
X44336000Y-53998000D01*
G04 #@! TO.C,C2*
X48856000Y-61452000D02*
G75*
G03X48856000Y-61452000I-2120000J0D01*
G01*
X48816000Y-61452000D02*
X44656000Y-61452000D01*
X48816000Y-61492000D02*
X44656000Y-61492000D01*
X48815000Y-61532000D02*
X44657000Y-61532000D01*
X48813000Y-61572000D02*
X44659000Y-61572000D01*
X48810000Y-61612000D02*
X44662000Y-61612000D01*
X48807000Y-61652000D02*
X47576000Y-61652000D01*
X45896000Y-61652000D02*
X44665000Y-61652000D01*
X48803000Y-61692000D02*
X47576000Y-61692000D01*
X45896000Y-61692000D02*
X44669000Y-61692000D01*
X48798000Y-61732000D02*
X47576000Y-61732000D01*
X45896000Y-61732000D02*
X44674000Y-61732000D01*
X48792000Y-61772000D02*
X47576000Y-61772000D01*
X45896000Y-61772000D02*
X44680000Y-61772000D01*
X48786000Y-61812000D02*
X47576000Y-61812000D01*
X45896000Y-61812000D02*
X44686000Y-61812000D01*
X48778000Y-61852000D02*
X47576000Y-61852000D01*
X45896000Y-61852000D02*
X44694000Y-61852000D01*
X48770000Y-61892000D02*
X47576000Y-61892000D01*
X45896000Y-61892000D02*
X44702000Y-61892000D01*
X48761000Y-61932000D02*
X47576000Y-61932000D01*
X45896000Y-61932000D02*
X44711000Y-61932000D01*
X48752000Y-61972000D02*
X47576000Y-61972000D01*
X45896000Y-61972000D02*
X44720000Y-61972000D01*
X48741000Y-62012000D02*
X47576000Y-62012000D01*
X45896000Y-62012000D02*
X44731000Y-62012000D01*
X48730000Y-62052000D02*
X47576000Y-62052000D01*
X45896000Y-62052000D02*
X44742000Y-62052000D01*
X48718000Y-62092000D02*
X47576000Y-62092000D01*
X45896000Y-62092000D02*
X44754000Y-62092000D01*
X48704000Y-62132000D02*
X47576000Y-62132000D01*
X45896000Y-62132000D02*
X44768000Y-62132000D01*
X48690000Y-62173000D02*
X47576000Y-62173000D01*
X45896000Y-62173000D02*
X44782000Y-62173000D01*
X48676000Y-62213000D02*
X47576000Y-62213000D01*
X45896000Y-62213000D02*
X44796000Y-62213000D01*
X48660000Y-62253000D02*
X47576000Y-62253000D01*
X45896000Y-62253000D02*
X44812000Y-62253000D01*
X48643000Y-62293000D02*
X47576000Y-62293000D01*
X45896000Y-62293000D02*
X44829000Y-62293000D01*
X48625000Y-62333000D02*
X47576000Y-62333000D01*
X45896000Y-62333000D02*
X44847000Y-62333000D01*
X48606000Y-62373000D02*
X47576000Y-62373000D01*
X45896000Y-62373000D02*
X44866000Y-62373000D01*
X48587000Y-62413000D02*
X47576000Y-62413000D01*
X45896000Y-62413000D02*
X44885000Y-62413000D01*
X48566000Y-62453000D02*
X47576000Y-62453000D01*
X45896000Y-62453000D02*
X44906000Y-62453000D01*
X48544000Y-62493000D02*
X47576000Y-62493000D01*
X45896000Y-62493000D02*
X44928000Y-62493000D01*
X48521000Y-62533000D02*
X47576000Y-62533000D01*
X45896000Y-62533000D02*
X44951000Y-62533000D01*
X48496000Y-62573000D02*
X47576000Y-62573000D01*
X45896000Y-62573000D02*
X44976000Y-62573000D01*
X48471000Y-62613000D02*
X47576000Y-62613000D01*
X45896000Y-62613000D02*
X45001000Y-62613000D01*
X48444000Y-62653000D02*
X47576000Y-62653000D01*
X45896000Y-62653000D02*
X45028000Y-62653000D01*
X48416000Y-62693000D02*
X47576000Y-62693000D01*
X45896000Y-62693000D02*
X45056000Y-62693000D01*
X48386000Y-62733000D02*
X47576000Y-62733000D01*
X45896000Y-62733000D02*
X45086000Y-62733000D01*
X48355000Y-62773000D02*
X47576000Y-62773000D01*
X45896000Y-62773000D02*
X45117000Y-62773000D01*
X48323000Y-62813000D02*
X47576000Y-62813000D01*
X45896000Y-62813000D02*
X45149000Y-62813000D01*
X48288000Y-62853000D02*
X47576000Y-62853000D01*
X45896000Y-62853000D02*
X45184000Y-62853000D01*
X48252000Y-62893000D02*
X47576000Y-62893000D01*
X45896000Y-62893000D02*
X45220000Y-62893000D01*
X48214000Y-62933000D02*
X47576000Y-62933000D01*
X45896000Y-62933000D02*
X45258000Y-62933000D01*
X48174000Y-62973000D02*
X47576000Y-62973000D01*
X45896000Y-62973000D02*
X45298000Y-62973000D01*
X48132000Y-63013000D02*
X47576000Y-63013000D01*
X45896000Y-63013000D02*
X45340000Y-63013000D01*
X48087000Y-63053000D02*
X47576000Y-63053000D01*
X45896000Y-63053000D02*
X45385000Y-63053000D01*
X48040000Y-63093000D02*
X47576000Y-63093000D01*
X45896000Y-63093000D02*
X45432000Y-63093000D01*
X47990000Y-63133000D02*
X47576000Y-63133000D01*
X45896000Y-63133000D02*
X45482000Y-63133000D01*
X47936000Y-63173000D02*
X47576000Y-63173000D01*
X45896000Y-63173000D02*
X45536000Y-63173000D01*
X47878000Y-63213000D02*
X47576000Y-63213000D01*
X45896000Y-63213000D02*
X45594000Y-63213000D01*
X47816000Y-63253000D02*
X47576000Y-63253000D01*
X45896000Y-63253000D02*
X45656000Y-63253000D01*
X47749000Y-63293000D02*
X45723000Y-63293000D01*
X47676000Y-63333000D02*
X45796000Y-63333000D01*
X47595000Y-63373000D02*
X45877000Y-63373000D01*
X47504000Y-63413000D02*
X45968000Y-63413000D01*
X47400000Y-63453000D02*
X46072000Y-63453000D01*
X47273000Y-63493000D02*
X46199000Y-63493000D01*
X47106000Y-63533000D02*
X46366000Y-63533000D01*
X47931000Y-59182199D02*
X47931000Y-59582199D01*
X48131000Y-59382199D02*
X47731000Y-59382199D01*
G04 #@! TO.C,J1*
X91246000Y-29658000D02*
X88586000Y-29658000D01*
X91246000Y-34798000D02*
X91246000Y-29658000D01*
X88586000Y-34798000D02*
X88586000Y-29658000D01*
X91246000Y-34798000D02*
X88586000Y-34798000D01*
X91246000Y-36068000D02*
X91246000Y-37398000D01*
X91246000Y-37398000D02*
X89916000Y-37398000D01*
G04 #@! TO.C,J2*
X80204000Y-37398000D02*
X82864000Y-37398000D01*
X80204000Y-34798000D02*
X80204000Y-37398000D01*
X82864000Y-34798000D02*
X82864000Y-37398000D01*
X80204000Y-34798000D02*
X82864000Y-34798000D01*
X80204000Y-33528000D02*
X80204000Y-32198000D01*
X80204000Y-32198000D02*
X81534000Y-32198000D01*
G04 #@! TO.C,J3*
X44136000Y-30166000D02*
X45466000Y-30166000D01*
X44136000Y-31496000D02*
X44136000Y-30166000D01*
X44136000Y-32766000D02*
X46796000Y-32766000D01*
X46796000Y-32766000D02*
X46796000Y-37906000D01*
X44136000Y-32766000D02*
X44136000Y-37906000D01*
X44136000Y-37906000D02*
X46796000Y-37906000D01*
G04 #@! TO.C,J4*
X49590000Y-47946000D02*
X49590000Y-49276000D01*
X48260000Y-47946000D02*
X49590000Y-47946000D01*
X46990000Y-47946000D02*
X46990000Y-50606000D01*
X46990000Y-50606000D02*
X44390000Y-50606000D01*
X46990000Y-47946000D02*
X44390000Y-47946000D01*
X44390000Y-47946000D02*
X44390000Y-50606000D01*
G04 #@! TO.C,Q1*
X87812000Y-39348000D02*
X87812000Y-42948000D01*
X87823522Y-39309522D02*
G75*
G02X92262000Y-41148000I1838478J-1838478D01*
G01*
X87823522Y-42986478D02*
G75*
G03X92262000Y-41148000I1838478J1838478D01*
G01*
G04 #@! TO.C,R1*
X55980000Y-36862000D02*
X53240000Y-36862000D01*
X53240000Y-36862000D02*
X53240000Y-43402000D01*
X53240000Y-43402000D02*
X55980000Y-43402000D01*
X55980000Y-43402000D02*
X55980000Y-36862000D01*
X54610000Y-36092000D02*
X54610000Y-36862000D01*
X54610000Y-44172000D02*
X54610000Y-43402000D01*
G04 #@! TO.C,R2*
X89408000Y-47268000D02*
X89408000Y-48038000D01*
X89408000Y-55348000D02*
X89408000Y-54578000D01*
X88038000Y-48038000D02*
X88038000Y-54578000D01*
X90778000Y-48038000D02*
X88038000Y-48038000D01*
X90778000Y-54578000D02*
X90778000Y-48038000D01*
X88038000Y-54578000D02*
X90778000Y-54578000D01*
G04 #@! TO.C,R3*
X85952000Y-48038000D02*
X83212000Y-48038000D01*
X83212000Y-48038000D02*
X83212000Y-54578000D01*
X83212000Y-54578000D02*
X85952000Y-54578000D01*
X85952000Y-54578000D02*
X85952000Y-48038000D01*
X84582000Y-47268000D02*
X84582000Y-48038000D01*
X84582000Y-55348000D02*
X84582000Y-54578000D01*
G04 #@! TO.C,R4*
X82296000Y-17296000D02*
X82296000Y-18066000D01*
X82296000Y-25376000D02*
X82296000Y-24606000D01*
X80926000Y-18066000D02*
X80926000Y-24606000D01*
X83666000Y-18066000D02*
X80926000Y-18066000D01*
X83666000Y-24606000D02*
X83666000Y-18066000D01*
X80926000Y-24606000D02*
X83666000Y-24606000D01*
G04 #@! TO.C,R5*
X52986000Y-30194000D02*
X55726000Y-30194000D01*
X55726000Y-30194000D02*
X55726000Y-23654000D01*
X55726000Y-23654000D02*
X52986000Y-23654000D01*
X52986000Y-23654000D02*
X52986000Y-30194000D01*
X54356000Y-30964000D02*
X54356000Y-30194000D01*
X54356000Y-22884000D02*
X54356000Y-23654000D01*
G04 #@! TO.C,R6*
X80264000Y-47268000D02*
X80264000Y-48038000D01*
X80264000Y-55348000D02*
X80264000Y-54578000D01*
X78894000Y-48038000D02*
X78894000Y-54578000D01*
X81634000Y-48038000D02*
X78894000Y-48038000D01*
X81634000Y-54578000D02*
X81634000Y-48038000D01*
X78894000Y-54578000D02*
X81634000Y-54578000D01*
G04 #@! TO.C,SW2*
X58912000Y-22518000D02*
X63412000Y-22518000D01*
X57662000Y-18518000D02*
X57662000Y-20018000D01*
X63412000Y-16018000D02*
X58912000Y-16018000D01*
X64662000Y-20018000D02*
X64662000Y-18518000D01*
D12*
G04 #@! TO.C,U2*
X59237501Y-33300001D02*
G75*
G03X59237501Y-33300001I-250000J0D01*
G01*
X76237501Y-49675001D02*
X74237501Y-49675001D01*
X76237501Y-49175001D02*
X76237501Y-49675001D01*
X60237501Y-49675001D02*
X62237501Y-49675001D01*
X60237501Y-49175001D02*
X60237501Y-49675001D01*
X76237501Y-25675001D02*
X76237501Y-33175001D01*
X60237501Y-25675001D02*
X76237501Y-25675001D01*
X60237501Y-33175001D02*
X60237501Y-25675001D01*
X62237501Y-48435001D02*
X62237501Y-33435001D01*
X74237501Y-48435001D02*
X62237501Y-48435001D01*
X74237501Y-33435001D02*
X74237501Y-48435001D01*
X62237501Y-33435001D02*
X74237501Y-33435001D01*
D11*
G04 #@! TO.C,R7*
X48160000Y-43656000D02*
X50900000Y-43656000D01*
X50900000Y-43656000D02*
X50900000Y-37116000D01*
X50900000Y-37116000D02*
X48160000Y-37116000D01*
X48160000Y-37116000D02*
X48160000Y-43656000D01*
X49530000Y-44426000D02*
X49530000Y-43656000D01*
X49530000Y-36346000D02*
X49530000Y-37116000D01*
G04 #@! TO.C,R8*
X49530000Y-23392000D02*
X49530000Y-24162000D01*
X49530000Y-31472000D02*
X49530000Y-30702000D01*
X48160000Y-24162000D02*
X48160000Y-30702000D01*
X50900000Y-24162000D02*
X48160000Y-24162000D01*
X50900000Y-30702000D02*
X50900000Y-24162000D01*
X48160000Y-30702000D02*
X50900000Y-30702000D01*
G04 #@! TO.C,J5*
X91246000Y-14672000D02*
X88586000Y-14672000D01*
X91246000Y-24892000D02*
X91246000Y-14672000D01*
X88586000Y-24892000D02*
X88586000Y-14672000D01*
X91246000Y-24892000D02*
X88586000Y-24892000D01*
X91246000Y-26162000D02*
X91246000Y-27492000D01*
X91246000Y-27492000D02*
X89916000Y-27492000D01*
G04 #@! TO.C,U1*
D13*
X62139003Y-52507588D02*
X62139003Y-53074616D01*
X62172358Y-53141325D01*
X62205713Y-53174679D01*
X62272422Y-53208034D01*
X62405840Y-53208034D01*
X62472549Y-53174679D01*
X62505904Y-53141325D01*
X62539258Y-53074616D01*
X62539258Y-52507588D01*
X63239704Y-53208034D02*
X62839449Y-53208034D01*
X63039577Y-53208034D02*
X63039577Y-52507588D01*
X62972868Y-52607652D01*
X62906159Y-52674361D01*
X62839449Y-52707715D01*
G04 #@! TO.C,SW1*
D14*
X71616666Y-23740761D02*
X71759523Y-23788380D01*
X71997619Y-23788380D01*
X72092857Y-23740761D01*
X72140476Y-23693142D01*
X72188095Y-23597904D01*
X72188095Y-23502666D01*
X72140476Y-23407428D01*
X72092857Y-23359809D01*
X71997619Y-23312190D01*
X71807142Y-23264571D01*
X71711904Y-23216952D01*
X71664285Y-23169333D01*
X71616666Y-23074095D01*
X71616666Y-22978857D01*
X71664285Y-22883619D01*
X71711904Y-22836000D01*
X71807142Y-22788380D01*
X72045238Y-22788380D01*
X72188095Y-22836000D01*
X72521428Y-22788380D02*
X72759523Y-23788380D01*
X72950000Y-23074095D01*
X73140476Y-23788380D01*
X73378571Y-22788380D01*
X74283333Y-23788380D02*
X73711904Y-23788380D01*
X73997619Y-23788380D02*
X73997619Y-22788380D01*
X73902380Y-22931238D01*
X73807142Y-23026476D01*
X73711904Y-23074095D01*
G04 #@! TO.C,C1*
X46589333Y-57725142D02*
X46541714Y-57772761D01*
X46398857Y-57820380D01*
X46303619Y-57820380D01*
X46160761Y-57772761D01*
X46065523Y-57677523D01*
X46017904Y-57582285D01*
X45970285Y-57391809D01*
X45970285Y-57248952D01*
X46017904Y-57058476D01*
X46065523Y-56963238D01*
X46160761Y-56868000D01*
X46303619Y-56820380D01*
X46398857Y-56820380D01*
X46541714Y-56868000D01*
X46589333Y-56915619D01*
X47541714Y-57820380D02*
X46970285Y-57820380D01*
X47256000Y-57820380D02*
X47256000Y-56820380D01*
X47160761Y-56963238D01*
X47065523Y-57058476D01*
X46970285Y-57106095D01*
G04 #@! TO.C,C2*
X50343142Y-61618666D02*
X50390761Y-61666285D01*
X50438380Y-61809142D01*
X50438380Y-61904380D01*
X50390761Y-62047238D01*
X50295523Y-62142476D01*
X50200285Y-62190095D01*
X50009809Y-62237714D01*
X49866952Y-62237714D01*
X49676476Y-62190095D01*
X49581238Y-62142476D01*
X49486000Y-62047238D01*
X49438380Y-61904380D01*
X49438380Y-61809142D01*
X49486000Y-61666285D01*
X49533619Y-61618666D01*
X49533619Y-61237714D02*
X49486000Y-61190095D01*
X49438380Y-61094857D01*
X49438380Y-60856761D01*
X49486000Y-60761523D01*
X49533619Y-60713904D01*
X49628857Y-60666285D01*
X49724095Y-60666285D01*
X49866952Y-60713904D01*
X50438380Y-61285333D01*
X50438380Y-60666285D01*
G04 #@! TO.C,J1*
X89582666Y-37850380D02*
X89582666Y-38564666D01*
X89535047Y-38707523D01*
X89439809Y-38802761D01*
X89296952Y-38850380D01*
X89201714Y-38850380D01*
X90582666Y-38850380D02*
X90011238Y-38850380D01*
X90296952Y-38850380D02*
X90296952Y-37850380D01*
X90201714Y-37993238D01*
X90106476Y-38088476D01*
X90011238Y-38136095D01*
G04 #@! TO.C,J2*
X81200666Y-30650380D02*
X81200666Y-31364666D01*
X81153047Y-31507523D01*
X81057809Y-31602761D01*
X80914952Y-31650380D01*
X80819714Y-31650380D01*
X81629238Y-30745619D02*
X81676857Y-30698000D01*
X81772095Y-30650380D01*
X82010190Y-30650380D01*
X82105428Y-30698000D01*
X82153047Y-30745619D01*
X82200666Y-30840857D01*
X82200666Y-30936095D01*
X82153047Y-31078952D01*
X81581619Y-31650380D01*
X82200666Y-31650380D01*
G04 #@! TO.C,J3*
X45132666Y-28618380D02*
X45132666Y-29332666D01*
X45085047Y-29475523D01*
X44989809Y-29570761D01*
X44846952Y-29618380D01*
X44751714Y-29618380D01*
X45513619Y-28618380D02*
X46132666Y-28618380D01*
X45799333Y-28999333D01*
X45942190Y-28999333D01*
X46037428Y-29046952D01*
X46085047Y-29094571D01*
X46132666Y-29189809D01*
X46132666Y-29427904D01*
X46085047Y-29523142D01*
X46037428Y-29570761D01*
X45942190Y-29618380D01*
X45656476Y-29618380D01*
X45561238Y-29570761D01*
X45513619Y-29523142D01*
G04 #@! TO.C,J4*
X50042380Y-49609333D02*
X50756666Y-49609333D01*
X50899523Y-49656952D01*
X50994761Y-49752190D01*
X51042380Y-49895047D01*
X51042380Y-49990285D01*
X50375714Y-48704571D02*
X51042380Y-48704571D01*
X49994761Y-48942666D02*
X50709047Y-49180761D01*
X50709047Y-48561714D01*
G04 #@! TO.C,Q1*
X93769619Y-41243238D02*
X93722000Y-41338476D01*
X93626761Y-41433714D01*
X93483904Y-41576571D01*
X93436285Y-41671809D01*
X93436285Y-41767047D01*
X93674380Y-41719428D02*
X93626761Y-41814666D01*
X93531523Y-41909904D01*
X93341047Y-41957523D01*
X93007714Y-41957523D01*
X92817238Y-41909904D01*
X92722000Y-41814666D01*
X92674380Y-41719428D01*
X92674380Y-41528952D01*
X92722000Y-41433714D01*
X92817238Y-41338476D01*
X93007714Y-41290857D01*
X93341047Y-41290857D01*
X93531523Y-41338476D01*
X93626761Y-41433714D01*
X93674380Y-41528952D01*
X93674380Y-41719428D01*
X93674380Y-40338476D02*
X93674380Y-40909904D01*
X93674380Y-40624190D02*
X92674380Y-40624190D01*
X92817238Y-40719428D01*
X92912476Y-40814666D01*
X92960095Y-40909904D01*
G04 #@! TO.C,R1*
X57432380Y-40298666D02*
X56956190Y-40632000D01*
X57432380Y-40870095D02*
X56432380Y-40870095D01*
X56432380Y-40489142D01*
X56480000Y-40393904D01*
X56527619Y-40346285D01*
X56622857Y-40298666D01*
X56765714Y-40298666D01*
X56860952Y-40346285D01*
X56908571Y-40393904D01*
X56956190Y-40489142D01*
X56956190Y-40870095D01*
X57432380Y-39346285D02*
X57432380Y-39917714D01*
X57432380Y-39632000D02*
X56432380Y-39632000D01*
X56575238Y-39727238D01*
X56670476Y-39822476D01*
X56718095Y-39917714D01*
G04 #@! TO.C,R2*
X87490380Y-51474666D02*
X87014190Y-51808000D01*
X87490380Y-52046095D02*
X86490380Y-52046095D01*
X86490380Y-51665142D01*
X86538000Y-51569904D01*
X86585619Y-51522285D01*
X86680857Y-51474666D01*
X86823714Y-51474666D01*
X86918952Y-51522285D01*
X86966571Y-51569904D01*
X87014190Y-51665142D01*
X87014190Y-52046095D01*
X86585619Y-51093714D02*
X86538000Y-51046095D01*
X86490380Y-50950857D01*
X86490380Y-50712761D01*
X86538000Y-50617523D01*
X86585619Y-50569904D01*
X86680857Y-50522285D01*
X86776095Y-50522285D01*
X86918952Y-50569904D01*
X87490380Y-51141333D01*
X87490380Y-50522285D01*
G04 #@! TO.C,R3*
X87404380Y-51474666D02*
X86928190Y-51808000D01*
X87404380Y-52046095D02*
X86404380Y-52046095D01*
X86404380Y-51665142D01*
X86452000Y-51569904D01*
X86499619Y-51522285D01*
X86594857Y-51474666D01*
X86737714Y-51474666D01*
X86832952Y-51522285D01*
X86880571Y-51569904D01*
X86928190Y-51665142D01*
X86928190Y-52046095D01*
X86404380Y-51141333D02*
X86404380Y-50522285D01*
X86785333Y-50855619D01*
X86785333Y-50712761D01*
X86832952Y-50617523D01*
X86880571Y-50569904D01*
X86975809Y-50522285D01*
X87213904Y-50522285D01*
X87309142Y-50569904D01*
X87356761Y-50617523D01*
X87404380Y-50712761D01*
X87404380Y-50998476D01*
X87356761Y-51093714D01*
X87309142Y-51141333D01*
G04 #@! TO.C,R4*
X80378380Y-21502666D02*
X79902190Y-21836000D01*
X80378380Y-22074095D02*
X79378380Y-22074095D01*
X79378380Y-21693142D01*
X79426000Y-21597904D01*
X79473619Y-21550285D01*
X79568857Y-21502666D01*
X79711714Y-21502666D01*
X79806952Y-21550285D01*
X79854571Y-21597904D01*
X79902190Y-21693142D01*
X79902190Y-22074095D01*
X79711714Y-20645523D02*
X80378380Y-20645523D01*
X79330761Y-20883619D02*
X80045047Y-21121714D01*
X80045047Y-20502666D01*
G04 #@! TO.C,R5*
X52438380Y-27090666D02*
X51962190Y-27424000D01*
X52438380Y-27662095D02*
X51438380Y-27662095D01*
X51438380Y-27281142D01*
X51486000Y-27185904D01*
X51533619Y-27138285D01*
X51628857Y-27090666D01*
X51771714Y-27090666D01*
X51866952Y-27138285D01*
X51914571Y-27185904D01*
X51962190Y-27281142D01*
X51962190Y-27662095D01*
X51438380Y-26185904D02*
X51438380Y-26662095D01*
X51914571Y-26709714D01*
X51866952Y-26662095D01*
X51819333Y-26566857D01*
X51819333Y-26328761D01*
X51866952Y-26233523D01*
X51914571Y-26185904D01*
X52009809Y-26138285D01*
X52247904Y-26138285D01*
X52343142Y-26185904D01*
X52390761Y-26233523D01*
X52438380Y-26328761D01*
X52438380Y-26566857D01*
X52390761Y-26662095D01*
X52343142Y-26709714D01*
G04 #@! TO.C,R6*
X78346380Y-51474666D02*
X77870190Y-51808000D01*
X78346380Y-52046095D02*
X77346380Y-52046095D01*
X77346380Y-51665142D01*
X77394000Y-51569904D01*
X77441619Y-51522285D01*
X77536857Y-51474666D01*
X77679714Y-51474666D01*
X77774952Y-51522285D01*
X77822571Y-51569904D01*
X77870190Y-51665142D01*
X77870190Y-52046095D01*
X77346380Y-50617523D02*
X77346380Y-50808000D01*
X77394000Y-50903238D01*
X77441619Y-50950857D01*
X77584476Y-51046095D01*
X77774952Y-51093714D01*
X78155904Y-51093714D01*
X78251142Y-51046095D01*
X78298761Y-50998476D01*
X78346380Y-50903238D01*
X78346380Y-50712761D01*
X78298761Y-50617523D01*
X78251142Y-50569904D01*
X78155904Y-50522285D01*
X77917809Y-50522285D01*
X77822571Y-50569904D01*
X77774952Y-50617523D01*
X77727333Y-50712761D01*
X77727333Y-50903238D01*
X77774952Y-50998476D01*
X77822571Y-51046095D01*
X77917809Y-51093714D01*
G04 #@! TO.C,SW2*
X59828666Y-15422761D02*
X59971523Y-15470380D01*
X60209619Y-15470380D01*
X60304857Y-15422761D01*
X60352476Y-15375142D01*
X60400095Y-15279904D01*
X60400095Y-15184666D01*
X60352476Y-15089428D01*
X60304857Y-15041809D01*
X60209619Y-14994190D01*
X60019142Y-14946571D01*
X59923904Y-14898952D01*
X59876285Y-14851333D01*
X59828666Y-14756095D01*
X59828666Y-14660857D01*
X59876285Y-14565619D01*
X59923904Y-14518000D01*
X60019142Y-14470380D01*
X60257238Y-14470380D01*
X60400095Y-14518000D01*
X60733428Y-14470380D02*
X60971523Y-15470380D01*
X61162000Y-14756095D01*
X61352476Y-15470380D01*
X61590571Y-14470380D01*
X61923904Y-14565619D02*
X61971523Y-14518000D01*
X62066761Y-14470380D01*
X62304857Y-14470380D01*
X62400095Y-14518000D01*
X62447714Y-14565619D01*
X62495333Y-14660857D01*
X62495333Y-14756095D01*
X62447714Y-14898952D01*
X61876285Y-15470380D01*
X62495333Y-15470380D01*
G04 #@! TO.C,U2*
D13*
X61895718Y-24229369D02*
X61895718Y-25039517D01*
X61943373Y-25134829D01*
X61991029Y-25182485D01*
X62086341Y-25230141D01*
X62276964Y-25230141D01*
X62372276Y-25182485D01*
X62419931Y-25134829D01*
X62467587Y-25039517D01*
X62467587Y-24229369D01*
X62896490Y-24324680D02*
X62944145Y-24277025D01*
X63039457Y-24229369D01*
X63277736Y-24229369D01*
X63373048Y-24277025D01*
X63420703Y-24324680D01*
X63468359Y-24419992D01*
X63468359Y-24515304D01*
X63420703Y-24658271D01*
X62848834Y-25230141D01*
X63468359Y-25230141D01*
G04 #@! TO.C,R7*
D14*
X47612380Y-40552666D02*
X47136190Y-40886000D01*
X47612380Y-41124095D02*
X46612380Y-41124095D01*
X46612380Y-40743142D01*
X46660000Y-40647904D01*
X46707619Y-40600285D01*
X46802857Y-40552666D01*
X46945714Y-40552666D01*
X47040952Y-40600285D01*
X47088571Y-40647904D01*
X47136190Y-40743142D01*
X47136190Y-41124095D01*
X46612380Y-40219333D02*
X46612380Y-39552666D01*
X47612380Y-39981238D01*
G04 #@! TO.C,R8*
X47612380Y-27598666D02*
X47136190Y-27932000D01*
X47612380Y-28170095D02*
X46612380Y-28170095D01*
X46612380Y-27789142D01*
X46660000Y-27693904D01*
X46707619Y-27646285D01*
X46802857Y-27598666D01*
X46945714Y-27598666D01*
X47040952Y-27646285D01*
X47088571Y-27693904D01*
X47136190Y-27789142D01*
X47136190Y-28170095D01*
X47040952Y-27027238D02*
X46993333Y-27122476D01*
X46945714Y-27170095D01*
X46850476Y-27217714D01*
X46802857Y-27217714D01*
X46707619Y-27170095D01*
X46660000Y-27122476D01*
X46612380Y-27027238D01*
X46612380Y-26836761D01*
X46660000Y-26741523D01*
X46707619Y-26693904D01*
X46802857Y-26646285D01*
X46850476Y-26646285D01*
X46945714Y-26693904D01*
X46993333Y-26741523D01*
X47040952Y-26836761D01*
X47040952Y-27027238D01*
X47088571Y-27122476D01*
X47136190Y-27170095D01*
X47231428Y-27217714D01*
X47421904Y-27217714D01*
X47517142Y-27170095D01*
X47564761Y-27122476D01*
X47612380Y-27027238D01*
X47612380Y-26836761D01*
X47564761Y-26741523D01*
X47517142Y-26693904D01*
X47421904Y-26646285D01*
X47231428Y-26646285D01*
X47136190Y-26693904D01*
X47088571Y-26741523D01*
X47040952Y-26836761D01*
G04 #@! TO.C,J5*
X89582666Y-27944380D02*
X89582666Y-28658666D01*
X89535047Y-28801523D01*
X89439809Y-28896761D01*
X89296952Y-28944380D01*
X89201714Y-28944380D01*
X90535047Y-27944380D02*
X90058857Y-27944380D01*
X90011238Y-28420571D01*
X90058857Y-28372952D01*
X90154095Y-28325333D01*
X90392190Y-28325333D01*
X90487428Y-28372952D01*
X90535047Y-28420571D01*
X90582666Y-28515809D01*
X90582666Y-28753904D01*
X90535047Y-28849142D01*
X90487428Y-28896761D01*
X90392190Y-28944380D01*
X90154095Y-28944380D01*
X90058857Y-28896761D01*
X90011238Y-28849142D01*
G04 #@! TD*
M02*
