G04 #@! TF.GenerationSoftware,KiCad,Pcbnew,(5.0.1-3-g963ef8bb5)*
G04 #@! TF.CreationDate,2020-03-04T16:59:10-05:00*
G04 #@! TF.ProjectId,NeuMaE,4E65754D61452E6B696361645F706362,rev?*
G04 #@! TF.SameCoordinates,Original*
G04 #@! TF.FileFunction,Copper,L2,Bot,Signal*
G04 #@! TF.FilePolarity,Positive*
%FSLAX46Y46*%
G04 Gerber Fmt 4.6, Leading zero omitted, Abs format (unit mm)*
G04 Created by KiCad (PCBNEW (5.0.1-3-g963ef8bb5)) date Wednesday, 04 March 2020 at 16:59:10*
%MOMM*%
%LPD*%
G01*
G04 APERTURE LIST*
G04 #@! TA.AperFunction,ComponentPad*
%ADD10O,4.064000X2.032000*%
G04 #@! TD*
G04 #@! TA.AperFunction,ComponentPad*
%ADD11C,7.620000*%
G04 #@! TD*
G04 #@! TA.AperFunction,ComponentPad*
%ADD12C,2.000000*%
G04 #@! TD*
G04 #@! TA.AperFunction,ComponentPad*
%ADD13C,1.400000*%
G04 #@! TD*
G04 #@! TA.AperFunction,ComponentPad*
%ADD14R,1.200000X1.200000*%
G04 #@! TD*
G04 #@! TA.AperFunction,ComponentPad*
%ADD15C,1.200000*%
G04 #@! TD*
G04 #@! TA.AperFunction,ComponentPad*
%ADD16R,1.700000X1.700000*%
G04 #@! TD*
G04 #@! TA.AperFunction,ComponentPad*
%ADD17O,1.700000X1.700000*%
G04 #@! TD*
G04 #@! TA.AperFunction,ComponentPad*
%ADD18O,1.500000X1.050000*%
G04 #@! TD*
G04 #@! TA.AperFunction,ComponentPad*
%ADD19R,1.500000X1.050000*%
G04 #@! TD*
G04 #@! TA.AperFunction,ComponentPad*
%ADD20C,1.600000*%
G04 #@! TD*
G04 #@! TA.AperFunction,ComponentPad*
%ADD21O,1.600000X1.600000*%
G04 #@! TD*
G04 #@! TA.AperFunction,ViaPad*
%ADD22C,1.000000*%
G04 #@! TD*
G04 #@! TA.AperFunction,Conductor*
%ADD23C,1.000000*%
G04 #@! TD*
G04 #@! TA.AperFunction,Conductor*
%ADD24C,0.750000*%
G04 #@! TD*
G04 #@! TA.AperFunction,Conductor*
%ADD25C,0.254000*%
G04 #@! TD*
G04 APERTURE END LIST*
D10*
G04 #@! TO.P,U1,1*
G04 #@! TO.N,VCC*
X55118000Y-55118000D03*
G04 #@! TO.P,U1,3*
G04 #@! TO.N,+3V3*
X55118000Y-57658000D03*
G04 #@! TO.P,U1,2*
G04 #@! TO.N,GND*
X55118000Y-60198000D03*
D11*
G04 #@! TO.P,U1,HEAT*
G04 #@! TO.N,Net-(U1-PadHEAT)*
X72898000Y-57658000D03*
G04 #@! TD*
D12*
G04 #@! TO.P,SW1,1*
G04 #@! TO.N,GND*
X69700000Y-22606000D03*
G04 #@! TO.P,SW1,2*
G04 #@! TO.N,Net-(R4-Pad2)*
X69700000Y-18106000D03*
G04 #@! TO.P,SW1,1*
G04 #@! TO.N,GND*
X76200000Y-22606000D03*
G04 #@! TO.P,SW1,2*
G04 #@! TO.N,Net-(R4-Pad2)*
X76200000Y-18106000D03*
G04 #@! TD*
D13*
G04 #@! TO.P,C1,1*
G04 #@! TO.N,VCC*
X54864000Y-48006000D03*
G04 #@! TO.P,C1,2*
G04 #@! TO.N,GND*
X54864000Y-50506000D03*
G04 #@! TD*
D14*
G04 #@! TO.P,C2,1*
G04 #@! TO.N,+3V3*
X50292000Y-58928000D03*
D15*
G04 #@! TO.P,C2,2*
G04 #@! TO.N,GND*
X50292000Y-60928000D03*
G04 #@! TD*
D16*
G04 #@! TO.P,J1,1*
G04 #@! TO.N,Net-(J1-Pad1)*
X85344000Y-37338000D03*
D17*
G04 #@! TO.P,J1,2*
G04 #@! TO.N,Net-(J1-Pad2)*
X85344000Y-34798000D03*
G04 #@! TO.P,J1,3*
G04 #@! TO.N,+3V3*
X85344000Y-32258000D03*
G04 #@! TD*
D16*
G04 #@! TO.P,J2,1*
G04 #@! TO.N,Net-(J2-Pad1)*
X79248000Y-33528000D03*
D17*
G04 #@! TO.P,J2,2*
G04 #@! TO.N,/RXD*
X79248000Y-36068000D03*
G04 #@! TD*
G04 #@! TO.P,J3,3*
G04 #@! TO.N,Net-(J3-Pad3)*
X50038000Y-42926000D03*
G04 #@! TO.P,J3,2*
G04 #@! TO.N,Net-(J3-Pad2)*
X50038000Y-40386000D03*
D16*
G04 #@! TO.P,J3,1*
G04 #@! TO.N,GND*
X50038000Y-37846000D03*
G04 #@! TD*
D17*
G04 #@! TO.P,J4,2*
G04 #@! TO.N,GND*
X51308000Y-51308000D03*
D16*
G04 #@! TO.P,J4,1*
G04 #@! TO.N,VCC*
X51308000Y-48768000D03*
G04 #@! TD*
D18*
G04 #@! TO.P,Q1,2*
G04 #@! TO.N,Net-(Q1-Pad2)*
X84328000Y-42164000D03*
G04 #@! TO.P,Q1,3*
G04 #@! TO.N,GND*
X84328000Y-43434000D03*
D19*
G04 #@! TO.P,Q1,1*
G04 #@! TO.N,Net-(J1-Pad1)*
X84328000Y-40894000D03*
G04 #@! TD*
D20*
G04 #@! TO.P,R1,1*
G04 #@! TO.N,Net-(R1-Pad1)*
X57404000Y-35306000D03*
D21*
G04 #@! TO.P,R1,2*
G04 #@! TO.N,+3V3*
X57404000Y-45466000D03*
G04 #@! TD*
G04 #@! TO.P,R2,2*
G04 #@! TO.N,Net-(Q1-Pad2)*
X85852000Y-46228000D03*
D20*
G04 #@! TO.P,R2,1*
G04 #@! TO.N,/MOTOR*
X85852000Y-56388000D03*
G04 #@! TD*
G04 #@! TO.P,R3,1*
G04 #@! TO.N,Net-(Q1-Pad2)*
X82550000Y-46228000D03*
D21*
G04 #@! TO.P,R3,2*
G04 #@! TO.N,GND*
X82550000Y-56388000D03*
G04 #@! TD*
G04 #@! TO.P,R4,2*
G04 #@! TO.N,Net-(R4-Pad2)*
X79756000Y-18034000D03*
D20*
G04 #@! TO.P,R4,1*
G04 #@! TO.N,+3V3*
X79756000Y-28194000D03*
G04 #@! TD*
G04 #@! TO.P,R5,1*
G04 #@! TO.N,+3V3*
X56642000Y-32766000D03*
D21*
G04 #@! TO.P,R5,2*
G04 #@! TO.N,Net-(R5-Pad2)*
X56642000Y-22606000D03*
G04 #@! TD*
G04 #@! TO.P,R6,2*
G04 #@! TO.N,Net-(R6-Pad2)*
X79248000Y-46228000D03*
D20*
G04 #@! TO.P,R6,1*
G04 #@! TO.N,GND*
X79248000Y-56388000D03*
G04 #@! TD*
D12*
G04 #@! TO.P,SW2,2*
G04 #@! TO.N,Net-(R5-Pad2)*
X59944000Y-22534000D03*
G04 #@! TO.P,SW2,1*
G04 #@! TO.N,GND*
X59944000Y-18034000D03*
G04 #@! TO.P,SW2,2*
G04 #@! TO.N,Net-(R5-Pad2)*
X66444000Y-22534000D03*
G04 #@! TO.P,SW2,1*
G04 #@! TO.N,GND*
X66444000Y-18034000D03*
G04 #@! TD*
D20*
G04 #@! TO.P,R7,1*
G04 #@! TO.N,VCC*
X53848000Y-45466000D03*
D21*
G04 #@! TO.P,R7,2*
G04 #@! TO.N,/ADC*
X53848000Y-35306000D03*
G04 #@! TD*
G04 #@! TO.P,R8,2*
G04 #@! TO.N,GND*
X53340000Y-22606000D03*
D20*
G04 #@! TO.P,R8,1*
G04 #@! TO.N,/ADC*
X53340000Y-32766000D03*
G04 #@! TD*
D16*
G04 #@! TO.P,J5,1*
G04 #@! TO.N,Net-(J5-Pad1)*
X85344000Y-28448000D03*
D17*
G04 #@! TO.P,J5,2*
G04 #@! TO.N,Net-(J5-Pad2)*
X85344000Y-25908000D03*
G04 #@! TO.P,J5,3*
G04 #@! TO.N,Net-(J5-Pad3)*
X85344000Y-23368000D03*
G04 #@! TO.P,J5,4*
G04 #@! TO.N,/PIN4*
X85344000Y-20828000D03*
G04 #@! TO.P,J5,5*
G04 #@! TO.N,/PIN5*
X85344000Y-18288000D03*
G04 #@! TD*
D16*
G04 #@! TO.P,J6,1*
G04 #@! TO.N,+3V3*
X55626000Y-18542000D03*
D17*
G04 #@! TO.P,J6,2*
G04 #@! TO.N,GND*
X53086000Y-18542000D03*
G04 #@! TD*
D22*
G04 #@! TO.N,/MOTOR*
X69850000Y-45212000D03*
G04 #@! TO.N,Net-(R4-Pad2)*
X68521851Y-40581851D03*
X67310000Y-34290000D03*
G04 #@! TO.N,/PIN5*
X69596000Y-37846000D03*
X69088000Y-34798000D03*
G04 #@! TD*
D23*
G04 #@! TO.N,GND*
X69700000Y-22606000D02*
X76200000Y-22606000D01*
X69700000Y-21290000D02*
X66444000Y-18034000D01*
X69700000Y-22606000D02*
X69700000Y-21290000D01*
G04 #@! TO.N,+3V3*
X55041999Y-31165999D02*
X56642000Y-32766000D01*
X55626000Y-20392000D02*
X55626000Y-18542000D01*
X55041999Y-20976001D02*
X55626000Y-20392000D01*
X55041999Y-23374001D02*
X55041999Y-20976001D01*
X56267988Y-24599990D02*
X55041999Y-23374001D01*
X77293378Y-24599990D02*
X56267988Y-24599990D01*
X79756000Y-27062612D02*
X77293378Y-24599990D01*
X79756000Y-28194000D02*
X79756000Y-27062612D01*
X56267988Y-24682011D02*
X55041999Y-25908000D01*
X56267988Y-24599990D02*
X56267988Y-24682011D01*
X55041999Y-25908000D02*
X55041999Y-31165999D01*
X56267988Y-24599990D02*
X55080009Y-24599990D01*
X55041999Y-24638000D02*
X55041999Y-25908000D01*
X55080009Y-24599990D02*
X55041999Y-24638000D01*
X55041999Y-20976001D02*
X55041999Y-24638000D01*
X83820000Y-32258000D02*
X79756000Y-28194000D01*
X85344000Y-32258000D02*
X83820000Y-32258000D01*
X55803999Y-42734629D02*
X55803999Y-33604001D01*
X55842001Y-33565999D02*
X56642000Y-32766000D01*
X55803999Y-33604001D02*
X55842001Y-33565999D01*
X57404000Y-44334630D02*
X55803999Y-42734629D01*
X57404000Y-45466000D02*
X57404000Y-44334630D01*
X55803999Y-31927999D02*
X55041999Y-31165999D01*
X55803999Y-33604001D02*
X55803999Y-31927999D01*
D24*
G04 #@! TO.N,/MOTOR*
X74676000Y-45212000D02*
X69850000Y-45212000D01*
X85852000Y-56388000D02*
X74676000Y-45212000D01*
G04 #@! TO.N,Net-(R4-Pad2)*
X67310000Y-39370000D02*
X67310000Y-34290000D01*
X68521851Y-40581851D02*
X67310000Y-39370000D01*
G04 #@! TO.N,/PIN5*
X69596000Y-35306000D02*
X69088000Y-34798000D01*
X69596000Y-37846000D02*
X69596000Y-35306000D01*
G04 #@! TD*
D25*
G04 #@! TO.N,GND*
G36*
X87428000Y-64060000D02*
X48462000Y-64060000D01*
X48462000Y-61790735D01*
X49608870Y-61790735D01*
X49658383Y-62016164D01*
X50123036Y-62175807D01*
X50613413Y-62145482D01*
X50925617Y-62016164D01*
X50975130Y-61790735D01*
X50292000Y-61107605D01*
X49608870Y-61790735D01*
X48462000Y-61790735D01*
X48462000Y-60759036D01*
X49044193Y-60759036D01*
X49074518Y-61249413D01*
X49203836Y-61561617D01*
X49429265Y-61611130D01*
X50112395Y-60928000D01*
X50098253Y-60913858D01*
X50277858Y-60734253D01*
X50292000Y-60748395D01*
X50306143Y-60734253D01*
X50485748Y-60913858D01*
X50471605Y-60928000D01*
X51154735Y-61611130D01*
X51380164Y-61561617D01*
X51539807Y-61096964D01*
X51509482Y-60606587D01*
X51498861Y-60580944D01*
X52496025Y-60580944D01*
X52528074Y-60712477D01*
X52844764Y-61275630D01*
X53352857Y-61674724D01*
X53975000Y-61849000D01*
X54991000Y-61849000D01*
X54991000Y-60325000D01*
X55245000Y-60325000D01*
X55245000Y-61849000D01*
X56261000Y-61849000D01*
X56883143Y-61674724D01*
X57391236Y-61275630D01*
X57707926Y-60712477D01*
X57739975Y-60580944D01*
X57620836Y-60325000D01*
X55245000Y-60325000D01*
X54991000Y-60325000D01*
X52615164Y-60325000D01*
X52496025Y-60580944D01*
X51498861Y-60580944D01*
X51380164Y-60294383D01*
X51154737Y-60244871D01*
X51270430Y-60129178D01*
X51216282Y-60075030D01*
X51349809Y-59985809D01*
X51490157Y-59775765D01*
X51539440Y-59528000D01*
X51539440Y-58328000D01*
X51490157Y-58080235D01*
X51349809Y-57870191D01*
X51139765Y-57729843D01*
X50892000Y-57680560D01*
X49692000Y-57680560D01*
X49444235Y-57729843D01*
X49234191Y-57870191D01*
X49093843Y-58080235D01*
X49044560Y-58328000D01*
X49044560Y-59528000D01*
X49093843Y-59775765D01*
X49234191Y-59985809D01*
X49367718Y-60075030D01*
X49313570Y-60129178D01*
X49429263Y-60244871D01*
X49203836Y-60294383D01*
X49044193Y-60759036D01*
X48462000Y-60759036D01*
X48462000Y-55118000D01*
X52418655Y-55118000D01*
X52546792Y-55762188D01*
X52911695Y-56308305D01*
X53030967Y-56388000D01*
X52911695Y-56467695D01*
X52546792Y-57013812D01*
X52418655Y-57658000D01*
X52546792Y-58302188D01*
X52911695Y-58848305D01*
X53062689Y-58949196D01*
X52844764Y-59120370D01*
X52528074Y-59683523D01*
X52496025Y-59815056D01*
X52615164Y-60071000D01*
X54991000Y-60071000D01*
X54991000Y-60051000D01*
X55245000Y-60051000D01*
X55245000Y-60071000D01*
X57620836Y-60071000D01*
X57739975Y-59815056D01*
X57707926Y-59683523D01*
X57391236Y-59120370D01*
X57173311Y-58949196D01*
X57324305Y-58848305D01*
X57689208Y-58302188D01*
X57817345Y-57658000D01*
X57689208Y-57013812D01*
X57528861Y-56773834D01*
X68453000Y-56773834D01*
X68453000Y-58542166D01*
X69129711Y-60175890D01*
X70380110Y-61426289D01*
X72013834Y-62103000D01*
X73782166Y-62103000D01*
X75415890Y-61426289D01*
X76666289Y-60175890D01*
X77343000Y-58542166D01*
X77343000Y-57395745D01*
X78419861Y-57395745D01*
X78493995Y-57641864D01*
X79031223Y-57834965D01*
X79601454Y-57807778D01*
X80002005Y-57641864D01*
X80076139Y-57395745D01*
X79248000Y-56567605D01*
X78419861Y-57395745D01*
X77343000Y-57395745D01*
X77343000Y-56773834D01*
X77093391Y-56171223D01*
X77801035Y-56171223D01*
X77828222Y-56741454D01*
X77994136Y-57142005D01*
X78240255Y-57216139D01*
X79068395Y-56388000D01*
X79427605Y-56388000D01*
X80255745Y-57216139D01*
X80501864Y-57142005D01*
X80647424Y-56737041D01*
X81158086Y-56737041D01*
X81397611Y-57243134D01*
X81812577Y-57619041D01*
X82200961Y-57779904D01*
X82423000Y-57657915D01*
X82423000Y-56515000D01*
X82677000Y-56515000D01*
X82677000Y-57657915D01*
X82899039Y-57779904D01*
X83287423Y-57619041D01*
X83702389Y-57243134D01*
X83941914Y-56737041D01*
X83820629Y-56515000D01*
X82677000Y-56515000D01*
X82423000Y-56515000D01*
X81279371Y-56515000D01*
X81158086Y-56737041D01*
X80647424Y-56737041D01*
X80694965Y-56604777D01*
X80667989Y-56038959D01*
X81158086Y-56038959D01*
X81279371Y-56261000D01*
X82423000Y-56261000D01*
X82423000Y-55118085D01*
X82200961Y-54996096D01*
X81812577Y-55156959D01*
X81397611Y-55532866D01*
X81158086Y-56038959D01*
X80667989Y-56038959D01*
X80667778Y-56034546D01*
X80501864Y-55633995D01*
X80255745Y-55559861D01*
X79427605Y-56388000D01*
X79068395Y-56388000D01*
X78240255Y-55559861D01*
X77994136Y-55633995D01*
X77801035Y-56171223D01*
X77093391Y-56171223D01*
X76765761Y-55380255D01*
X78419861Y-55380255D01*
X79248000Y-56208395D01*
X80076139Y-55380255D01*
X80002005Y-55134136D01*
X79464777Y-54941035D01*
X78894546Y-54968222D01*
X78493995Y-55134136D01*
X78419861Y-55380255D01*
X76765761Y-55380255D01*
X76666289Y-55140110D01*
X75415890Y-53889711D01*
X73782166Y-53213000D01*
X72013834Y-53213000D01*
X70380110Y-53889711D01*
X69129711Y-55140110D01*
X68453000Y-56773834D01*
X57528861Y-56773834D01*
X57324305Y-56467695D01*
X57205033Y-56388000D01*
X57324305Y-56308305D01*
X57689208Y-55762188D01*
X57817345Y-55118000D01*
X57689208Y-54473812D01*
X57324305Y-53927695D01*
X56778188Y-53562792D01*
X56296609Y-53467000D01*
X53939391Y-53467000D01*
X53457812Y-53562792D01*
X52911695Y-53927695D01*
X52546792Y-54473812D01*
X52418655Y-55118000D01*
X48462000Y-55118000D01*
X48462000Y-51664890D01*
X49866524Y-51664890D01*
X50036355Y-52074924D01*
X50426642Y-52503183D01*
X50951108Y-52749486D01*
X51181000Y-52628819D01*
X51181000Y-51435000D01*
X51435000Y-51435000D01*
X51435000Y-52628819D01*
X51664892Y-52749486D01*
X52189358Y-52503183D01*
X52579645Y-52074924D01*
X52749476Y-51664890D01*
X52631467Y-51441275D01*
X54108331Y-51441275D01*
X54170169Y-51677042D01*
X54671122Y-51853419D01*
X55201440Y-51824664D01*
X55557831Y-51677042D01*
X55619669Y-51441275D01*
X54864000Y-50685605D01*
X54108331Y-51441275D01*
X52631467Y-51441275D01*
X52628155Y-51435000D01*
X51435000Y-51435000D01*
X51181000Y-51435000D01*
X49987845Y-51435000D01*
X49866524Y-51664890D01*
X48462000Y-51664890D01*
X48462000Y-47918000D01*
X49810560Y-47918000D01*
X49810560Y-49618000D01*
X49859843Y-49865765D01*
X50000191Y-50075809D01*
X50210235Y-50216157D01*
X50313708Y-50236739D01*
X50036355Y-50541076D01*
X49866524Y-50951110D01*
X49987845Y-51181000D01*
X51181000Y-51181000D01*
X51181000Y-51161000D01*
X51435000Y-51161000D01*
X51435000Y-51181000D01*
X52628155Y-51181000D01*
X52749476Y-50951110D01*
X52579645Y-50541076D01*
X52371903Y-50313122D01*
X53516581Y-50313122D01*
X53545336Y-50843440D01*
X53692958Y-51199831D01*
X53928725Y-51261669D01*
X54684395Y-50506000D01*
X55043605Y-50506000D01*
X55799275Y-51261669D01*
X56035042Y-51199831D01*
X56211419Y-50698878D01*
X56182664Y-50168560D01*
X56035042Y-49812169D01*
X55799275Y-49750331D01*
X55043605Y-50506000D01*
X54684395Y-50506000D01*
X53928725Y-49750331D01*
X53692958Y-49812169D01*
X53516581Y-50313122D01*
X52371903Y-50313122D01*
X52302292Y-50236739D01*
X52405765Y-50216157D01*
X52615809Y-50075809D01*
X52756157Y-49865765D01*
X52805440Y-49618000D01*
X52805440Y-47918000D01*
X52756157Y-47670235D01*
X52615809Y-47460191D01*
X52405765Y-47319843D01*
X52158000Y-47270560D01*
X50458000Y-47270560D01*
X50210235Y-47319843D01*
X50000191Y-47460191D01*
X49859843Y-47670235D01*
X49810560Y-47918000D01*
X48462000Y-47918000D01*
X48462000Y-45180561D01*
X52413000Y-45180561D01*
X52413000Y-45751439D01*
X52631466Y-46278862D01*
X53035138Y-46682534D01*
X53562561Y-46901000D01*
X54081025Y-46901000D01*
X53732242Y-47249783D01*
X53529000Y-47740452D01*
X53529000Y-48271548D01*
X53732242Y-48762217D01*
X54107783Y-49137758D01*
X54377017Y-49249279D01*
X54170169Y-49334958D01*
X54108331Y-49570725D01*
X54864000Y-50326395D01*
X55619669Y-49570725D01*
X55557831Y-49334958D01*
X55334212Y-49256225D01*
X55620217Y-49137758D01*
X55995758Y-48762217D01*
X56199000Y-48271548D01*
X56199000Y-47740452D01*
X55995758Y-47249783D01*
X55620217Y-46874242D01*
X55129548Y-46671000D01*
X54672396Y-46671000D01*
X55064534Y-46278862D01*
X55283000Y-45751439D01*
X55283000Y-45180561D01*
X55064534Y-44653138D01*
X54660862Y-44249466D01*
X54133439Y-44031000D01*
X53562561Y-44031000D01*
X53035138Y-44249466D01*
X52631466Y-44653138D01*
X52413000Y-45180561D01*
X48462000Y-45180561D01*
X48462000Y-40386000D01*
X48523908Y-40386000D01*
X48639161Y-40965418D01*
X48967375Y-41456625D01*
X49265761Y-41656000D01*
X48967375Y-41855375D01*
X48639161Y-42346582D01*
X48523908Y-42926000D01*
X48639161Y-43505418D01*
X48967375Y-43996625D01*
X49458582Y-44324839D01*
X49891744Y-44411000D01*
X50184256Y-44411000D01*
X50617418Y-44324839D01*
X51108625Y-43996625D01*
X51436839Y-43505418D01*
X51552092Y-42926000D01*
X51436839Y-42346582D01*
X51108625Y-41855375D01*
X50810239Y-41656000D01*
X51108625Y-41456625D01*
X51436839Y-40965418D01*
X51552092Y-40386000D01*
X51436839Y-39806582D01*
X51108625Y-39315375D01*
X51086967Y-39300904D01*
X51247698Y-39234327D01*
X51426327Y-39055699D01*
X51523000Y-38822310D01*
X51523000Y-38131750D01*
X51364250Y-37973000D01*
X50165000Y-37973000D01*
X50165000Y-37993000D01*
X49911000Y-37993000D01*
X49911000Y-37973000D01*
X48711750Y-37973000D01*
X48553000Y-38131750D01*
X48553000Y-38822310D01*
X48649673Y-39055699D01*
X48828302Y-39234327D01*
X48989033Y-39300904D01*
X48967375Y-39315375D01*
X48639161Y-39806582D01*
X48523908Y-40386000D01*
X48462000Y-40386000D01*
X48462000Y-36869690D01*
X48553000Y-36869690D01*
X48553000Y-37560250D01*
X48711750Y-37719000D01*
X49911000Y-37719000D01*
X49911000Y-36519750D01*
X50165000Y-36519750D01*
X50165000Y-37719000D01*
X51364250Y-37719000D01*
X51523000Y-37560250D01*
X51523000Y-36869690D01*
X51426327Y-36636301D01*
X51247698Y-36457673D01*
X51014309Y-36361000D01*
X50323750Y-36361000D01*
X50165000Y-36519750D01*
X49911000Y-36519750D01*
X49752250Y-36361000D01*
X49061691Y-36361000D01*
X48828302Y-36457673D01*
X48649673Y-36636301D01*
X48553000Y-36869690D01*
X48462000Y-36869690D01*
X48462000Y-32480561D01*
X51905000Y-32480561D01*
X51905000Y-33051439D01*
X52123466Y-33578862D01*
X52527138Y-33982534D01*
X52970765Y-34166290D01*
X52813423Y-34271423D01*
X52496260Y-34746091D01*
X52384887Y-35306000D01*
X52496260Y-35865909D01*
X52813423Y-36340577D01*
X53288091Y-36657740D01*
X53706667Y-36741000D01*
X53989333Y-36741000D01*
X54407909Y-36657740D01*
X54669000Y-36483285D01*
X54668999Y-42622846D01*
X54646764Y-42734629D01*
X54668999Y-42846411D01*
X54734853Y-43177483D01*
X54985710Y-43552918D01*
X55080481Y-43616242D01*
X56179661Y-44715422D01*
X56052260Y-44906091D01*
X55940887Y-45466000D01*
X56052260Y-46025909D01*
X56369423Y-46500577D01*
X56844091Y-46817740D01*
X57262667Y-46901000D01*
X57545333Y-46901000D01*
X57963909Y-46817740D01*
X58438577Y-46500577D01*
X58755740Y-46025909D01*
X58867113Y-45466000D01*
X58771682Y-44986234D01*
X68715000Y-44986234D01*
X68715000Y-45437766D01*
X68887793Y-45854926D01*
X69207074Y-46174207D01*
X69624234Y-46347000D01*
X70075766Y-46347000D01*
X70377543Y-46222000D01*
X74257645Y-46222000D01*
X83125563Y-55089919D01*
X82899039Y-54996096D01*
X82677000Y-55118085D01*
X82677000Y-56261000D01*
X83820629Y-56261000D01*
X83941914Y-56038959D01*
X83822686Y-55787042D01*
X84417000Y-56381356D01*
X84417000Y-56673439D01*
X84635466Y-57200862D01*
X85039138Y-57604534D01*
X85566561Y-57823000D01*
X86137439Y-57823000D01*
X86664862Y-57604534D01*
X87068534Y-57200862D01*
X87287000Y-56673439D01*
X87287000Y-56102561D01*
X87068534Y-55575138D01*
X86664862Y-55171466D01*
X86137439Y-54953000D01*
X85845356Y-54953000D01*
X77120356Y-46228000D01*
X77784887Y-46228000D01*
X77896260Y-46787909D01*
X78213423Y-47262577D01*
X78688091Y-47579740D01*
X79106667Y-47663000D01*
X79389333Y-47663000D01*
X79807909Y-47579740D01*
X80282577Y-47262577D01*
X80599740Y-46787909D01*
X80711113Y-46228000D01*
X80654336Y-45942561D01*
X81115000Y-45942561D01*
X81115000Y-46513439D01*
X81333466Y-47040862D01*
X81737138Y-47444534D01*
X82264561Y-47663000D01*
X82835439Y-47663000D01*
X83362862Y-47444534D01*
X83766534Y-47040862D01*
X83985000Y-46513439D01*
X83985000Y-46228000D01*
X84388887Y-46228000D01*
X84500260Y-46787909D01*
X84817423Y-47262577D01*
X85292091Y-47579740D01*
X85710667Y-47663000D01*
X85993333Y-47663000D01*
X86411909Y-47579740D01*
X86886577Y-47262577D01*
X87203740Y-46787909D01*
X87315113Y-46228000D01*
X87203740Y-45668091D01*
X86886577Y-45193423D01*
X86411909Y-44876260D01*
X85993333Y-44793000D01*
X85710667Y-44793000D01*
X85292091Y-44876260D01*
X84817423Y-45193423D01*
X84500260Y-45668091D01*
X84388887Y-46228000D01*
X83985000Y-46228000D01*
X83985000Y-45942561D01*
X83766534Y-45415138D01*
X83362862Y-45011466D01*
X82835439Y-44793000D01*
X82264561Y-44793000D01*
X81737138Y-45011466D01*
X81333466Y-45415138D01*
X81115000Y-45942561D01*
X80654336Y-45942561D01*
X80599740Y-45668091D01*
X80282577Y-45193423D01*
X79807909Y-44876260D01*
X79389333Y-44793000D01*
X79106667Y-44793000D01*
X78688091Y-44876260D01*
X78213423Y-45193423D01*
X77896260Y-45668091D01*
X77784887Y-46228000D01*
X77120356Y-46228000D01*
X75460518Y-44568163D01*
X75404169Y-44483831D01*
X75070082Y-44260601D01*
X74775476Y-44202000D01*
X74775471Y-44202000D01*
X74676000Y-44182214D01*
X74576529Y-44202000D01*
X70377543Y-44202000D01*
X70075766Y-44077000D01*
X69624234Y-44077000D01*
X69207074Y-44249793D01*
X68887793Y-44569074D01*
X68715000Y-44986234D01*
X58771682Y-44986234D01*
X58755740Y-44906091D01*
X58539000Y-44581717D01*
X58539000Y-44446412D01*
X58561235Y-44334629D01*
X58473146Y-43891775D01*
X58414346Y-43803775D01*
X58371607Y-43739810D01*
X82984036Y-43739810D01*
X82992734Y-43801336D01*
X83217821Y-44198255D01*
X83577669Y-44478823D01*
X84017494Y-44600326D01*
X84201000Y-44440593D01*
X84201000Y-43561000D01*
X84455000Y-43561000D01*
X84455000Y-44440593D01*
X84638506Y-44600326D01*
X85078331Y-44478823D01*
X85438179Y-44198255D01*
X85663266Y-43801336D01*
X85671964Y-43739810D01*
X85546163Y-43561000D01*
X84455000Y-43561000D01*
X84201000Y-43561000D01*
X83109837Y-43561000D01*
X82984036Y-43739810D01*
X58371607Y-43739810D01*
X58222289Y-43516341D01*
X58127521Y-43453019D01*
X56938999Y-42264498D01*
X56938999Y-42164000D01*
X82920275Y-42164000D01*
X83010305Y-42616609D01*
X83138854Y-42808996D01*
X82992734Y-43066664D01*
X82984036Y-43128190D01*
X83109837Y-43307000D01*
X83903290Y-43307000D01*
X83988754Y-43324000D01*
X84667246Y-43324000D01*
X84752710Y-43307000D01*
X85546163Y-43307000D01*
X85671964Y-43128190D01*
X85663266Y-43066664D01*
X85517146Y-42808996D01*
X85645695Y-42616609D01*
X85735725Y-42164000D01*
X85645843Y-41712133D01*
X85676157Y-41666765D01*
X85725440Y-41419000D01*
X85725440Y-40369000D01*
X85676157Y-40121235D01*
X85535809Y-39911191D01*
X85325765Y-39770843D01*
X85078000Y-39721560D01*
X83578000Y-39721560D01*
X83330235Y-39770843D01*
X83120191Y-39911191D01*
X82979843Y-40121235D01*
X82930560Y-40369000D01*
X82930560Y-41419000D01*
X82979843Y-41666765D01*
X83010157Y-41712133D01*
X82920275Y-42164000D01*
X56938999Y-42164000D01*
X56938999Y-36666623D01*
X57118561Y-36741000D01*
X57689439Y-36741000D01*
X58216862Y-36522534D01*
X58620534Y-36118862D01*
X58839000Y-35591439D01*
X58839000Y-35020561D01*
X58620534Y-34493138D01*
X58216862Y-34089466D01*
X58155947Y-34064234D01*
X66175000Y-34064234D01*
X66175000Y-34515766D01*
X66300001Y-34817545D01*
X66300000Y-39270529D01*
X66280214Y-39370000D01*
X66300000Y-39469471D01*
X66300000Y-39469475D01*
X66358601Y-39764081D01*
X66581831Y-40098169D01*
X66666163Y-40154518D01*
X67434643Y-40922998D01*
X67559644Y-41224777D01*
X67878925Y-41544058D01*
X68296085Y-41716851D01*
X68747617Y-41716851D01*
X69164777Y-41544058D01*
X69484058Y-41224777D01*
X69656851Y-40807617D01*
X69656851Y-40356085D01*
X69484058Y-39938925D01*
X69164777Y-39619644D01*
X68862998Y-39494643D01*
X68320000Y-38951645D01*
X68320000Y-35635133D01*
X68445074Y-35760207D01*
X68586001Y-35818581D01*
X68586000Y-37318456D01*
X68461000Y-37620234D01*
X68461000Y-38071766D01*
X68633793Y-38488926D01*
X68953074Y-38808207D01*
X69370234Y-38981000D01*
X69821766Y-38981000D01*
X70238926Y-38808207D01*
X70558207Y-38488926D01*
X70731000Y-38071766D01*
X70731000Y-37620234D01*
X70606000Y-37318457D01*
X70606000Y-36068000D01*
X77733908Y-36068000D01*
X77849161Y-36647418D01*
X78177375Y-37138625D01*
X78668582Y-37466839D01*
X79101744Y-37553000D01*
X79394256Y-37553000D01*
X79827418Y-37466839D01*
X80318625Y-37138625D01*
X80646839Y-36647418D01*
X80762092Y-36068000D01*
X80646839Y-35488582D01*
X80318625Y-34997375D01*
X80300381Y-34985184D01*
X80345765Y-34976157D01*
X80555809Y-34835809D01*
X80696157Y-34625765D01*
X80745440Y-34378000D01*
X80745440Y-32678000D01*
X80696157Y-32430235D01*
X80555809Y-32220191D01*
X80345765Y-32079843D01*
X80098000Y-32030560D01*
X78398000Y-32030560D01*
X78150235Y-32079843D01*
X77940191Y-32220191D01*
X77799843Y-32430235D01*
X77750560Y-32678000D01*
X77750560Y-34378000D01*
X77799843Y-34625765D01*
X77940191Y-34835809D01*
X78150235Y-34976157D01*
X78195619Y-34985184D01*
X78177375Y-34997375D01*
X77849161Y-35488582D01*
X77733908Y-36068000D01*
X70606000Y-36068000D01*
X70606000Y-35405470D01*
X70625786Y-35305999D01*
X70606000Y-35206528D01*
X70606000Y-35206524D01*
X70547399Y-34911918D01*
X70324169Y-34577831D01*
X70239837Y-34521482D01*
X70175208Y-34456853D01*
X70050207Y-34155074D01*
X69730926Y-33835793D01*
X69313766Y-33663000D01*
X68862234Y-33663000D01*
X68445074Y-33835793D01*
X68378113Y-33902754D01*
X68272207Y-33647074D01*
X67952926Y-33327793D01*
X67535766Y-33155000D01*
X67084234Y-33155000D01*
X66667074Y-33327793D01*
X66347793Y-33647074D01*
X66175000Y-34064234D01*
X58155947Y-34064234D01*
X57689439Y-33871000D01*
X57566396Y-33871000D01*
X57858534Y-33578862D01*
X58077000Y-33051439D01*
X58077000Y-32480561D01*
X57858534Y-31953138D01*
X57454862Y-31549466D01*
X56927439Y-31331000D01*
X56812132Y-31331000D01*
X56685611Y-31204479D01*
X56622288Y-31109710D01*
X56527520Y-31046388D01*
X56176999Y-30695868D01*
X56176999Y-26378131D01*
X56820141Y-25734990D01*
X59309000Y-25734990D01*
X59309000Y-33020000D01*
X59318667Y-33068601D01*
X59346197Y-33109803D01*
X59387399Y-33137333D01*
X59436000Y-33147000D01*
X76962000Y-33147000D01*
X77010601Y-33137333D01*
X77051803Y-33109803D01*
X77079333Y-33068601D01*
X77089000Y-33020000D01*
X77089000Y-26000743D01*
X78518942Y-27430686D01*
X78321000Y-27908561D01*
X78321000Y-28479439D01*
X78539466Y-29006862D01*
X78943138Y-29410534D01*
X79470561Y-29629000D01*
X79585869Y-29629000D01*
X82938389Y-32981521D01*
X83001711Y-33076289D01*
X83276973Y-33260213D01*
X83377145Y-33327146D01*
X83820000Y-33415235D01*
X83931783Y-33393000D01*
X84369719Y-33393000D01*
X84571761Y-33528000D01*
X84273375Y-33727375D01*
X83945161Y-34218582D01*
X83829908Y-34798000D01*
X83945161Y-35377418D01*
X84273375Y-35868625D01*
X84291619Y-35880816D01*
X84246235Y-35889843D01*
X84036191Y-36030191D01*
X83895843Y-36240235D01*
X83846560Y-36488000D01*
X83846560Y-38188000D01*
X83895843Y-38435765D01*
X84036191Y-38645809D01*
X84246235Y-38786157D01*
X84494000Y-38835440D01*
X86194000Y-38835440D01*
X86441765Y-38786157D01*
X86651809Y-38645809D01*
X86792157Y-38435765D01*
X86841440Y-38188000D01*
X86841440Y-36488000D01*
X86792157Y-36240235D01*
X86651809Y-36030191D01*
X86441765Y-35889843D01*
X86396381Y-35880816D01*
X86414625Y-35868625D01*
X86742839Y-35377418D01*
X86858092Y-34798000D01*
X86742839Y-34218582D01*
X86414625Y-33727375D01*
X86116239Y-33528000D01*
X86414625Y-33328625D01*
X86742839Y-32837418D01*
X86858092Y-32258000D01*
X86742839Y-31678582D01*
X86414625Y-31187375D01*
X85923418Y-30859161D01*
X85490256Y-30773000D01*
X85197744Y-30773000D01*
X84764582Y-30859161D01*
X84369719Y-31123000D01*
X84290132Y-31123000D01*
X81191000Y-28023869D01*
X81191000Y-27908561D01*
X80972534Y-27381138D01*
X80891000Y-27299604D01*
X80891000Y-27174393D01*
X80913235Y-27062611D01*
X80858931Y-26789608D01*
X80825146Y-26619757D01*
X80574289Y-26244323D01*
X80479521Y-26181001D01*
X78174991Y-23876472D01*
X78111667Y-23781701D01*
X77736233Y-23530844D01*
X77571311Y-23498039D01*
X77619387Y-23480264D01*
X77845908Y-22870539D01*
X77821856Y-22220540D01*
X77619387Y-21731736D01*
X77352532Y-21633073D01*
X76379605Y-22606000D01*
X76393748Y-22620143D01*
X76214143Y-22799748D01*
X76200000Y-22785605D01*
X76185858Y-22799748D01*
X76006253Y-22620143D01*
X76020395Y-22606000D01*
X75047468Y-21633073D01*
X74780613Y-21731736D01*
X74554092Y-22341461D01*
X74578144Y-22991460D01*
X74774286Y-23464990D01*
X71125061Y-23464990D01*
X71345908Y-22870539D01*
X71321856Y-22220540D01*
X71119387Y-21731736D01*
X70852532Y-21633073D01*
X69879605Y-22606000D01*
X69893748Y-22620143D01*
X69714143Y-22799748D01*
X69700000Y-22785605D01*
X69685858Y-22799748D01*
X69506253Y-22620143D01*
X69520395Y-22606000D01*
X68547468Y-21633073D01*
X68280613Y-21731736D01*
X68079000Y-22274416D01*
X68079000Y-22208778D01*
X67830086Y-21607847D01*
X67675707Y-21453468D01*
X68727073Y-21453468D01*
X69700000Y-22426395D01*
X70672927Y-21453468D01*
X75227073Y-21453468D01*
X76200000Y-22426395D01*
X77172927Y-21453468D01*
X77074264Y-21186613D01*
X76464539Y-20960092D01*
X75814540Y-20984144D01*
X75325736Y-21186613D01*
X75227073Y-21453468D01*
X70672927Y-21453468D01*
X70574264Y-21186613D01*
X69964539Y-20960092D01*
X69314540Y-20984144D01*
X68825736Y-21186613D01*
X68727073Y-21453468D01*
X67675707Y-21453468D01*
X67370153Y-21147914D01*
X66769222Y-20899000D01*
X66118778Y-20899000D01*
X65517847Y-21147914D01*
X65057914Y-21607847D01*
X64809000Y-22208778D01*
X64809000Y-22859222D01*
X65057914Y-23460153D01*
X65062751Y-23464990D01*
X61325249Y-23464990D01*
X61330086Y-23460153D01*
X61579000Y-22859222D01*
X61579000Y-22208778D01*
X61330086Y-21607847D01*
X60870153Y-21147914D01*
X60269222Y-20899000D01*
X59618778Y-20899000D01*
X59017847Y-21147914D01*
X58557914Y-21607847D01*
X58309000Y-22208778D01*
X58309000Y-22859222D01*
X58557914Y-23460153D01*
X58562751Y-23464990D01*
X57793900Y-23464990D01*
X57993740Y-23165909D01*
X58105113Y-22606000D01*
X57993740Y-22046091D01*
X57676577Y-21571423D01*
X57201909Y-21254260D01*
X56783333Y-21171000D01*
X56500667Y-21171000D01*
X56465923Y-21177911D01*
X56695146Y-20834855D01*
X56755159Y-20533147D01*
X56783235Y-20392001D01*
X56761000Y-20280218D01*
X56761000Y-19965277D01*
X56933809Y-19849809D01*
X57074157Y-19639765D01*
X57123440Y-19392000D01*
X57123440Y-19186532D01*
X58971073Y-19186532D01*
X59069736Y-19453387D01*
X59679461Y-19679908D01*
X60329460Y-19655856D01*
X60818264Y-19453387D01*
X60916927Y-19186532D01*
X65471073Y-19186532D01*
X65569736Y-19453387D01*
X66179461Y-19679908D01*
X66829460Y-19655856D01*
X67318264Y-19453387D01*
X67416927Y-19186532D01*
X66444000Y-18213605D01*
X65471073Y-19186532D01*
X60916927Y-19186532D01*
X59944000Y-18213605D01*
X58971073Y-19186532D01*
X57123440Y-19186532D01*
X57123440Y-17769461D01*
X58298092Y-17769461D01*
X58322144Y-18419460D01*
X58524613Y-18908264D01*
X58791468Y-19006927D01*
X59764395Y-18034000D01*
X60123605Y-18034000D01*
X61096532Y-19006927D01*
X61363387Y-18908264D01*
X61589908Y-18298539D01*
X61570331Y-17769461D01*
X64798092Y-17769461D01*
X64822144Y-18419460D01*
X65024613Y-18908264D01*
X65291468Y-19006927D01*
X66264395Y-18034000D01*
X66623605Y-18034000D01*
X67596532Y-19006927D01*
X67863387Y-18908264D01*
X68065000Y-18365584D01*
X68065000Y-18431222D01*
X68313914Y-19032153D01*
X68773847Y-19492086D01*
X69374778Y-19741000D01*
X70025222Y-19741000D01*
X70626153Y-19492086D01*
X71086086Y-19032153D01*
X71335000Y-18431222D01*
X71335000Y-17780778D01*
X74565000Y-17780778D01*
X74565000Y-18431222D01*
X74813914Y-19032153D01*
X75273847Y-19492086D01*
X75874778Y-19741000D01*
X76525222Y-19741000D01*
X77126153Y-19492086D01*
X77586086Y-19032153D01*
X77835000Y-18431222D01*
X77835000Y-18034000D01*
X78292887Y-18034000D01*
X78404260Y-18593909D01*
X78721423Y-19068577D01*
X79196091Y-19385740D01*
X79614667Y-19469000D01*
X79897333Y-19469000D01*
X80315909Y-19385740D01*
X80790577Y-19068577D01*
X81107740Y-18593909D01*
X81168589Y-18288000D01*
X83829908Y-18288000D01*
X83945161Y-18867418D01*
X84273375Y-19358625D01*
X84571761Y-19558000D01*
X84273375Y-19757375D01*
X83945161Y-20248582D01*
X83829908Y-20828000D01*
X83945161Y-21407418D01*
X84273375Y-21898625D01*
X84571761Y-22098000D01*
X84273375Y-22297375D01*
X83945161Y-22788582D01*
X83829908Y-23368000D01*
X83945161Y-23947418D01*
X84273375Y-24438625D01*
X84571761Y-24638000D01*
X84273375Y-24837375D01*
X83945161Y-25328582D01*
X83829908Y-25908000D01*
X83945161Y-26487418D01*
X84273375Y-26978625D01*
X84291619Y-26990816D01*
X84246235Y-26999843D01*
X84036191Y-27140191D01*
X83895843Y-27350235D01*
X83846560Y-27598000D01*
X83846560Y-29298000D01*
X83895843Y-29545765D01*
X84036191Y-29755809D01*
X84246235Y-29896157D01*
X84494000Y-29945440D01*
X86194000Y-29945440D01*
X86441765Y-29896157D01*
X86651809Y-29755809D01*
X86792157Y-29545765D01*
X86841440Y-29298000D01*
X86841440Y-27598000D01*
X86792157Y-27350235D01*
X86651809Y-27140191D01*
X86441765Y-26999843D01*
X86396381Y-26990816D01*
X86414625Y-26978625D01*
X86742839Y-26487418D01*
X86858092Y-25908000D01*
X86742839Y-25328582D01*
X86414625Y-24837375D01*
X86116239Y-24638000D01*
X86414625Y-24438625D01*
X86742839Y-23947418D01*
X86858092Y-23368000D01*
X86742839Y-22788582D01*
X86414625Y-22297375D01*
X86116239Y-22098000D01*
X86414625Y-21898625D01*
X86742839Y-21407418D01*
X86858092Y-20828000D01*
X86742839Y-20248582D01*
X86414625Y-19757375D01*
X86116239Y-19558000D01*
X86414625Y-19358625D01*
X86742839Y-18867418D01*
X86858092Y-18288000D01*
X86742839Y-17708582D01*
X86414625Y-17217375D01*
X85923418Y-16889161D01*
X85490256Y-16803000D01*
X85197744Y-16803000D01*
X84764582Y-16889161D01*
X84273375Y-17217375D01*
X83945161Y-17708582D01*
X83829908Y-18288000D01*
X81168589Y-18288000D01*
X81219113Y-18034000D01*
X81107740Y-17474091D01*
X80790577Y-16999423D01*
X80315909Y-16682260D01*
X79897333Y-16599000D01*
X79614667Y-16599000D01*
X79196091Y-16682260D01*
X78721423Y-16999423D01*
X78404260Y-17474091D01*
X78292887Y-18034000D01*
X77835000Y-18034000D01*
X77835000Y-17780778D01*
X77586086Y-17179847D01*
X77126153Y-16719914D01*
X76525222Y-16471000D01*
X75874778Y-16471000D01*
X75273847Y-16719914D01*
X74813914Y-17179847D01*
X74565000Y-17780778D01*
X71335000Y-17780778D01*
X71086086Y-17179847D01*
X70626153Y-16719914D01*
X70025222Y-16471000D01*
X69374778Y-16471000D01*
X68773847Y-16719914D01*
X68313914Y-17179847D01*
X68070278Y-17768036D01*
X68065856Y-17648540D01*
X67863387Y-17159736D01*
X67596532Y-17061073D01*
X66623605Y-18034000D01*
X66264395Y-18034000D01*
X65291468Y-17061073D01*
X65024613Y-17159736D01*
X64798092Y-17769461D01*
X61570331Y-17769461D01*
X61565856Y-17648540D01*
X61363387Y-17159736D01*
X61096532Y-17061073D01*
X60123605Y-18034000D01*
X59764395Y-18034000D01*
X58791468Y-17061073D01*
X58524613Y-17159736D01*
X58298092Y-17769461D01*
X57123440Y-17769461D01*
X57123440Y-17692000D01*
X57074157Y-17444235D01*
X56933809Y-17234191D01*
X56723765Y-17093843D01*
X56476000Y-17044560D01*
X54776000Y-17044560D01*
X54528235Y-17093843D01*
X54318191Y-17234191D01*
X54177843Y-17444235D01*
X54157261Y-17547708D01*
X53852924Y-17270355D01*
X53442890Y-17100524D01*
X53213000Y-17221845D01*
X53213000Y-18415000D01*
X53233000Y-18415000D01*
X53233000Y-18669000D01*
X53213000Y-18669000D01*
X53213000Y-19862155D01*
X53442890Y-19983476D01*
X53852924Y-19813645D01*
X54157261Y-19536292D01*
X54177843Y-19639765D01*
X54318191Y-19849809D01*
X54464979Y-19947890D01*
X54318481Y-20094388D01*
X54223710Y-20157712D01*
X53992474Y-20503782D01*
X53972853Y-20533147D01*
X53884764Y-20976001D01*
X53906999Y-21087784D01*
X53906999Y-21304372D01*
X53689039Y-21214096D01*
X53467000Y-21336085D01*
X53467000Y-22479000D01*
X53487000Y-22479000D01*
X53487000Y-22733000D01*
X53467000Y-22733000D01*
X53467000Y-23875915D01*
X53689039Y-23997904D01*
X53907000Y-23907628D01*
X53907000Y-24526212D01*
X53884764Y-24638000D01*
X53906999Y-24749783D01*
X53906999Y-25796217D01*
X53884764Y-25908000D01*
X53906999Y-26019783D01*
X53907000Y-31054211D01*
X53884764Y-31165999D01*
X53943816Y-31462876D01*
X53625439Y-31331000D01*
X53054561Y-31331000D01*
X52527138Y-31549466D01*
X52123466Y-31953138D01*
X51905000Y-32480561D01*
X48462000Y-32480561D01*
X48462000Y-22955041D01*
X51948086Y-22955041D01*
X52187611Y-23461134D01*
X52602577Y-23837041D01*
X52990961Y-23997904D01*
X53213000Y-23875915D01*
X53213000Y-22733000D01*
X52069371Y-22733000D01*
X51948086Y-22955041D01*
X48462000Y-22955041D01*
X48462000Y-22256959D01*
X51948086Y-22256959D01*
X52069371Y-22479000D01*
X53213000Y-22479000D01*
X53213000Y-21336085D01*
X52990961Y-21214096D01*
X52602577Y-21374959D01*
X52187611Y-21750866D01*
X51948086Y-22256959D01*
X48462000Y-22256959D01*
X48462000Y-18898892D01*
X51644514Y-18898892D01*
X51890817Y-19423358D01*
X52319076Y-19813645D01*
X52729110Y-19983476D01*
X52959000Y-19862155D01*
X52959000Y-18669000D01*
X51765181Y-18669000D01*
X51644514Y-18898892D01*
X48462000Y-18898892D01*
X48462000Y-18185108D01*
X51644514Y-18185108D01*
X51765181Y-18415000D01*
X52959000Y-18415000D01*
X52959000Y-17221845D01*
X52729110Y-17100524D01*
X52319076Y-17270355D01*
X51890817Y-17660642D01*
X51644514Y-18185108D01*
X48462000Y-18185108D01*
X48462000Y-16881468D01*
X58971073Y-16881468D01*
X59944000Y-17854395D01*
X60916927Y-16881468D01*
X65471073Y-16881468D01*
X66444000Y-17854395D01*
X67416927Y-16881468D01*
X67318264Y-16614613D01*
X66708539Y-16388092D01*
X66058540Y-16412144D01*
X65569736Y-16614613D01*
X65471073Y-16881468D01*
X60916927Y-16881468D01*
X60818264Y-16614613D01*
X60208539Y-16388092D01*
X59558540Y-16412144D01*
X59069736Y-16614613D01*
X58971073Y-16881468D01*
X48462000Y-16881468D01*
X48462000Y-15442000D01*
X87428001Y-15442000D01*
X87428000Y-64060000D01*
X87428000Y-64060000D01*
G37*
X87428000Y-64060000D02*
X48462000Y-64060000D01*
X48462000Y-61790735D01*
X49608870Y-61790735D01*
X49658383Y-62016164D01*
X50123036Y-62175807D01*
X50613413Y-62145482D01*
X50925617Y-62016164D01*
X50975130Y-61790735D01*
X50292000Y-61107605D01*
X49608870Y-61790735D01*
X48462000Y-61790735D01*
X48462000Y-60759036D01*
X49044193Y-60759036D01*
X49074518Y-61249413D01*
X49203836Y-61561617D01*
X49429265Y-61611130D01*
X50112395Y-60928000D01*
X50098253Y-60913858D01*
X50277858Y-60734253D01*
X50292000Y-60748395D01*
X50306143Y-60734253D01*
X50485748Y-60913858D01*
X50471605Y-60928000D01*
X51154735Y-61611130D01*
X51380164Y-61561617D01*
X51539807Y-61096964D01*
X51509482Y-60606587D01*
X51498861Y-60580944D01*
X52496025Y-60580944D01*
X52528074Y-60712477D01*
X52844764Y-61275630D01*
X53352857Y-61674724D01*
X53975000Y-61849000D01*
X54991000Y-61849000D01*
X54991000Y-60325000D01*
X55245000Y-60325000D01*
X55245000Y-61849000D01*
X56261000Y-61849000D01*
X56883143Y-61674724D01*
X57391236Y-61275630D01*
X57707926Y-60712477D01*
X57739975Y-60580944D01*
X57620836Y-60325000D01*
X55245000Y-60325000D01*
X54991000Y-60325000D01*
X52615164Y-60325000D01*
X52496025Y-60580944D01*
X51498861Y-60580944D01*
X51380164Y-60294383D01*
X51154737Y-60244871D01*
X51270430Y-60129178D01*
X51216282Y-60075030D01*
X51349809Y-59985809D01*
X51490157Y-59775765D01*
X51539440Y-59528000D01*
X51539440Y-58328000D01*
X51490157Y-58080235D01*
X51349809Y-57870191D01*
X51139765Y-57729843D01*
X50892000Y-57680560D01*
X49692000Y-57680560D01*
X49444235Y-57729843D01*
X49234191Y-57870191D01*
X49093843Y-58080235D01*
X49044560Y-58328000D01*
X49044560Y-59528000D01*
X49093843Y-59775765D01*
X49234191Y-59985809D01*
X49367718Y-60075030D01*
X49313570Y-60129178D01*
X49429263Y-60244871D01*
X49203836Y-60294383D01*
X49044193Y-60759036D01*
X48462000Y-60759036D01*
X48462000Y-55118000D01*
X52418655Y-55118000D01*
X52546792Y-55762188D01*
X52911695Y-56308305D01*
X53030967Y-56388000D01*
X52911695Y-56467695D01*
X52546792Y-57013812D01*
X52418655Y-57658000D01*
X52546792Y-58302188D01*
X52911695Y-58848305D01*
X53062689Y-58949196D01*
X52844764Y-59120370D01*
X52528074Y-59683523D01*
X52496025Y-59815056D01*
X52615164Y-60071000D01*
X54991000Y-60071000D01*
X54991000Y-60051000D01*
X55245000Y-60051000D01*
X55245000Y-60071000D01*
X57620836Y-60071000D01*
X57739975Y-59815056D01*
X57707926Y-59683523D01*
X57391236Y-59120370D01*
X57173311Y-58949196D01*
X57324305Y-58848305D01*
X57689208Y-58302188D01*
X57817345Y-57658000D01*
X57689208Y-57013812D01*
X57528861Y-56773834D01*
X68453000Y-56773834D01*
X68453000Y-58542166D01*
X69129711Y-60175890D01*
X70380110Y-61426289D01*
X72013834Y-62103000D01*
X73782166Y-62103000D01*
X75415890Y-61426289D01*
X76666289Y-60175890D01*
X77343000Y-58542166D01*
X77343000Y-57395745D01*
X78419861Y-57395745D01*
X78493995Y-57641864D01*
X79031223Y-57834965D01*
X79601454Y-57807778D01*
X80002005Y-57641864D01*
X80076139Y-57395745D01*
X79248000Y-56567605D01*
X78419861Y-57395745D01*
X77343000Y-57395745D01*
X77343000Y-56773834D01*
X77093391Y-56171223D01*
X77801035Y-56171223D01*
X77828222Y-56741454D01*
X77994136Y-57142005D01*
X78240255Y-57216139D01*
X79068395Y-56388000D01*
X79427605Y-56388000D01*
X80255745Y-57216139D01*
X80501864Y-57142005D01*
X80647424Y-56737041D01*
X81158086Y-56737041D01*
X81397611Y-57243134D01*
X81812577Y-57619041D01*
X82200961Y-57779904D01*
X82423000Y-57657915D01*
X82423000Y-56515000D01*
X82677000Y-56515000D01*
X82677000Y-57657915D01*
X82899039Y-57779904D01*
X83287423Y-57619041D01*
X83702389Y-57243134D01*
X83941914Y-56737041D01*
X83820629Y-56515000D01*
X82677000Y-56515000D01*
X82423000Y-56515000D01*
X81279371Y-56515000D01*
X81158086Y-56737041D01*
X80647424Y-56737041D01*
X80694965Y-56604777D01*
X80667989Y-56038959D01*
X81158086Y-56038959D01*
X81279371Y-56261000D01*
X82423000Y-56261000D01*
X82423000Y-55118085D01*
X82200961Y-54996096D01*
X81812577Y-55156959D01*
X81397611Y-55532866D01*
X81158086Y-56038959D01*
X80667989Y-56038959D01*
X80667778Y-56034546D01*
X80501864Y-55633995D01*
X80255745Y-55559861D01*
X79427605Y-56388000D01*
X79068395Y-56388000D01*
X78240255Y-55559861D01*
X77994136Y-55633995D01*
X77801035Y-56171223D01*
X77093391Y-56171223D01*
X76765761Y-55380255D01*
X78419861Y-55380255D01*
X79248000Y-56208395D01*
X80076139Y-55380255D01*
X80002005Y-55134136D01*
X79464777Y-54941035D01*
X78894546Y-54968222D01*
X78493995Y-55134136D01*
X78419861Y-55380255D01*
X76765761Y-55380255D01*
X76666289Y-55140110D01*
X75415890Y-53889711D01*
X73782166Y-53213000D01*
X72013834Y-53213000D01*
X70380110Y-53889711D01*
X69129711Y-55140110D01*
X68453000Y-56773834D01*
X57528861Y-56773834D01*
X57324305Y-56467695D01*
X57205033Y-56388000D01*
X57324305Y-56308305D01*
X57689208Y-55762188D01*
X57817345Y-55118000D01*
X57689208Y-54473812D01*
X57324305Y-53927695D01*
X56778188Y-53562792D01*
X56296609Y-53467000D01*
X53939391Y-53467000D01*
X53457812Y-53562792D01*
X52911695Y-53927695D01*
X52546792Y-54473812D01*
X52418655Y-55118000D01*
X48462000Y-55118000D01*
X48462000Y-51664890D01*
X49866524Y-51664890D01*
X50036355Y-52074924D01*
X50426642Y-52503183D01*
X50951108Y-52749486D01*
X51181000Y-52628819D01*
X51181000Y-51435000D01*
X51435000Y-51435000D01*
X51435000Y-52628819D01*
X51664892Y-52749486D01*
X52189358Y-52503183D01*
X52579645Y-52074924D01*
X52749476Y-51664890D01*
X52631467Y-51441275D01*
X54108331Y-51441275D01*
X54170169Y-51677042D01*
X54671122Y-51853419D01*
X55201440Y-51824664D01*
X55557831Y-51677042D01*
X55619669Y-51441275D01*
X54864000Y-50685605D01*
X54108331Y-51441275D01*
X52631467Y-51441275D01*
X52628155Y-51435000D01*
X51435000Y-51435000D01*
X51181000Y-51435000D01*
X49987845Y-51435000D01*
X49866524Y-51664890D01*
X48462000Y-51664890D01*
X48462000Y-47918000D01*
X49810560Y-47918000D01*
X49810560Y-49618000D01*
X49859843Y-49865765D01*
X50000191Y-50075809D01*
X50210235Y-50216157D01*
X50313708Y-50236739D01*
X50036355Y-50541076D01*
X49866524Y-50951110D01*
X49987845Y-51181000D01*
X51181000Y-51181000D01*
X51181000Y-51161000D01*
X51435000Y-51161000D01*
X51435000Y-51181000D01*
X52628155Y-51181000D01*
X52749476Y-50951110D01*
X52579645Y-50541076D01*
X52371903Y-50313122D01*
X53516581Y-50313122D01*
X53545336Y-50843440D01*
X53692958Y-51199831D01*
X53928725Y-51261669D01*
X54684395Y-50506000D01*
X55043605Y-50506000D01*
X55799275Y-51261669D01*
X56035042Y-51199831D01*
X56211419Y-50698878D01*
X56182664Y-50168560D01*
X56035042Y-49812169D01*
X55799275Y-49750331D01*
X55043605Y-50506000D01*
X54684395Y-50506000D01*
X53928725Y-49750331D01*
X53692958Y-49812169D01*
X53516581Y-50313122D01*
X52371903Y-50313122D01*
X52302292Y-50236739D01*
X52405765Y-50216157D01*
X52615809Y-50075809D01*
X52756157Y-49865765D01*
X52805440Y-49618000D01*
X52805440Y-47918000D01*
X52756157Y-47670235D01*
X52615809Y-47460191D01*
X52405765Y-47319843D01*
X52158000Y-47270560D01*
X50458000Y-47270560D01*
X50210235Y-47319843D01*
X50000191Y-47460191D01*
X49859843Y-47670235D01*
X49810560Y-47918000D01*
X48462000Y-47918000D01*
X48462000Y-45180561D01*
X52413000Y-45180561D01*
X52413000Y-45751439D01*
X52631466Y-46278862D01*
X53035138Y-46682534D01*
X53562561Y-46901000D01*
X54081025Y-46901000D01*
X53732242Y-47249783D01*
X53529000Y-47740452D01*
X53529000Y-48271548D01*
X53732242Y-48762217D01*
X54107783Y-49137758D01*
X54377017Y-49249279D01*
X54170169Y-49334958D01*
X54108331Y-49570725D01*
X54864000Y-50326395D01*
X55619669Y-49570725D01*
X55557831Y-49334958D01*
X55334212Y-49256225D01*
X55620217Y-49137758D01*
X55995758Y-48762217D01*
X56199000Y-48271548D01*
X56199000Y-47740452D01*
X55995758Y-47249783D01*
X55620217Y-46874242D01*
X55129548Y-46671000D01*
X54672396Y-46671000D01*
X55064534Y-46278862D01*
X55283000Y-45751439D01*
X55283000Y-45180561D01*
X55064534Y-44653138D01*
X54660862Y-44249466D01*
X54133439Y-44031000D01*
X53562561Y-44031000D01*
X53035138Y-44249466D01*
X52631466Y-44653138D01*
X52413000Y-45180561D01*
X48462000Y-45180561D01*
X48462000Y-40386000D01*
X48523908Y-40386000D01*
X48639161Y-40965418D01*
X48967375Y-41456625D01*
X49265761Y-41656000D01*
X48967375Y-41855375D01*
X48639161Y-42346582D01*
X48523908Y-42926000D01*
X48639161Y-43505418D01*
X48967375Y-43996625D01*
X49458582Y-44324839D01*
X49891744Y-44411000D01*
X50184256Y-44411000D01*
X50617418Y-44324839D01*
X51108625Y-43996625D01*
X51436839Y-43505418D01*
X51552092Y-42926000D01*
X51436839Y-42346582D01*
X51108625Y-41855375D01*
X50810239Y-41656000D01*
X51108625Y-41456625D01*
X51436839Y-40965418D01*
X51552092Y-40386000D01*
X51436839Y-39806582D01*
X51108625Y-39315375D01*
X51086967Y-39300904D01*
X51247698Y-39234327D01*
X51426327Y-39055699D01*
X51523000Y-38822310D01*
X51523000Y-38131750D01*
X51364250Y-37973000D01*
X50165000Y-37973000D01*
X50165000Y-37993000D01*
X49911000Y-37993000D01*
X49911000Y-37973000D01*
X48711750Y-37973000D01*
X48553000Y-38131750D01*
X48553000Y-38822310D01*
X48649673Y-39055699D01*
X48828302Y-39234327D01*
X48989033Y-39300904D01*
X48967375Y-39315375D01*
X48639161Y-39806582D01*
X48523908Y-40386000D01*
X48462000Y-40386000D01*
X48462000Y-36869690D01*
X48553000Y-36869690D01*
X48553000Y-37560250D01*
X48711750Y-37719000D01*
X49911000Y-37719000D01*
X49911000Y-36519750D01*
X50165000Y-36519750D01*
X50165000Y-37719000D01*
X51364250Y-37719000D01*
X51523000Y-37560250D01*
X51523000Y-36869690D01*
X51426327Y-36636301D01*
X51247698Y-36457673D01*
X51014309Y-36361000D01*
X50323750Y-36361000D01*
X50165000Y-36519750D01*
X49911000Y-36519750D01*
X49752250Y-36361000D01*
X49061691Y-36361000D01*
X48828302Y-36457673D01*
X48649673Y-36636301D01*
X48553000Y-36869690D01*
X48462000Y-36869690D01*
X48462000Y-32480561D01*
X51905000Y-32480561D01*
X51905000Y-33051439D01*
X52123466Y-33578862D01*
X52527138Y-33982534D01*
X52970765Y-34166290D01*
X52813423Y-34271423D01*
X52496260Y-34746091D01*
X52384887Y-35306000D01*
X52496260Y-35865909D01*
X52813423Y-36340577D01*
X53288091Y-36657740D01*
X53706667Y-36741000D01*
X53989333Y-36741000D01*
X54407909Y-36657740D01*
X54669000Y-36483285D01*
X54668999Y-42622846D01*
X54646764Y-42734629D01*
X54668999Y-42846411D01*
X54734853Y-43177483D01*
X54985710Y-43552918D01*
X55080481Y-43616242D01*
X56179661Y-44715422D01*
X56052260Y-44906091D01*
X55940887Y-45466000D01*
X56052260Y-46025909D01*
X56369423Y-46500577D01*
X56844091Y-46817740D01*
X57262667Y-46901000D01*
X57545333Y-46901000D01*
X57963909Y-46817740D01*
X58438577Y-46500577D01*
X58755740Y-46025909D01*
X58867113Y-45466000D01*
X58771682Y-44986234D01*
X68715000Y-44986234D01*
X68715000Y-45437766D01*
X68887793Y-45854926D01*
X69207074Y-46174207D01*
X69624234Y-46347000D01*
X70075766Y-46347000D01*
X70377543Y-46222000D01*
X74257645Y-46222000D01*
X83125563Y-55089919D01*
X82899039Y-54996096D01*
X82677000Y-55118085D01*
X82677000Y-56261000D01*
X83820629Y-56261000D01*
X83941914Y-56038959D01*
X83822686Y-55787042D01*
X84417000Y-56381356D01*
X84417000Y-56673439D01*
X84635466Y-57200862D01*
X85039138Y-57604534D01*
X85566561Y-57823000D01*
X86137439Y-57823000D01*
X86664862Y-57604534D01*
X87068534Y-57200862D01*
X87287000Y-56673439D01*
X87287000Y-56102561D01*
X87068534Y-55575138D01*
X86664862Y-55171466D01*
X86137439Y-54953000D01*
X85845356Y-54953000D01*
X77120356Y-46228000D01*
X77784887Y-46228000D01*
X77896260Y-46787909D01*
X78213423Y-47262577D01*
X78688091Y-47579740D01*
X79106667Y-47663000D01*
X79389333Y-47663000D01*
X79807909Y-47579740D01*
X80282577Y-47262577D01*
X80599740Y-46787909D01*
X80711113Y-46228000D01*
X80654336Y-45942561D01*
X81115000Y-45942561D01*
X81115000Y-46513439D01*
X81333466Y-47040862D01*
X81737138Y-47444534D01*
X82264561Y-47663000D01*
X82835439Y-47663000D01*
X83362862Y-47444534D01*
X83766534Y-47040862D01*
X83985000Y-46513439D01*
X83985000Y-46228000D01*
X84388887Y-46228000D01*
X84500260Y-46787909D01*
X84817423Y-47262577D01*
X85292091Y-47579740D01*
X85710667Y-47663000D01*
X85993333Y-47663000D01*
X86411909Y-47579740D01*
X86886577Y-47262577D01*
X87203740Y-46787909D01*
X87315113Y-46228000D01*
X87203740Y-45668091D01*
X86886577Y-45193423D01*
X86411909Y-44876260D01*
X85993333Y-44793000D01*
X85710667Y-44793000D01*
X85292091Y-44876260D01*
X84817423Y-45193423D01*
X84500260Y-45668091D01*
X84388887Y-46228000D01*
X83985000Y-46228000D01*
X83985000Y-45942561D01*
X83766534Y-45415138D01*
X83362862Y-45011466D01*
X82835439Y-44793000D01*
X82264561Y-44793000D01*
X81737138Y-45011466D01*
X81333466Y-45415138D01*
X81115000Y-45942561D01*
X80654336Y-45942561D01*
X80599740Y-45668091D01*
X80282577Y-45193423D01*
X79807909Y-44876260D01*
X79389333Y-44793000D01*
X79106667Y-44793000D01*
X78688091Y-44876260D01*
X78213423Y-45193423D01*
X77896260Y-45668091D01*
X77784887Y-46228000D01*
X77120356Y-46228000D01*
X75460518Y-44568163D01*
X75404169Y-44483831D01*
X75070082Y-44260601D01*
X74775476Y-44202000D01*
X74775471Y-44202000D01*
X74676000Y-44182214D01*
X74576529Y-44202000D01*
X70377543Y-44202000D01*
X70075766Y-44077000D01*
X69624234Y-44077000D01*
X69207074Y-44249793D01*
X68887793Y-44569074D01*
X68715000Y-44986234D01*
X58771682Y-44986234D01*
X58755740Y-44906091D01*
X58539000Y-44581717D01*
X58539000Y-44446412D01*
X58561235Y-44334629D01*
X58473146Y-43891775D01*
X58414346Y-43803775D01*
X58371607Y-43739810D01*
X82984036Y-43739810D01*
X82992734Y-43801336D01*
X83217821Y-44198255D01*
X83577669Y-44478823D01*
X84017494Y-44600326D01*
X84201000Y-44440593D01*
X84201000Y-43561000D01*
X84455000Y-43561000D01*
X84455000Y-44440593D01*
X84638506Y-44600326D01*
X85078331Y-44478823D01*
X85438179Y-44198255D01*
X85663266Y-43801336D01*
X85671964Y-43739810D01*
X85546163Y-43561000D01*
X84455000Y-43561000D01*
X84201000Y-43561000D01*
X83109837Y-43561000D01*
X82984036Y-43739810D01*
X58371607Y-43739810D01*
X58222289Y-43516341D01*
X58127521Y-43453019D01*
X56938999Y-42264498D01*
X56938999Y-42164000D01*
X82920275Y-42164000D01*
X83010305Y-42616609D01*
X83138854Y-42808996D01*
X82992734Y-43066664D01*
X82984036Y-43128190D01*
X83109837Y-43307000D01*
X83903290Y-43307000D01*
X83988754Y-43324000D01*
X84667246Y-43324000D01*
X84752710Y-43307000D01*
X85546163Y-43307000D01*
X85671964Y-43128190D01*
X85663266Y-43066664D01*
X85517146Y-42808996D01*
X85645695Y-42616609D01*
X85735725Y-42164000D01*
X85645843Y-41712133D01*
X85676157Y-41666765D01*
X85725440Y-41419000D01*
X85725440Y-40369000D01*
X85676157Y-40121235D01*
X85535809Y-39911191D01*
X85325765Y-39770843D01*
X85078000Y-39721560D01*
X83578000Y-39721560D01*
X83330235Y-39770843D01*
X83120191Y-39911191D01*
X82979843Y-40121235D01*
X82930560Y-40369000D01*
X82930560Y-41419000D01*
X82979843Y-41666765D01*
X83010157Y-41712133D01*
X82920275Y-42164000D01*
X56938999Y-42164000D01*
X56938999Y-36666623D01*
X57118561Y-36741000D01*
X57689439Y-36741000D01*
X58216862Y-36522534D01*
X58620534Y-36118862D01*
X58839000Y-35591439D01*
X58839000Y-35020561D01*
X58620534Y-34493138D01*
X58216862Y-34089466D01*
X58155947Y-34064234D01*
X66175000Y-34064234D01*
X66175000Y-34515766D01*
X66300001Y-34817545D01*
X66300000Y-39270529D01*
X66280214Y-39370000D01*
X66300000Y-39469471D01*
X66300000Y-39469475D01*
X66358601Y-39764081D01*
X66581831Y-40098169D01*
X66666163Y-40154518D01*
X67434643Y-40922998D01*
X67559644Y-41224777D01*
X67878925Y-41544058D01*
X68296085Y-41716851D01*
X68747617Y-41716851D01*
X69164777Y-41544058D01*
X69484058Y-41224777D01*
X69656851Y-40807617D01*
X69656851Y-40356085D01*
X69484058Y-39938925D01*
X69164777Y-39619644D01*
X68862998Y-39494643D01*
X68320000Y-38951645D01*
X68320000Y-35635133D01*
X68445074Y-35760207D01*
X68586001Y-35818581D01*
X68586000Y-37318456D01*
X68461000Y-37620234D01*
X68461000Y-38071766D01*
X68633793Y-38488926D01*
X68953074Y-38808207D01*
X69370234Y-38981000D01*
X69821766Y-38981000D01*
X70238926Y-38808207D01*
X70558207Y-38488926D01*
X70731000Y-38071766D01*
X70731000Y-37620234D01*
X70606000Y-37318457D01*
X70606000Y-36068000D01*
X77733908Y-36068000D01*
X77849161Y-36647418D01*
X78177375Y-37138625D01*
X78668582Y-37466839D01*
X79101744Y-37553000D01*
X79394256Y-37553000D01*
X79827418Y-37466839D01*
X80318625Y-37138625D01*
X80646839Y-36647418D01*
X80762092Y-36068000D01*
X80646839Y-35488582D01*
X80318625Y-34997375D01*
X80300381Y-34985184D01*
X80345765Y-34976157D01*
X80555809Y-34835809D01*
X80696157Y-34625765D01*
X80745440Y-34378000D01*
X80745440Y-32678000D01*
X80696157Y-32430235D01*
X80555809Y-32220191D01*
X80345765Y-32079843D01*
X80098000Y-32030560D01*
X78398000Y-32030560D01*
X78150235Y-32079843D01*
X77940191Y-32220191D01*
X77799843Y-32430235D01*
X77750560Y-32678000D01*
X77750560Y-34378000D01*
X77799843Y-34625765D01*
X77940191Y-34835809D01*
X78150235Y-34976157D01*
X78195619Y-34985184D01*
X78177375Y-34997375D01*
X77849161Y-35488582D01*
X77733908Y-36068000D01*
X70606000Y-36068000D01*
X70606000Y-35405470D01*
X70625786Y-35305999D01*
X70606000Y-35206528D01*
X70606000Y-35206524D01*
X70547399Y-34911918D01*
X70324169Y-34577831D01*
X70239837Y-34521482D01*
X70175208Y-34456853D01*
X70050207Y-34155074D01*
X69730926Y-33835793D01*
X69313766Y-33663000D01*
X68862234Y-33663000D01*
X68445074Y-33835793D01*
X68378113Y-33902754D01*
X68272207Y-33647074D01*
X67952926Y-33327793D01*
X67535766Y-33155000D01*
X67084234Y-33155000D01*
X66667074Y-33327793D01*
X66347793Y-33647074D01*
X66175000Y-34064234D01*
X58155947Y-34064234D01*
X57689439Y-33871000D01*
X57566396Y-33871000D01*
X57858534Y-33578862D01*
X58077000Y-33051439D01*
X58077000Y-32480561D01*
X57858534Y-31953138D01*
X57454862Y-31549466D01*
X56927439Y-31331000D01*
X56812132Y-31331000D01*
X56685611Y-31204479D01*
X56622288Y-31109710D01*
X56527520Y-31046388D01*
X56176999Y-30695868D01*
X56176999Y-26378131D01*
X56820141Y-25734990D01*
X59309000Y-25734990D01*
X59309000Y-33020000D01*
X59318667Y-33068601D01*
X59346197Y-33109803D01*
X59387399Y-33137333D01*
X59436000Y-33147000D01*
X76962000Y-33147000D01*
X77010601Y-33137333D01*
X77051803Y-33109803D01*
X77079333Y-33068601D01*
X77089000Y-33020000D01*
X77089000Y-26000743D01*
X78518942Y-27430686D01*
X78321000Y-27908561D01*
X78321000Y-28479439D01*
X78539466Y-29006862D01*
X78943138Y-29410534D01*
X79470561Y-29629000D01*
X79585869Y-29629000D01*
X82938389Y-32981521D01*
X83001711Y-33076289D01*
X83276973Y-33260213D01*
X83377145Y-33327146D01*
X83820000Y-33415235D01*
X83931783Y-33393000D01*
X84369719Y-33393000D01*
X84571761Y-33528000D01*
X84273375Y-33727375D01*
X83945161Y-34218582D01*
X83829908Y-34798000D01*
X83945161Y-35377418D01*
X84273375Y-35868625D01*
X84291619Y-35880816D01*
X84246235Y-35889843D01*
X84036191Y-36030191D01*
X83895843Y-36240235D01*
X83846560Y-36488000D01*
X83846560Y-38188000D01*
X83895843Y-38435765D01*
X84036191Y-38645809D01*
X84246235Y-38786157D01*
X84494000Y-38835440D01*
X86194000Y-38835440D01*
X86441765Y-38786157D01*
X86651809Y-38645809D01*
X86792157Y-38435765D01*
X86841440Y-38188000D01*
X86841440Y-36488000D01*
X86792157Y-36240235D01*
X86651809Y-36030191D01*
X86441765Y-35889843D01*
X86396381Y-35880816D01*
X86414625Y-35868625D01*
X86742839Y-35377418D01*
X86858092Y-34798000D01*
X86742839Y-34218582D01*
X86414625Y-33727375D01*
X86116239Y-33528000D01*
X86414625Y-33328625D01*
X86742839Y-32837418D01*
X86858092Y-32258000D01*
X86742839Y-31678582D01*
X86414625Y-31187375D01*
X85923418Y-30859161D01*
X85490256Y-30773000D01*
X85197744Y-30773000D01*
X84764582Y-30859161D01*
X84369719Y-31123000D01*
X84290132Y-31123000D01*
X81191000Y-28023869D01*
X81191000Y-27908561D01*
X80972534Y-27381138D01*
X80891000Y-27299604D01*
X80891000Y-27174393D01*
X80913235Y-27062611D01*
X80858931Y-26789608D01*
X80825146Y-26619757D01*
X80574289Y-26244323D01*
X80479521Y-26181001D01*
X78174991Y-23876472D01*
X78111667Y-23781701D01*
X77736233Y-23530844D01*
X77571311Y-23498039D01*
X77619387Y-23480264D01*
X77845908Y-22870539D01*
X77821856Y-22220540D01*
X77619387Y-21731736D01*
X77352532Y-21633073D01*
X76379605Y-22606000D01*
X76393748Y-22620143D01*
X76214143Y-22799748D01*
X76200000Y-22785605D01*
X76185858Y-22799748D01*
X76006253Y-22620143D01*
X76020395Y-22606000D01*
X75047468Y-21633073D01*
X74780613Y-21731736D01*
X74554092Y-22341461D01*
X74578144Y-22991460D01*
X74774286Y-23464990D01*
X71125061Y-23464990D01*
X71345908Y-22870539D01*
X71321856Y-22220540D01*
X71119387Y-21731736D01*
X70852532Y-21633073D01*
X69879605Y-22606000D01*
X69893748Y-22620143D01*
X69714143Y-22799748D01*
X69700000Y-22785605D01*
X69685858Y-22799748D01*
X69506253Y-22620143D01*
X69520395Y-22606000D01*
X68547468Y-21633073D01*
X68280613Y-21731736D01*
X68079000Y-22274416D01*
X68079000Y-22208778D01*
X67830086Y-21607847D01*
X67675707Y-21453468D01*
X68727073Y-21453468D01*
X69700000Y-22426395D01*
X70672927Y-21453468D01*
X75227073Y-21453468D01*
X76200000Y-22426395D01*
X77172927Y-21453468D01*
X77074264Y-21186613D01*
X76464539Y-20960092D01*
X75814540Y-20984144D01*
X75325736Y-21186613D01*
X75227073Y-21453468D01*
X70672927Y-21453468D01*
X70574264Y-21186613D01*
X69964539Y-20960092D01*
X69314540Y-20984144D01*
X68825736Y-21186613D01*
X68727073Y-21453468D01*
X67675707Y-21453468D01*
X67370153Y-21147914D01*
X66769222Y-20899000D01*
X66118778Y-20899000D01*
X65517847Y-21147914D01*
X65057914Y-21607847D01*
X64809000Y-22208778D01*
X64809000Y-22859222D01*
X65057914Y-23460153D01*
X65062751Y-23464990D01*
X61325249Y-23464990D01*
X61330086Y-23460153D01*
X61579000Y-22859222D01*
X61579000Y-22208778D01*
X61330086Y-21607847D01*
X60870153Y-21147914D01*
X60269222Y-20899000D01*
X59618778Y-20899000D01*
X59017847Y-21147914D01*
X58557914Y-21607847D01*
X58309000Y-22208778D01*
X58309000Y-22859222D01*
X58557914Y-23460153D01*
X58562751Y-23464990D01*
X57793900Y-23464990D01*
X57993740Y-23165909D01*
X58105113Y-22606000D01*
X57993740Y-22046091D01*
X57676577Y-21571423D01*
X57201909Y-21254260D01*
X56783333Y-21171000D01*
X56500667Y-21171000D01*
X56465923Y-21177911D01*
X56695146Y-20834855D01*
X56755159Y-20533147D01*
X56783235Y-20392001D01*
X56761000Y-20280218D01*
X56761000Y-19965277D01*
X56933809Y-19849809D01*
X57074157Y-19639765D01*
X57123440Y-19392000D01*
X57123440Y-19186532D01*
X58971073Y-19186532D01*
X59069736Y-19453387D01*
X59679461Y-19679908D01*
X60329460Y-19655856D01*
X60818264Y-19453387D01*
X60916927Y-19186532D01*
X65471073Y-19186532D01*
X65569736Y-19453387D01*
X66179461Y-19679908D01*
X66829460Y-19655856D01*
X67318264Y-19453387D01*
X67416927Y-19186532D01*
X66444000Y-18213605D01*
X65471073Y-19186532D01*
X60916927Y-19186532D01*
X59944000Y-18213605D01*
X58971073Y-19186532D01*
X57123440Y-19186532D01*
X57123440Y-17769461D01*
X58298092Y-17769461D01*
X58322144Y-18419460D01*
X58524613Y-18908264D01*
X58791468Y-19006927D01*
X59764395Y-18034000D01*
X60123605Y-18034000D01*
X61096532Y-19006927D01*
X61363387Y-18908264D01*
X61589908Y-18298539D01*
X61570331Y-17769461D01*
X64798092Y-17769461D01*
X64822144Y-18419460D01*
X65024613Y-18908264D01*
X65291468Y-19006927D01*
X66264395Y-18034000D01*
X66623605Y-18034000D01*
X67596532Y-19006927D01*
X67863387Y-18908264D01*
X68065000Y-18365584D01*
X68065000Y-18431222D01*
X68313914Y-19032153D01*
X68773847Y-19492086D01*
X69374778Y-19741000D01*
X70025222Y-19741000D01*
X70626153Y-19492086D01*
X71086086Y-19032153D01*
X71335000Y-18431222D01*
X71335000Y-17780778D01*
X74565000Y-17780778D01*
X74565000Y-18431222D01*
X74813914Y-19032153D01*
X75273847Y-19492086D01*
X75874778Y-19741000D01*
X76525222Y-19741000D01*
X77126153Y-19492086D01*
X77586086Y-19032153D01*
X77835000Y-18431222D01*
X77835000Y-18034000D01*
X78292887Y-18034000D01*
X78404260Y-18593909D01*
X78721423Y-19068577D01*
X79196091Y-19385740D01*
X79614667Y-19469000D01*
X79897333Y-19469000D01*
X80315909Y-19385740D01*
X80790577Y-19068577D01*
X81107740Y-18593909D01*
X81168589Y-18288000D01*
X83829908Y-18288000D01*
X83945161Y-18867418D01*
X84273375Y-19358625D01*
X84571761Y-19558000D01*
X84273375Y-19757375D01*
X83945161Y-20248582D01*
X83829908Y-20828000D01*
X83945161Y-21407418D01*
X84273375Y-21898625D01*
X84571761Y-22098000D01*
X84273375Y-22297375D01*
X83945161Y-22788582D01*
X83829908Y-23368000D01*
X83945161Y-23947418D01*
X84273375Y-24438625D01*
X84571761Y-24638000D01*
X84273375Y-24837375D01*
X83945161Y-25328582D01*
X83829908Y-25908000D01*
X83945161Y-26487418D01*
X84273375Y-26978625D01*
X84291619Y-26990816D01*
X84246235Y-26999843D01*
X84036191Y-27140191D01*
X83895843Y-27350235D01*
X83846560Y-27598000D01*
X83846560Y-29298000D01*
X83895843Y-29545765D01*
X84036191Y-29755809D01*
X84246235Y-29896157D01*
X84494000Y-29945440D01*
X86194000Y-29945440D01*
X86441765Y-29896157D01*
X86651809Y-29755809D01*
X86792157Y-29545765D01*
X86841440Y-29298000D01*
X86841440Y-27598000D01*
X86792157Y-27350235D01*
X86651809Y-27140191D01*
X86441765Y-26999843D01*
X86396381Y-26990816D01*
X86414625Y-26978625D01*
X86742839Y-26487418D01*
X86858092Y-25908000D01*
X86742839Y-25328582D01*
X86414625Y-24837375D01*
X86116239Y-24638000D01*
X86414625Y-24438625D01*
X86742839Y-23947418D01*
X86858092Y-23368000D01*
X86742839Y-22788582D01*
X86414625Y-22297375D01*
X86116239Y-22098000D01*
X86414625Y-21898625D01*
X86742839Y-21407418D01*
X86858092Y-20828000D01*
X86742839Y-20248582D01*
X86414625Y-19757375D01*
X86116239Y-19558000D01*
X86414625Y-19358625D01*
X86742839Y-18867418D01*
X86858092Y-18288000D01*
X86742839Y-17708582D01*
X86414625Y-17217375D01*
X85923418Y-16889161D01*
X85490256Y-16803000D01*
X85197744Y-16803000D01*
X84764582Y-16889161D01*
X84273375Y-17217375D01*
X83945161Y-17708582D01*
X83829908Y-18288000D01*
X81168589Y-18288000D01*
X81219113Y-18034000D01*
X81107740Y-17474091D01*
X80790577Y-16999423D01*
X80315909Y-16682260D01*
X79897333Y-16599000D01*
X79614667Y-16599000D01*
X79196091Y-16682260D01*
X78721423Y-16999423D01*
X78404260Y-17474091D01*
X78292887Y-18034000D01*
X77835000Y-18034000D01*
X77835000Y-17780778D01*
X77586086Y-17179847D01*
X77126153Y-16719914D01*
X76525222Y-16471000D01*
X75874778Y-16471000D01*
X75273847Y-16719914D01*
X74813914Y-17179847D01*
X74565000Y-17780778D01*
X71335000Y-17780778D01*
X71086086Y-17179847D01*
X70626153Y-16719914D01*
X70025222Y-16471000D01*
X69374778Y-16471000D01*
X68773847Y-16719914D01*
X68313914Y-17179847D01*
X68070278Y-17768036D01*
X68065856Y-17648540D01*
X67863387Y-17159736D01*
X67596532Y-17061073D01*
X66623605Y-18034000D01*
X66264395Y-18034000D01*
X65291468Y-17061073D01*
X65024613Y-17159736D01*
X64798092Y-17769461D01*
X61570331Y-17769461D01*
X61565856Y-17648540D01*
X61363387Y-17159736D01*
X61096532Y-17061073D01*
X60123605Y-18034000D01*
X59764395Y-18034000D01*
X58791468Y-17061073D01*
X58524613Y-17159736D01*
X58298092Y-17769461D01*
X57123440Y-17769461D01*
X57123440Y-17692000D01*
X57074157Y-17444235D01*
X56933809Y-17234191D01*
X56723765Y-17093843D01*
X56476000Y-17044560D01*
X54776000Y-17044560D01*
X54528235Y-17093843D01*
X54318191Y-17234191D01*
X54177843Y-17444235D01*
X54157261Y-17547708D01*
X53852924Y-17270355D01*
X53442890Y-17100524D01*
X53213000Y-17221845D01*
X53213000Y-18415000D01*
X53233000Y-18415000D01*
X53233000Y-18669000D01*
X53213000Y-18669000D01*
X53213000Y-19862155D01*
X53442890Y-19983476D01*
X53852924Y-19813645D01*
X54157261Y-19536292D01*
X54177843Y-19639765D01*
X54318191Y-19849809D01*
X54464979Y-19947890D01*
X54318481Y-20094388D01*
X54223710Y-20157712D01*
X53992474Y-20503782D01*
X53972853Y-20533147D01*
X53884764Y-20976001D01*
X53906999Y-21087784D01*
X53906999Y-21304372D01*
X53689039Y-21214096D01*
X53467000Y-21336085D01*
X53467000Y-22479000D01*
X53487000Y-22479000D01*
X53487000Y-22733000D01*
X53467000Y-22733000D01*
X53467000Y-23875915D01*
X53689039Y-23997904D01*
X53907000Y-23907628D01*
X53907000Y-24526212D01*
X53884764Y-24638000D01*
X53906999Y-24749783D01*
X53906999Y-25796217D01*
X53884764Y-25908000D01*
X53906999Y-26019783D01*
X53907000Y-31054211D01*
X53884764Y-31165999D01*
X53943816Y-31462876D01*
X53625439Y-31331000D01*
X53054561Y-31331000D01*
X52527138Y-31549466D01*
X52123466Y-31953138D01*
X51905000Y-32480561D01*
X48462000Y-32480561D01*
X48462000Y-22955041D01*
X51948086Y-22955041D01*
X52187611Y-23461134D01*
X52602577Y-23837041D01*
X52990961Y-23997904D01*
X53213000Y-23875915D01*
X53213000Y-22733000D01*
X52069371Y-22733000D01*
X51948086Y-22955041D01*
X48462000Y-22955041D01*
X48462000Y-22256959D01*
X51948086Y-22256959D01*
X52069371Y-22479000D01*
X53213000Y-22479000D01*
X53213000Y-21336085D01*
X52990961Y-21214096D01*
X52602577Y-21374959D01*
X52187611Y-21750866D01*
X51948086Y-22256959D01*
X48462000Y-22256959D01*
X48462000Y-18898892D01*
X51644514Y-18898892D01*
X51890817Y-19423358D01*
X52319076Y-19813645D01*
X52729110Y-19983476D01*
X52959000Y-19862155D01*
X52959000Y-18669000D01*
X51765181Y-18669000D01*
X51644514Y-18898892D01*
X48462000Y-18898892D01*
X48462000Y-18185108D01*
X51644514Y-18185108D01*
X51765181Y-18415000D01*
X52959000Y-18415000D01*
X52959000Y-17221845D01*
X52729110Y-17100524D01*
X52319076Y-17270355D01*
X51890817Y-17660642D01*
X51644514Y-18185108D01*
X48462000Y-18185108D01*
X48462000Y-16881468D01*
X58971073Y-16881468D01*
X59944000Y-17854395D01*
X60916927Y-16881468D01*
X65471073Y-16881468D01*
X66444000Y-17854395D01*
X67416927Y-16881468D01*
X67318264Y-16614613D01*
X66708539Y-16388092D01*
X66058540Y-16412144D01*
X65569736Y-16614613D01*
X65471073Y-16881468D01*
X60916927Y-16881468D01*
X60818264Y-16614613D01*
X60208539Y-16388092D01*
X59558540Y-16412144D01*
X59069736Y-16614613D01*
X58971073Y-16881468D01*
X48462000Y-16881468D01*
X48462000Y-15442000D01*
X87428001Y-15442000D01*
X87428000Y-64060000D01*
G04 #@! TD*
M02*
