M48
;DRILL file {KiCad (5.0.1-3-g963ef8bb5)} date Tuesday, 03 March 2020 at 22:13:30
;FORMAT={-:-/ absolute / inch / decimal}
FMAT,2
INCH,TZ
T1C0.0236
T2C0.0276
T3C0.0295
T4C0.0315
T5C0.0394
T6C0.0433
T7C0.0500
T8C0.1260
%
G90
G05
M72
T1
X1.84Y-2.38
X1.84Y-2.4587
T2
X1.7916Y-2.17
X1.89Y-2.17
T3
X3.53Y-1.57
X3.53Y-1.62
X3.53Y-1.67
T4
X2.75Y-1.78
X2.7887Y-1.2
X2.7887Y-1.2
X2.84Y-1.12
X2.95Y-1.12
X3.3Y-1.21
X3.3497Y-1.2221
X3.46Y-1.32
X1.95Y-0.88
X1.95Y-1.28
X1.95Y-1.39
X1.95Y-1.79
X3.16Y-1.82
X3.16Y-2.22
X2.15Y-1.38
X2.15Y-1.78
X2.14Y-0.86
X2.14Y-1.26
X3.24Y-0.64
X3.24Y-1.04
X3.33Y-1.82
X3.33Y-2.22
X3.52Y-1.82
X3.52Y-2.22
T5
X3.54Y-1.22
X3.54Y-1.32
X3.54Y-1.42
X1.79Y-1.24
X1.79Y-1.34
X1.79Y-1.44
X3.54Y-0.63
X3.54Y-0.73
X3.54Y-0.83
X3.54Y-0.93
X3.54Y-1.03
X3.21Y-1.32
X3.21Y-1.42
X1.8Y-1.94
X1.9Y-1.94
T6
X2.7441Y-0.6628
X2.7441Y-0.84
X3.Y-0.6628
X3.Y-0.84
X2.28Y-0.67
X2.28Y-0.8472
X2.5359Y-0.67
X2.5359Y-0.8472
T7
X2.13Y-2.25
X2.13Y-2.35
X2.13Y-2.45
T8
X2.83Y-2.35
T0
M30
