G04 #@! TF.GenerationSoftware,KiCad,Pcbnew,(5.0.1-3-g963ef8bb5)*
G04 #@! TF.CreationDate,2020-03-04T16:59:10-05:00*
G04 #@! TF.ProjectId,NeuMaE,4E65754D61452E6B696361645F706362,rev?*
G04 #@! TF.SameCoordinates,Original*
G04 #@! TF.FileFunction,Soldermask,Bot*
G04 #@! TF.FilePolarity,Negative*
%FSLAX46Y46*%
G04 Gerber Fmt 4.6, Leading zero omitted, Abs format (unit mm)*
G04 Created by KiCad (PCBNEW (5.0.1-3-g963ef8bb5)) date Wednesday, 04 March 2020 at 16:59:10*
%MOMM*%
%LPD*%
G01*
G04 APERTURE LIST*
G04 #@! TA.AperFunction,NonConductor*
%ADD10C,0.100000*%
G04 #@! TD*
G04 APERTURE END LIST*
D10*
G36*
X50481890Y-60302017D02*
X50600361Y-60351089D01*
X50600364Y-60351091D01*
X50684285Y-60407165D01*
X50706992Y-60422338D01*
X50797662Y-60513008D01*
X50868911Y-60619639D01*
X50917983Y-60738110D01*
X50943000Y-60863881D01*
X50943000Y-60992119D01*
X50917983Y-61117890D01*
X50868911Y-61236361D01*
X50797662Y-61342992D01*
X50706992Y-61433662D01*
X50600361Y-61504911D01*
X50481890Y-61553983D01*
X50356119Y-61579000D01*
X50227881Y-61579000D01*
X50102110Y-61553983D01*
X49983639Y-61504911D01*
X49877008Y-61433662D01*
X49786338Y-61342992D01*
X49715089Y-61236361D01*
X49666017Y-61117890D01*
X49641000Y-60992119D01*
X49641000Y-60863881D01*
X49666017Y-60738110D01*
X49715089Y-60619639D01*
X49786338Y-60513008D01*
X49877008Y-60422338D01*
X49899716Y-60407165D01*
X49983636Y-60351091D01*
X49983639Y-60351089D01*
X50102110Y-60302017D01*
X50227881Y-60277000D01*
X50356119Y-60277000D01*
X50481890Y-60302017D01*
X50481890Y-60302017D01*
G37*
G36*
X74024211Y-53945375D02*
X74726868Y-54236425D01*
X75359247Y-54658967D01*
X75897033Y-55196753D01*
X76319575Y-55829132D01*
X76610625Y-56531789D01*
X76759000Y-57277723D01*
X76759000Y-58038277D01*
X76610625Y-58784211D01*
X76319575Y-59486868D01*
X75897033Y-60119247D01*
X75359247Y-60657033D01*
X74726868Y-61079575D01*
X74024211Y-61370625D01*
X73278277Y-61519000D01*
X72517723Y-61519000D01*
X71771789Y-61370625D01*
X71069132Y-61079575D01*
X70436753Y-60657033D01*
X69898967Y-60119247D01*
X69476425Y-59486868D01*
X69185375Y-58784211D01*
X69037000Y-58038277D01*
X69037000Y-57277723D01*
X69185375Y-56531789D01*
X69476425Y-55829132D01*
X69898967Y-55196753D01*
X70436753Y-54658967D01*
X71069132Y-54236425D01*
X71771789Y-53945375D01*
X72517723Y-53797000D01*
X73278277Y-53797000D01*
X74024211Y-53945375D01*
X74024211Y-53945375D01*
G37*
G36*
X56249114Y-59137176D02*
X56343168Y-59146439D01*
X56544299Y-59207451D01*
X56576899Y-59224876D01*
X56729662Y-59306529D01*
X56892133Y-59439867D01*
X57025471Y-59602338D01*
X57107124Y-59755101D01*
X57124549Y-59787701D01*
X57185561Y-59988832D01*
X57206162Y-60198000D01*
X57185561Y-60407168D01*
X57124549Y-60608299D01*
X57107124Y-60640899D01*
X57025471Y-60793662D01*
X56892133Y-60956133D01*
X56729662Y-61089471D01*
X56576899Y-61171124D01*
X56544299Y-61188549D01*
X56343168Y-61249561D01*
X56249114Y-61258824D01*
X56186413Y-61265000D01*
X54049587Y-61265000D01*
X53986886Y-61258824D01*
X53892832Y-61249561D01*
X53691701Y-61188549D01*
X53659101Y-61171124D01*
X53506338Y-61089471D01*
X53343867Y-60956133D01*
X53210529Y-60793662D01*
X53128876Y-60640899D01*
X53111451Y-60608299D01*
X53050439Y-60407168D01*
X53029838Y-60198000D01*
X53050439Y-59988832D01*
X53111451Y-59787701D01*
X53128876Y-59755101D01*
X53210529Y-59602338D01*
X53343867Y-59439867D01*
X53506338Y-59306529D01*
X53659101Y-59224876D01*
X53691701Y-59207451D01*
X53892832Y-59146439D01*
X53986886Y-59137176D01*
X54049587Y-59131000D01*
X56186413Y-59131000D01*
X56249114Y-59137176D01*
X56249114Y-59137176D01*
G37*
G36*
X50943000Y-59579000D02*
X49641000Y-59579000D01*
X49641000Y-58277000D01*
X50943000Y-58277000D01*
X50943000Y-59579000D01*
X50943000Y-59579000D01*
G37*
G36*
X56249114Y-56597176D02*
X56343168Y-56606439D01*
X56544299Y-56667451D01*
X56576899Y-56684876D01*
X56729662Y-56766529D01*
X56892133Y-56899867D01*
X57025471Y-57062338D01*
X57068129Y-57142147D01*
X57124549Y-57247701D01*
X57185561Y-57448832D01*
X57206162Y-57658000D01*
X57185561Y-57867168D01*
X57124549Y-58068299D01*
X57124546Y-58068304D01*
X57025471Y-58253662D01*
X56892133Y-58416133D01*
X56729662Y-58549471D01*
X56576899Y-58631124D01*
X56544299Y-58648549D01*
X56343168Y-58709561D01*
X56249114Y-58718824D01*
X56186413Y-58725000D01*
X54049587Y-58725000D01*
X53986886Y-58718824D01*
X53892832Y-58709561D01*
X53691701Y-58648549D01*
X53659101Y-58631124D01*
X53506338Y-58549471D01*
X53343867Y-58416133D01*
X53210529Y-58253662D01*
X53111454Y-58068304D01*
X53111451Y-58068299D01*
X53050439Y-57867168D01*
X53029838Y-57658000D01*
X53050439Y-57448832D01*
X53111451Y-57247701D01*
X53167871Y-57142147D01*
X53210529Y-57062338D01*
X53343867Y-56899867D01*
X53506338Y-56766529D01*
X53659101Y-56684876D01*
X53691701Y-56667451D01*
X53892832Y-56606439D01*
X53986886Y-56597176D01*
X54049587Y-56591000D01*
X56186413Y-56591000D01*
X56249114Y-56597176D01*
X56249114Y-56597176D01*
G37*
G36*
X79496228Y-55569703D02*
X79651100Y-55633853D01*
X79790481Y-55726985D01*
X79909015Y-55845519D01*
X80002147Y-55984900D01*
X80066297Y-56139772D01*
X80099000Y-56304184D01*
X80099000Y-56471816D01*
X80066297Y-56636228D01*
X80002147Y-56791100D01*
X79909015Y-56930481D01*
X79790481Y-57049015D01*
X79651100Y-57142147D01*
X79496228Y-57206297D01*
X79331816Y-57239000D01*
X79164184Y-57239000D01*
X78999772Y-57206297D01*
X78844900Y-57142147D01*
X78705519Y-57049015D01*
X78586985Y-56930481D01*
X78493853Y-56791100D01*
X78429703Y-56636228D01*
X78397000Y-56471816D01*
X78397000Y-56304184D01*
X78429703Y-56139772D01*
X78493853Y-55984900D01*
X78586985Y-55845519D01*
X78705519Y-55726985D01*
X78844900Y-55633853D01*
X78999772Y-55569703D01*
X79164184Y-55537000D01*
X79331816Y-55537000D01*
X79496228Y-55569703D01*
X79496228Y-55569703D01*
G37*
G36*
X82716821Y-55549313D02*
X82716824Y-55549314D01*
X82716825Y-55549314D01*
X82877239Y-55597975D01*
X82877241Y-55597976D01*
X82877244Y-55597977D01*
X83025078Y-55676995D01*
X83154659Y-55783341D01*
X83261005Y-55912922D01*
X83340023Y-56060756D01*
X83340024Y-56060759D01*
X83340025Y-56060761D01*
X83373029Y-56169561D01*
X83388687Y-56221179D01*
X83405117Y-56388000D01*
X83388687Y-56554821D01*
X83388686Y-56554824D01*
X83388686Y-56554825D01*
X83363993Y-56636228D01*
X83340023Y-56715244D01*
X83261005Y-56863078D01*
X83154659Y-56992659D01*
X83025078Y-57099005D01*
X82877244Y-57178023D01*
X82877241Y-57178024D01*
X82877239Y-57178025D01*
X82716825Y-57226686D01*
X82716824Y-57226686D01*
X82716821Y-57226687D01*
X82591804Y-57239000D01*
X82508196Y-57239000D01*
X82383179Y-57226687D01*
X82383176Y-57226686D01*
X82383175Y-57226686D01*
X82222761Y-57178025D01*
X82222759Y-57178024D01*
X82222756Y-57178023D01*
X82074922Y-57099005D01*
X81945341Y-56992659D01*
X81838995Y-56863078D01*
X81759977Y-56715244D01*
X81736008Y-56636228D01*
X81711314Y-56554825D01*
X81711314Y-56554824D01*
X81711313Y-56554821D01*
X81694883Y-56388000D01*
X81711313Y-56221179D01*
X81726971Y-56169561D01*
X81759975Y-56060761D01*
X81759976Y-56060759D01*
X81759977Y-56060756D01*
X81838995Y-55912922D01*
X81945341Y-55783341D01*
X82074922Y-55676995D01*
X82222756Y-55597977D01*
X82222759Y-55597976D01*
X82222761Y-55597975D01*
X82383175Y-55549314D01*
X82383176Y-55549314D01*
X82383179Y-55549313D01*
X82508196Y-55537000D01*
X82591804Y-55537000D01*
X82716821Y-55549313D01*
X82716821Y-55549313D01*
G37*
G36*
X86100228Y-55569703D02*
X86255100Y-55633853D01*
X86394481Y-55726985D01*
X86513015Y-55845519D01*
X86606147Y-55984900D01*
X86670297Y-56139772D01*
X86703000Y-56304184D01*
X86703000Y-56471816D01*
X86670297Y-56636228D01*
X86606147Y-56791100D01*
X86513015Y-56930481D01*
X86394481Y-57049015D01*
X86255100Y-57142147D01*
X86100228Y-57206297D01*
X85935816Y-57239000D01*
X85768184Y-57239000D01*
X85603772Y-57206297D01*
X85448900Y-57142147D01*
X85309519Y-57049015D01*
X85190985Y-56930481D01*
X85097853Y-56791100D01*
X85033703Y-56636228D01*
X85001000Y-56471816D01*
X85001000Y-56304184D01*
X85033703Y-56139772D01*
X85097853Y-55984900D01*
X85190985Y-55845519D01*
X85309519Y-55726985D01*
X85448900Y-55633853D01*
X85603772Y-55569703D01*
X85768184Y-55537000D01*
X85935816Y-55537000D01*
X86100228Y-55569703D01*
X86100228Y-55569703D01*
G37*
G36*
X56249114Y-54057176D02*
X56343168Y-54066439D01*
X56544299Y-54127451D01*
X56576899Y-54144876D01*
X56729662Y-54226529D01*
X56892133Y-54359867D01*
X57025471Y-54522338D01*
X57098499Y-54658965D01*
X57124549Y-54707701D01*
X57185561Y-54908832D01*
X57206162Y-55118000D01*
X57185561Y-55327168D01*
X57124549Y-55528299D01*
X57124546Y-55528304D01*
X57025471Y-55713662D01*
X56892133Y-55876133D01*
X56729662Y-56009471D01*
X56576899Y-56091124D01*
X56544299Y-56108549D01*
X56343168Y-56169561D01*
X56249114Y-56178824D01*
X56186413Y-56185000D01*
X54049587Y-56185000D01*
X53986886Y-56178824D01*
X53892832Y-56169561D01*
X53691701Y-56108549D01*
X53659101Y-56091124D01*
X53506338Y-56009471D01*
X53343867Y-55876133D01*
X53210529Y-55713662D01*
X53111454Y-55528304D01*
X53111451Y-55528299D01*
X53050439Y-55327168D01*
X53029838Y-55118000D01*
X53050439Y-54908832D01*
X53111451Y-54707701D01*
X53137501Y-54658965D01*
X53210529Y-54522338D01*
X53343867Y-54359867D01*
X53506338Y-54226529D01*
X53659101Y-54144876D01*
X53691701Y-54127451D01*
X53892832Y-54066439D01*
X53986886Y-54057176D01*
X54049587Y-54051000D01*
X56186413Y-54051000D01*
X56249114Y-54057176D01*
X56249114Y-54057176D01*
G37*
G36*
X51418443Y-50413519D02*
X51484627Y-50420037D01*
X51597853Y-50454384D01*
X51654467Y-50471557D01*
X51793087Y-50545652D01*
X51810991Y-50555222D01*
X51841143Y-50579967D01*
X51948186Y-50667814D01*
X52031448Y-50769271D01*
X52060778Y-50805009D01*
X52060779Y-50805011D01*
X52144443Y-50961533D01*
X52144443Y-50961534D01*
X52195963Y-51131373D01*
X52213359Y-51308000D01*
X52195963Y-51484627D01*
X52161616Y-51597853D01*
X52144443Y-51654467D01*
X52070348Y-51793087D01*
X52060778Y-51810991D01*
X52031448Y-51846729D01*
X51948186Y-51948186D01*
X51846729Y-52031448D01*
X51810991Y-52060778D01*
X51810989Y-52060779D01*
X51654467Y-52144443D01*
X51597853Y-52161616D01*
X51484627Y-52195963D01*
X51418443Y-52202481D01*
X51352260Y-52209000D01*
X51263740Y-52209000D01*
X51197557Y-52202481D01*
X51131373Y-52195963D01*
X51018147Y-52161616D01*
X50961533Y-52144443D01*
X50805011Y-52060779D01*
X50805009Y-52060778D01*
X50769271Y-52031448D01*
X50667814Y-51948186D01*
X50584552Y-51846729D01*
X50555222Y-51810991D01*
X50545652Y-51793087D01*
X50471557Y-51654467D01*
X50454384Y-51597853D01*
X50420037Y-51484627D01*
X50402641Y-51308000D01*
X50420037Y-51131373D01*
X50471557Y-50961534D01*
X50471557Y-50961533D01*
X50555221Y-50805011D01*
X50555222Y-50805009D01*
X50584552Y-50769271D01*
X50667814Y-50667814D01*
X50774857Y-50579967D01*
X50805009Y-50555222D01*
X50822913Y-50545652D01*
X50961533Y-50471557D01*
X51018147Y-50454384D01*
X51131373Y-50420037D01*
X51197558Y-50413518D01*
X51263740Y-50407000D01*
X51352260Y-50407000D01*
X51418443Y-50413519D01*
X51418443Y-50413519D01*
G37*
G36*
X54996004Y-49766544D02*
X55083059Y-49783860D01*
X55219732Y-49840472D01*
X55219733Y-49840473D01*
X55342738Y-49922662D01*
X55447338Y-50027262D01*
X55447340Y-50027265D01*
X55529528Y-50150268D01*
X55586140Y-50286941D01*
X55615000Y-50432033D01*
X55615000Y-50579967D01*
X55586140Y-50725059D01*
X55529528Y-50861732D01*
X55529527Y-50861733D01*
X55447338Y-50984738D01*
X55342738Y-51089338D01*
X55342735Y-51089340D01*
X55219732Y-51171528D01*
X55083059Y-51228140D01*
X54996004Y-51245456D01*
X54937969Y-51257000D01*
X54790031Y-51257000D01*
X54731996Y-51245456D01*
X54644941Y-51228140D01*
X54508268Y-51171528D01*
X54385265Y-51089340D01*
X54385262Y-51089338D01*
X54280662Y-50984738D01*
X54198473Y-50861733D01*
X54198472Y-50861732D01*
X54141860Y-50725059D01*
X54113000Y-50579967D01*
X54113000Y-50432033D01*
X54141860Y-50286941D01*
X54198472Y-50150268D01*
X54280660Y-50027265D01*
X54280662Y-50027262D01*
X54385262Y-49922662D01*
X54508267Y-49840473D01*
X54508268Y-49840472D01*
X54644941Y-49783860D01*
X54731996Y-49766544D01*
X54790031Y-49755000D01*
X54937969Y-49755000D01*
X54996004Y-49766544D01*
X54996004Y-49766544D01*
G37*
G36*
X52209000Y-49669000D02*
X50407000Y-49669000D01*
X50407000Y-47867000D01*
X52209000Y-47867000D01*
X52209000Y-49669000D01*
X52209000Y-49669000D01*
G37*
G36*
X54996004Y-47266544D02*
X55083059Y-47283860D01*
X55219732Y-47340472D01*
X55219733Y-47340473D01*
X55342738Y-47422662D01*
X55447338Y-47527262D01*
X55447340Y-47527265D01*
X55529528Y-47650268D01*
X55586140Y-47786941D01*
X55615000Y-47932033D01*
X55615000Y-48079967D01*
X55586140Y-48225059D01*
X55529528Y-48361732D01*
X55529527Y-48361733D01*
X55447338Y-48484738D01*
X55342738Y-48589338D01*
X55342735Y-48589340D01*
X55219732Y-48671528D01*
X55083059Y-48728140D01*
X54996004Y-48745456D01*
X54937969Y-48757000D01*
X54790031Y-48757000D01*
X54731996Y-48745456D01*
X54644941Y-48728140D01*
X54508268Y-48671528D01*
X54385265Y-48589340D01*
X54385262Y-48589338D01*
X54280662Y-48484738D01*
X54198473Y-48361733D01*
X54198472Y-48361732D01*
X54141860Y-48225059D01*
X54113000Y-48079967D01*
X54113000Y-47932033D01*
X54141860Y-47786941D01*
X54198472Y-47650268D01*
X54280660Y-47527265D01*
X54280662Y-47527262D01*
X54385262Y-47422662D01*
X54508267Y-47340473D01*
X54508268Y-47340472D01*
X54644941Y-47283860D01*
X54731996Y-47266544D01*
X54790031Y-47255000D01*
X54937969Y-47255000D01*
X54996004Y-47266544D01*
X54996004Y-47266544D01*
G37*
G36*
X79414821Y-45389313D02*
X79414824Y-45389314D01*
X79414825Y-45389314D01*
X79575239Y-45437975D01*
X79575241Y-45437976D01*
X79575244Y-45437977D01*
X79723078Y-45516995D01*
X79852659Y-45623341D01*
X79959005Y-45752922D01*
X80038023Y-45900756D01*
X80038024Y-45900759D01*
X80038025Y-45900761D01*
X80070701Y-46008481D01*
X80086687Y-46061179D01*
X80103117Y-46228000D01*
X80086687Y-46394821D01*
X80086686Y-46394824D01*
X80086686Y-46394825D01*
X80061993Y-46476228D01*
X80038023Y-46555244D01*
X79959005Y-46703078D01*
X79852659Y-46832659D01*
X79723078Y-46939005D01*
X79575244Y-47018023D01*
X79575241Y-47018024D01*
X79575239Y-47018025D01*
X79414825Y-47066686D01*
X79414824Y-47066686D01*
X79414821Y-47066687D01*
X79289804Y-47079000D01*
X79206196Y-47079000D01*
X79081179Y-47066687D01*
X79081176Y-47066686D01*
X79081175Y-47066686D01*
X78920761Y-47018025D01*
X78920759Y-47018024D01*
X78920756Y-47018023D01*
X78772922Y-46939005D01*
X78643341Y-46832659D01*
X78536995Y-46703078D01*
X78457977Y-46555244D01*
X78434008Y-46476228D01*
X78409314Y-46394825D01*
X78409314Y-46394824D01*
X78409313Y-46394821D01*
X78392883Y-46228000D01*
X78409313Y-46061179D01*
X78425299Y-46008481D01*
X78457975Y-45900761D01*
X78457976Y-45900759D01*
X78457977Y-45900756D01*
X78536995Y-45752922D01*
X78643341Y-45623341D01*
X78772922Y-45516995D01*
X78920756Y-45437977D01*
X78920759Y-45437976D01*
X78920761Y-45437975D01*
X79081175Y-45389314D01*
X79081176Y-45389314D01*
X79081179Y-45389313D01*
X79206196Y-45377000D01*
X79289804Y-45377000D01*
X79414821Y-45389313D01*
X79414821Y-45389313D01*
G37*
G36*
X86018821Y-45389313D02*
X86018824Y-45389314D01*
X86018825Y-45389314D01*
X86179239Y-45437975D01*
X86179241Y-45437976D01*
X86179244Y-45437977D01*
X86327078Y-45516995D01*
X86456659Y-45623341D01*
X86563005Y-45752922D01*
X86642023Y-45900756D01*
X86642024Y-45900759D01*
X86642025Y-45900761D01*
X86674701Y-46008481D01*
X86690687Y-46061179D01*
X86707117Y-46228000D01*
X86690687Y-46394821D01*
X86690686Y-46394824D01*
X86690686Y-46394825D01*
X86665993Y-46476228D01*
X86642023Y-46555244D01*
X86563005Y-46703078D01*
X86456659Y-46832659D01*
X86327078Y-46939005D01*
X86179244Y-47018023D01*
X86179241Y-47018024D01*
X86179239Y-47018025D01*
X86018825Y-47066686D01*
X86018824Y-47066686D01*
X86018821Y-47066687D01*
X85893804Y-47079000D01*
X85810196Y-47079000D01*
X85685179Y-47066687D01*
X85685176Y-47066686D01*
X85685175Y-47066686D01*
X85524761Y-47018025D01*
X85524759Y-47018024D01*
X85524756Y-47018023D01*
X85376922Y-46939005D01*
X85247341Y-46832659D01*
X85140995Y-46703078D01*
X85061977Y-46555244D01*
X85038008Y-46476228D01*
X85013314Y-46394825D01*
X85013314Y-46394824D01*
X85013313Y-46394821D01*
X84996883Y-46228000D01*
X85013313Y-46061179D01*
X85029299Y-46008481D01*
X85061975Y-45900761D01*
X85061976Y-45900759D01*
X85061977Y-45900756D01*
X85140995Y-45752922D01*
X85247341Y-45623341D01*
X85376922Y-45516995D01*
X85524756Y-45437977D01*
X85524759Y-45437976D01*
X85524761Y-45437975D01*
X85685175Y-45389314D01*
X85685176Y-45389314D01*
X85685179Y-45389313D01*
X85810196Y-45377000D01*
X85893804Y-45377000D01*
X86018821Y-45389313D01*
X86018821Y-45389313D01*
G37*
G36*
X82798228Y-45409703D02*
X82953100Y-45473853D01*
X83092481Y-45566985D01*
X83211015Y-45685519D01*
X83304147Y-45824900D01*
X83368297Y-45979772D01*
X83401000Y-46144184D01*
X83401000Y-46311816D01*
X83368297Y-46476228D01*
X83304147Y-46631100D01*
X83211015Y-46770481D01*
X83092481Y-46889015D01*
X82953100Y-46982147D01*
X82798228Y-47046297D01*
X82633816Y-47079000D01*
X82466184Y-47079000D01*
X82301772Y-47046297D01*
X82146900Y-46982147D01*
X82007519Y-46889015D01*
X81888985Y-46770481D01*
X81795853Y-46631100D01*
X81731703Y-46476228D01*
X81699000Y-46311816D01*
X81699000Y-46144184D01*
X81731703Y-45979772D01*
X81795853Y-45824900D01*
X81888985Y-45685519D01*
X82007519Y-45566985D01*
X82146900Y-45473853D01*
X82301772Y-45409703D01*
X82466184Y-45377000D01*
X82633816Y-45377000D01*
X82798228Y-45409703D01*
X82798228Y-45409703D01*
G37*
G36*
X57570821Y-44627313D02*
X57570824Y-44627314D01*
X57570825Y-44627314D01*
X57731239Y-44675975D01*
X57731241Y-44675976D01*
X57731244Y-44675977D01*
X57879078Y-44754995D01*
X58008659Y-44861341D01*
X58115005Y-44990922D01*
X58194023Y-45138756D01*
X58194024Y-45138759D01*
X58194025Y-45138761D01*
X58242686Y-45299175D01*
X58242687Y-45299179D01*
X58259117Y-45466000D01*
X58242687Y-45632821D01*
X58242686Y-45632824D01*
X58242686Y-45632825D01*
X58217993Y-45714228D01*
X58194023Y-45793244D01*
X58115005Y-45941078D01*
X58008659Y-46070659D01*
X57879078Y-46177005D01*
X57731244Y-46256023D01*
X57731241Y-46256024D01*
X57731239Y-46256025D01*
X57570825Y-46304686D01*
X57570824Y-46304686D01*
X57570821Y-46304687D01*
X57445804Y-46317000D01*
X57362196Y-46317000D01*
X57237179Y-46304687D01*
X57237176Y-46304686D01*
X57237175Y-46304686D01*
X57076761Y-46256025D01*
X57076759Y-46256024D01*
X57076756Y-46256023D01*
X56928922Y-46177005D01*
X56799341Y-46070659D01*
X56692995Y-45941078D01*
X56613977Y-45793244D01*
X56590008Y-45714228D01*
X56565314Y-45632825D01*
X56565314Y-45632824D01*
X56565313Y-45632821D01*
X56548883Y-45466000D01*
X56565313Y-45299179D01*
X56565314Y-45299175D01*
X56613975Y-45138761D01*
X56613976Y-45138759D01*
X56613977Y-45138756D01*
X56692995Y-44990922D01*
X56799341Y-44861341D01*
X56928922Y-44754995D01*
X57076756Y-44675977D01*
X57076759Y-44675976D01*
X57076761Y-44675975D01*
X57237175Y-44627314D01*
X57237176Y-44627314D01*
X57237179Y-44627313D01*
X57362196Y-44615000D01*
X57445804Y-44615000D01*
X57570821Y-44627313D01*
X57570821Y-44627313D01*
G37*
G36*
X54096228Y-44647703D02*
X54251100Y-44711853D01*
X54390481Y-44804985D01*
X54509015Y-44923519D01*
X54602147Y-45062900D01*
X54666297Y-45217772D01*
X54699000Y-45382184D01*
X54699000Y-45549816D01*
X54666297Y-45714228D01*
X54602147Y-45869100D01*
X54509015Y-46008481D01*
X54390481Y-46127015D01*
X54251100Y-46220147D01*
X54096228Y-46284297D01*
X53931816Y-46317000D01*
X53764184Y-46317000D01*
X53599772Y-46284297D01*
X53444900Y-46220147D01*
X53305519Y-46127015D01*
X53186985Y-46008481D01*
X53093853Y-45869100D01*
X53029703Y-45714228D01*
X52997000Y-45549816D01*
X52997000Y-45382184D01*
X53029703Y-45217772D01*
X53093853Y-45062900D01*
X53186985Y-44923519D01*
X53305519Y-44804985D01*
X53444900Y-44711853D01*
X53599772Y-44647703D01*
X53764184Y-44615000D01*
X53931816Y-44615000D01*
X54096228Y-44647703D01*
X54096228Y-44647703D01*
G37*
G36*
X85129000Y-41470000D02*
X84964664Y-41470000D01*
X84940278Y-41472402D01*
X84916829Y-41479515D01*
X84895218Y-41491066D01*
X84876276Y-41506612D01*
X84860730Y-41525554D01*
X84849179Y-41547165D01*
X84842066Y-41570614D01*
X84839664Y-41595000D01*
X84842066Y-41619386D01*
X84849179Y-41642835D01*
X84860730Y-41664446D01*
X84885365Y-41691626D01*
X84962264Y-41754736D01*
X85034244Y-41842443D01*
X85087729Y-41942508D01*
X85120666Y-42051084D01*
X85131787Y-42164000D01*
X85120666Y-42276916D01*
X85087729Y-42385492D01*
X85087726Y-42385497D01*
X85034244Y-42485557D01*
X84962264Y-42573264D01*
X84874557Y-42645244D01*
X84793143Y-42688760D01*
X84772768Y-42702373D01*
X84755441Y-42719701D01*
X84741827Y-42740075D01*
X84732450Y-42762714D01*
X84727669Y-42786747D01*
X84727669Y-42811252D01*
X84732449Y-42835285D01*
X84741827Y-42857924D01*
X84755440Y-42878299D01*
X84772768Y-42895626D01*
X84793143Y-42909240D01*
X84874557Y-42952756D01*
X84962264Y-43024736D01*
X85034244Y-43112443D01*
X85087729Y-43212508D01*
X85120666Y-43321084D01*
X85131787Y-43434000D01*
X85120666Y-43546916D01*
X85087729Y-43655492D01*
X85034244Y-43755557D01*
X84962264Y-43843264D01*
X84874557Y-43915244D01*
X84774492Y-43968729D01*
X84665916Y-44001666D01*
X84581298Y-44010000D01*
X84074702Y-44010000D01*
X83990084Y-44001666D01*
X83881508Y-43968729D01*
X83781443Y-43915244D01*
X83693736Y-43843264D01*
X83621756Y-43755557D01*
X83568271Y-43655492D01*
X83535334Y-43546916D01*
X83524213Y-43434000D01*
X83535334Y-43321084D01*
X83568271Y-43212508D01*
X83621756Y-43112443D01*
X83693736Y-43024736D01*
X83781443Y-42952756D01*
X83862857Y-42909240D01*
X83883232Y-42895627D01*
X83900559Y-42878299D01*
X83914173Y-42857925D01*
X83923550Y-42835286D01*
X83928331Y-42811253D01*
X83928331Y-42786748D01*
X83923551Y-42762715D01*
X83914173Y-42740076D01*
X83900560Y-42719701D01*
X83883232Y-42702374D01*
X83862857Y-42688760D01*
X83781443Y-42645244D01*
X83693736Y-42573264D01*
X83621756Y-42485557D01*
X83568274Y-42385497D01*
X83568271Y-42385492D01*
X83535334Y-42276916D01*
X83524213Y-42164000D01*
X83535334Y-42051084D01*
X83568271Y-41942508D01*
X83621756Y-41842443D01*
X83693736Y-41754736D01*
X83770635Y-41691626D01*
X83787962Y-41674299D01*
X83801576Y-41653924D01*
X83810954Y-41631285D01*
X83815734Y-41607252D01*
X83815734Y-41582748D01*
X83810953Y-41558714D01*
X83801576Y-41536075D01*
X83787962Y-41515701D01*
X83770635Y-41498374D01*
X83750260Y-41484760D01*
X83727621Y-41475382D01*
X83691336Y-41470000D01*
X83527000Y-41470000D01*
X83527000Y-40318000D01*
X85129000Y-40318000D01*
X85129000Y-41470000D01*
X85129000Y-41470000D01*
G37*
G36*
X50148442Y-42031518D02*
X50214627Y-42038037D01*
X50327853Y-42072384D01*
X50384467Y-42089557D01*
X50523087Y-42163652D01*
X50540991Y-42173222D01*
X50576729Y-42202552D01*
X50678186Y-42285814D01*
X50761448Y-42387271D01*
X50790778Y-42423009D01*
X50790779Y-42423011D01*
X50874443Y-42579533D01*
X50874443Y-42579534D01*
X50925963Y-42749373D01*
X50943359Y-42926000D01*
X50925963Y-43102627D01*
X50922985Y-43112443D01*
X50874443Y-43272467D01*
X50848456Y-43321084D01*
X50790778Y-43428991D01*
X50786667Y-43434000D01*
X50678186Y-43566186D01*
X50576729Y-43649448D01*
X50540991Y-43678778D01*
X50540989Y-43678779D01*
X50384467Y-43762443D01*
X50327853Y-43779616D01*
X50214627Y-43813963D01*
X50148442Y-43820482D01*
X50082260Y-43827000D01*
X49993740Y-43827000D01*
X49927558Y-43820482D01*
X49861373Y-43813963D01*
X49748147Y-43779616D01*
X49691533Y-43762443D01*
X49535011Y-43678779D01*
X49535009Y-43678778D01*
X49499271Y-43649448D01*
X49397814Y-43566186D01*
X49289333Y-43434000D01*
X49285222Y-43428991D01*
X49227544Y-43321084D01*
X49201557Y-43272467D01*
X49153015Y-43112443D01*
X49150037Y-43102627D01*
X49132641Y-42926000D01*
X49150037Y-42749373D01*
X49201557Y-42579534D01*
X49201557Y-42579533D01*
X49285221Y-42423011D01*
X49285222Y-42423009D01*
X49314552Y-42387271D01*
X49397814Y-42285814D01*
X49499271Y-42202552D01*
X49535009Y-42173222D01*
X49552913Y-42163652D01*
X49691533Y-42089557D01*
X49748147Y-42072384D01*
X49861373Y-42038037D01*
X49927558Y-42031518D01*
X49993740Y-42025000D01*
X50082260Y-42025000D01*
X50148442Y-42031518D01*
X50148442Y-42031518D01*
G37*
G36*
X50148443Y-39491519D02*
X50214627Y-39498037D01*
X50327853Y-39532384D01*
X50384467Y-39549557D01*
X50523087Y-39623652D01*
X50540991Y-39633222D01*
X50576729Y-39662552D01*
X50678186Y-39745814D01*
X50761448Y-39847271D01*
X50790778Y-39883009D01*
X50790779Y-39883011D01*
X50874443Y-40039533D01*
X50874443Y-40039534D01*
X50925963Y-40209373D01*
X50943359Y-40386000D01*
X50925963Y-40562627D01*
X50891616Y-40675853D01*
X50874443Y-40732467D01*
X50800348Y-40871087D01*
X50790778Y-40888991D01*
X50761448Y-40924729D01*
X50678186Y-41026186D01*
X50576729Y-41109448D01*
X50540991Y-41138778D01*
X50540989Y-41138779D01*
X50384467Y-41222443D01*
X50327853Y-41239616D01*
X50214627Y-41273963D01*
X50148443Y-41280481D01*
X50082260Y-41287000D01*
X49993740Y-41287000D01*
X49927557Y-41280481D01*
X49861373Y-41273963D01*
X49748147Y-41239616D01*
X49691533Y-41222443D01*
X49535011Y-41138779D01*
X49535009Y-41138778D01*
X49499271Y-41109448D01*
X49397814Y-41026186D01*
X49314552Y-40924729D01*
X49285222Y-40888991D01*
X49275652Y-40871087D01*
X49201557Y-40732467D01*
X49184384Y-40675853D01*
X49150037Y-40562627D01*
X49132641Y-40386000D01*
X49150037Y-40209373D01*
X49201557Y-40039534D01*
X49201557Y-40039533D01*
X49285221Y-39883011D01*
X49285222Y-39883009D01*
X49314552Y-39847271D01*
X49397814Y-39745814D01*
X49499271Y-39662552D01*
X49535009Y-39633222D01*
X49552913Y-39623652D01*
X49691533Y-39549557D01*
X49748147Y-39532384D01*
X49861373Y-39498037D01*
X49927557Y-39491519D01*
X49993740Y-39485000D01*
X50082260Y-39485000D01*
X50148443Y-39491519D01*
X50148443Y-39491519D01*
G37*
G36*
X50939000Y-38747000D02*
X49137000Y-38747000D01*
X49137000Y-36945000D01*
X50939000Y-36945000D01*
X50939000Y-38747000D01*
X50939000Y-38747000D01*
G37*
G36*
X86245000Y-38239000D02*
X84443000Y-38239000D01*
X84443000Y-36437000D01*
X86245000Y-36437000D01*
X86245000Y-38239000D01*
X86245000Y-38239000D01*
G37*
G36*
X79358442Y-35173518D02*
X79424627Y-35180037D01*
X79537853Y-35214384D01*
X79594467Y-35231557D01*
X79724363Y-35300989D01*
X79750991Y-35315222D01*
X79786729Y-35344552D01*
X79888186Y-35427814D01*
X79971448Y-35529271D01*
X80000778Y-35565009D01*
X80000779Y-35565011D01*
X80084443Y-35721533D01*
X80084443Y-35721534D01*
X80135963Y-35891373D01*
X80153359Y-36068000D01*
X80135963Y-36244627D01*
X80101616Y-36357853D01*
X80084443Y-36414467D01*
X80010348Y-36553087D01*
X80000778Y-36570991D01*
X79971448Y-36606729D01*
X79888186Y-36708186D01*
X79786729Y-36791448D01*
X79750991Y-36820778D01*
X79750989Y-36820779D01*
X79594467Y-36904443D01*
X79537853Y-36921616D01*
X79424627Y-36955963D01*
X79358442Y-36962482D01*
X79292260Y-36969000D01*
X79203740Y-36969000D01*
X79137558Y-36962482D01*
X79071373Y-36955963D01*
X78958147Y-36921616D01*
X78901533Y-36904443D01*
X78745011Y-36820779D01*
X78745009Y-36820778D01*
X78709271Y-36791448D01*
X78607814Y-36708186D01*
X78524552Y-36606729D01*
X78495222Y-36570991D01*
X78485652Y-36553087D01*
X78411557Y-36414467D01*
X78394384Y-36357853D01*
X78360037Y-36244627D01*
X78342641Y-36068000D01*
X78360037Y-35891373D01*
X78411557Y-35721534D01*
X78411557Y-35721533D01*
X78495221Y-35565011D01*
X78495222Y-35565009D01*
X78524552Y-35529271D01*
X78607814Y-35427814D01*
X78709271Y-35344552D01*
X78745009Y-35315222D01*
X78771637Y-35300989D01*
X78901533Y-35231557D01*
X78958147Y-35214384D01*
X79071373Y-35180037D01*
X79137558Y-35173518D01*
X79203740Y-35167000D01*
X79292260Y-35167000D01*
X79358442Y-35173518D01*
X79358442Y-35173518D01*
G37*
G36*
X54014821Y-34467313D02*
X54014824Y-34467314D01*
X54014825Y-34467314D01*
X54175239Y-34515975D01*
X54175241Y-34515976D01*
X54175244Y-34515977D01*
X54323078Y-34594995D01*
X54452659Y-34701341D01*
X54559005Y-34830922D01*
X54638023Y-34978756D01*
X54638024Y-34978759D01*
X54638025Y-34978761D01*
X54686686Y-35139175D01*
X54686687Y-35139179D01*
X54703117Y-35306000D01*
X54686687Y-35472821D01*
X54686686Y-35472824D01*
X54686686Y-35472825D01*
X54658722Y-35565011D01*
X54638023Y-35633244D01*
X54559005Y-35781078D01*
X54452659Y-35910659D01*
X54323078Y-36017005D01*
X54175244Y-36096023D01*
X54175241Y-36096024D01*
X54175239Y-36096025D01*
X54014825Y-36144686D01*
X54014824Y-36144686D01*
X54014821Y-36144687D01*
X53889804Y-36157000D01*
X53806196Y-36157000D01*
X53681179Y-36144687D01*
X53681176Y-36144686D01*
X53681175Y-36144686D01*
X53520761Y-36096025D01*
X53520759Y-36096024D01*
X53520756Y-36096023D01*
X53372922Y-36017005D01*
X53243341Y-35910659D01*
X53136995Y-35781078D01*
X53057977Y-35633244D01*
X53037279Y-35565011D01*
X53009314Y-35472825D01*
X53009314Y-35472824D01*
X53009313Y-35472821D01*
X52992883Y-35306000D01*
X53009313Y-35139179D01*
X53009314Y-35139175D01*
X53057975Y-34978761D01*
X53057976Y-34978759D01*
X53057977Y-34978756D01*
X53136995Y-34830922D01*
X53243341Y-34701341D01*
X53372922Y-34594995D01*
X53520756Y-34515977D01*
X53520759Y-34515976D01*
X53520761Y-34515975D01*
X53681175Y-34467314D01*
X53681176Y-34467314D01*
X53681179Y-34467313D01*
X53806196Y-34455000D01*
X53889804Y-34455000D01*
X54014821Y-34467313D01*
X54014821Y-34467313D01*
G37*
G36*
X57652228Y-34487703D02*
X57807100Y-34551853D01*
X57946481Y-34644985D01*
X58065015Y-34763519D01*
X58158147Y-34902900D01*
X58222297Y-35057772D01*
X58255000Y-35222184D01*
X58255000Y-35389816D01*
X58222297Y-35554228D01*
X58158147Y-35709100D01*
X58065015Y-35848481D01*
X57946481Y-35967015D01*
X57807100Y-36060147D01*
X57652228Y-36124297D01*
X57487816Y-36157000D01*
X57320184Y-36157000D01*
X57155772Y-36124297D01*
X57000900Y-36060147D01*
X56861519Y-35967015D01*
X56742985Y-35848481D01*
X56649853Y-35709100D01*
X56585703Y-35554228D01*
X56553000Y-35389816D01*
X56553000Y-35222184D01*
X56585703Y-35057772D01*
X56649853Y-34902900D01*
X56742985Y-34763519D01*
X56861519Y-34644985D01*
X57000900Y-34551853D01*
X57155772Y-34487703D01*
X57320184Y-34455000D01*
X57487816Y-34455000D01*
X57652228Y-34487703D01*
X57652228Y-34487703D01*
G37*
G36*
X85454443Y-33903519D02*
X85520627Y-33910037D01*
X85633853Y-33944384D01*
X85690467Y-33961557D01*
X85829087Y-34035652D01*
X85846991Y-34045222D01*
X85882729Y-34074552D01*
X85984186Y-34157814D01*
X86067448Y-34259271D01*
X86096778Y-34295009D01*
X86096779Y-34295011D01*
X86180443Y-34451533D01*
X86185230Y-34467314D01*
X86231963Y-34621373D01*
X86249359Y-34798000D01*
X86231963Y-34974627D01*
X86206741Y-35057772D01*
X86180443Y-35144467D01*
X86161430Y-35180037D01*
X86096778Y-35300991D01*
X86067448Y-35336729D01*
X85984186Y-35438186D01*
X85882729Y-35521448D01*
X85846991Y-35550778D01*
X85829087Y-35560348D01*
X85690467Y-35634443D01*
X85633853Y-35651616D01*
X85520627Y-35685963D01*
X85454442Y-35692482D01*
X85388260Y-35699000D01*
X85299740Y-35699000D01*
X85233558Y-35692482D01*
X85167373Y-35685963D01*
X85054147Y-35651616D01*
X84997533Y-35634443D01*
X84858913Y-35560348D01*
X84841009Y-35550778D01*
X84805271Y-35521448D01*
X84703814Y-35438186D01*
X84620552Y-35336729D01*
X84591222Y-35300991D01*
X84526570Y-35180037D01*
X84507557Y-35144467D01*
X84481259Y-35057772D01*
X84456037Y-34974627D01*
X84438641Y-34798000D01*
X84456037Y-34621373D01*
X84502770Y-34467314D01*
X84507557Y-34451533D01*
X84591221Y-34295011D01*
X84591222Y-34295009D01*
X84620552Y-34259271D01*
X84703814Y-34157814D01*
X84805271Y-34074552D01*
X84841009Y-34045222D01*
X84858913Y-34035652D01*
X84997533Y-33961557D01*
X85054147Y-33944384D01*
X85167373Y-33910037D01*
X85233557Y-33903519D01*
X85299740Y-33897000D01*
X85388260Y-33897000D01*
X85454443Y-33903519D01*
X85454443Y-33903519D01*
G37*
G36*
X80149000Y-34429000D02*
X78347000Y-34429000D01*
X78347000Y-32627000D01*
X80149000Y-32627000D01*
X80149000Y-34429000D01*
X80149000Y-34429000D01*
G37*
G36*
X53588228Y-31947703D02*
X53743100Y-32011853D01*
X53882481Y-32104985D01*
X54001015Y-32223519D01*
X54094147Y-32362900D01*
X54158297Y-32517772D01*
X54191000Y-32682184D01*
X54191000Y-32849816D01*
X54158297Y-33014228D01*
X54094147Y-33169100D01*
X54001015Y-33308481D01*
X53882481Y-33427015D01*
X53743100Y-33520147D01*
X53588228Y-33584297D01*
X53423816Y-33617000D01*
X53256184Y-33617000D01*
X53091772Y-33584297D01*
X52936900Y-33520147D01*
X52797519Y-33427015D01*
X52678985Y-33308481D01*
X52585853Y-33169100D01*
X52521703Y-33014228D01*
X52489000Y-32849816D01*
X52489000Y-32682184D01*
X52521703Y-32517772D01*
X52585853Y-32362900D01*
X52678985Y-32223519D01*
X52797519Y-32104985D01*
X52936900Y-32011853D01*
X53091772Y-31947703D01*
X53256184Y-31915000D01*
X53423816Y-31915000D01*
X53588228Y-31947703D01*
X53588228Y-31947703D01*
G37*
G36*
X56890228Y-31947703D02*
X57045100Y-32011853D01*
X57184481Y-32104985D01*
X57303015Y-32223519D01*
X57396147Y-32362900D01*
X57460297Y-32517772D01*
X57493000Y-32682184D01*
X57493000Y-32849816D01*
X57460297Y-33014228D01*
X57396147Y-33169100D01*
X57303015Y-33308481D01*
X57184481Y-33427015D01*
X57045100Y-33520147D01*
X56890228Y-33584297D01*
X56725816Y-33617000D01*
X56558184Y-33617000D01*
X56393772Y-33584297D01*
X56238900Y-33520147D01*
X56099519Y-33427015D01*
X55980985Y-33308481D01*
X55887853Y-33169100D01*
X55823703Y-33014228D01*
X55791000Y-32849816D01*
X55791000Y-32682184D01*
X55823703Y-32517772D01*
X55887853Y-32362900D01*
X55980985Y-32223519D01*
X56099519Y-32104985D01*
X56238900Y-32011853D01*
X56393772Y-31947703D01*
X56558184Y-31915000D01*
X56725816Y-31915000D01*
X56890228Y-31947703D01*
X56890228Y-31947703D01*
G37*
G36*
X85454442Y-31363518D02*
X85520627Y-31370037D01*
X85633853Y-31404384D01*
X85690467Y-31421557D01*
X85829087Y-31495652D01*
X85846991Y-31505222D01*
X85882729Y-31534552D01*
X85984186Y-31617814D01*
X86067448Y-31719271D01*
X86096778Y-31755009D01*
X86096779Y-31755011D01*
X86180443Y-31911533D01*
X86191415Y-31947703D01*
X86231963Y-32081373D01*
X86249359Y-32258000D01*
X86231963Y-32434627D01*
X86206741Y-32517772D01*
X86180443Y-32604467D01*
X86138902Y-32682184D01*
X86096778Y-32760991D01*
X86067448Y-32796729D01*
X85984186Y-32898186D01*
X85882729Y-32981448D01*
X85846991Y-33010778D01*
X85829087Y-33020348D01*
X85690467Y-33094443D01*
X85633853Y-33111616D01*
X85520627Y-33145963D01*
X85454443Y-33152481D01*
X85388260Y-33159000D01*
X85299740Y-33159000D01*
X85233557Y-33152481D01*
X85167373Y-33145963D01*
X85054147Y-33111616D01*
X84997533Y-33094443D01*
X84858913Y-33020348D01*
X84841009Y-33010778D01*
X84805271Y-32981448D01*
X84703814Y-32898186D01*
X84620552Y-32796729D01*
X84591222Y-32760991D01*
X84549098Y-32682184D01*
X84507557Y-32604467D01*
X84481259Y-32517772D01*
X84456037Y-32434627D01*
X84438641Y-32258000D01*
X84456037Y-32081373D01*
X84496585Y-31947703D01*
X84507557Y-31911533D01*
X84591221Y-31755011D01*
X84591222Y-31755009D01*
X84620552Y-31719271D01*
X84703814Y-31617814D01*
X84805271Y-31534552D01*
X84841009Y-31505222D01*
X84858913Y-31495652D01*
X84997533Y-31421557D01*
X85054147Y-31404384D01*
X85167373Y-31370037D01*
X85233558Y-31363518D01*
X85299740Y-31357000D01*
X85388260Y-31357000D01*
X85454442Y-31363518D01*
X85454442Y-31363518D01*
G37*
G36*
X86245000Y-29349000D02*
X84443000Y-29349000D01*
X84443000Y-27547000D01*
X86245000Y-27547000D01*
X86245000Y-29349000D01*
X86245000Y-29349000D01*
G37*
G36*
X80004228Y-27375703D02*
X80159100Y-27439853D01*
X80298481Y-27532985D01*
X80417015Y-27651519D01*
X80510147Y-27790900D01*
X80574297Y-27945772D01*
X80607000Y-28110184D01*
X80607000Y-28277816D01*
X80574297Y-28442228D01*
X80510147Y-28597100D01*
X80417015Y-28736481D01*
X80298481Y-28855015D01*
X80159100Y-28948147D01*
X80004228Y-29012297D01*
X79839816Y-29045000D01*
X79672184Y-29045000D01*
X79507772Y-29012297D01*
X79352900Y-28948147D01*
X79213519Y-28855015D01*
X79094985Y-28736481D01*
X79001853Y-28597100D01*
X78937703Y-28442228D01*
X78905000Y-28277816D01*
X78905000Y-28110184D01*
X78937703Y-27945772D01*
X79001853Y-27790900D01*
X79094985Y-27651519D01*
X79213519Y-27532985D01*
X79352900Y-27439853D01*
X79507772Y-27375703D01*
X79672184Y-27343000D01*
X79839816Y-27343000D01*
X80004228Y-27375703D01*
X80004228Y-27375703D01*
G37*
G36*
X85454443Y-25013519D02*
X85520627Y-25020037D01*
X85633853Y-25054384D01*
X85690467Y-25071557D01*
X85829087Y-25145652D01*
X85846991Y-25155222D01*
X85882729Y-25184552D01*
X85984186Y-25267814D01*
X86067448Y-25369271D01*
X86096778Y-25405009D01*
X86096779Y-25405011D01*
X86180443Y-25561533D01*
X86180443Y-25561534D01*
X86231963Y-25731373D01*
X86249359Y-25908000D01*
X86231963Y-26084627D01*
X86197616Y-26197853D01*
X86180443Y-26254467D01*
X86106348Y-26393087D01*
X86096778Y-26410991D01*
X86067448Y-26446729D01*
X85984186Y-26548186D01*
X85882729Y-26631448D01*
X85846991Y-26660778D01*
X85846989Y-26660779D01*
X85690467Y-26744443D01*
X85633853Y-26761616D01*
X85520627Y-26795963D01*
X85454442Y-26802482D01*
X85388260Y-26809000D01*
X85299740Y-26809000D01*
X85233558Y-26802482D01*
X85167373Y-26795963D01*
X85054147Y-26761616D01*
X84997533Y-26744443D01*
X84841011Y-26660779D01*
X84841009Y-26660778D01*
X84805271Y-26631448D01*
X84703814Y-26548186D01*
X84620552Y-26446729D01*
X84591222Y-26410991D01*
X84581652Y-26393087D01*
X84507557Y-26254467D01*
X84490384Y-26197853D01*
X84456037Y-26084627D01*
X84438641Y-25908000D01*
X84456037Y-25731373D01*
X84507557Y-25561534D01*
X84507557Y-25561533D01*
X84591221Y-25405011D01*
X84591222Y-25405009D01*
X84620552Y-25369271D01*
X84703814Y-25267814D01*
X84805271Y-25184552D01*
X84841009Y-25155222D01*
X84858913Y-25145652D01*
X84997533Y-25071557D01*
X85054147Y-25054384D01*
X85167373Y-25020037D01*
X85233557Y-25013519D01*
X85299740Y-25007000D01*
X85388260Y-25007000D01*
X85454443Y-25013519D01*
X85454443Y-25013519D01*
G37*
G36*
X85454443Y-22473519D02*
X85520627Y-22480037D01*
X85633853Y-22514384D01*
X85690467Y-22531557D01*
X85829087Y-22605652D01*
X85846991Y-22615222D01*
X85874154Y-22637514D01*
X85984186Y-22727814D01*
X86067448Y-22829271D01*
X86096778Y-22865009D01*
X86096779Y-22865011D01*
X86180443Y-23021533D01*
X86183568Y-23031835D01*
X86231963Y-23191373D01*
X86249359Y-23368000D01*
X86231963Y-23544627D01*
X86219716Y-23585000D01*
X86180443Y-23714467D01*
X86106348Y-23853087D01*
X86096778Y-23870991D01*
X86067448Y-23906729D01*
X85984186Y-24008186D01*
X85882729Y-24091448D01*
X85846991Y-24120778D01*
X85846989Y-24120779D01*
X85690467Y-24204443D01*
X85633853Y-24221616D01*
X85520627Y-24255963D01*
X85454443Y-24262481D01*
X85388260Y-24269000D01*
X85299740Y-24269000D01*
X85233557Y-24262481D01*
X85167373Y-24255963D01*
X85054147Y-24221616D01*
X84997533Y-24204443D01*
X84841011Y-24120779D01*
X84841009Y-24120778D01*
X84805271Y-24091448D01*
X84703814Y-24008186D01*
X84620552Y-23906729D01*
X84591222Y-23870991D01*
X84581652Y-23853087D01*
X84507557Y-23714467D01*
X84468284Y-23585000D01*
X84456037Y-23544627D01*
X84438641Y-23368000D01*
X84456037Y-23191373D01*
X84504432Y-23031835D01*
X84507557Y-23021533D01*
X84591221Y-22865011D01*
X84591222Y-22865009D01*
X84620552Y-22829271D01*
X84703814Y-22727814D01*
X84813846Y-22637514D01*
X84841009Y-22615222D01*
X84858913Y-22605652D01*
X84997533Y-22531557D01*
X85054147Y-22514384D01*
X85167373Y-22480037D01*
X85233558Y-22473518D01*
X85299740Y-22467000D01*
X85388260Y-22467000D01*
X85454443Y-22473519D01*
X85454443Y-22473519D01*
G37*
G36*
X76506565Y-21595389D02*
X76697834Y-21674615D01*
X76869976Y-21789637D01*
X77016363Y-21936024D01*
X77131385Y-22108166D01*
X77210611Y-22299435D01*
X77251000Y-22502484D01*
X77251000Y-22709516D01*
X77210611Y-22912565D01*
X77131385Y-23103834D01*
X77016363Y-23275976D01*
X76869976Y-23422363D01*
X76697834Y-23537385D01*
X76506565Y-23616611D01*
X76303516Y-23657000D01*
X76096484Y-23657000D01*
X75893435Y-23616611D01*
X75702166Y-23537385D01*
X75530024Y-23422363D01*
X75383637Y-23275976D01*
X75268615Y-23103834D01*
X75189389Y-22912565D01*
X75149000Y-22709516D01*
X75149000Y-22502484D01*
X75189389Y-22299435D01*
X75268615Y-22108166D01*
X75383637Y-21936024D01*
X75530024Y-21789637D01*
X75702166Y-21674615D01*
X75893435Y-21595389D01*
X76096484Y-21555000D01*
X76303516Y-21555000D01*
X76506565Y-21595389D01*
X76506565Y-21595389D01*
G37*
G36*
X70006565Y-21595389D02*
X70197834Y-21674615D01*
X70369976Y-21789637D01*
X70516363Y-21936024D01*
X70631385Y-22108166D01*
X70710611Y-22299435D01*
X70751000Y-22502484D01*
X70751000Y-22709516D01*
X70710611Y-22912565D01*
X70631385Y-23103834D01*
X70516363Y-23275976D01*
X70369976Y-23422363D01*
X70197834Y-23537385D01*
X70006565Y-23616611D01*
X69803516Y-23657000D01*
X69596484Y-23657000D01*
X69393435Y-23616611D01*
X69202166Y-23537385D01*
X69030024Y-23422363D01*
X68883637Y-23275976D01*
X68768615Y-23103834D01*
X68689389Y-22912565D01*
X68649000Y-22709516D01*
X68649000Y-22502484D01*
X68689389Y-22299435D01*
X68768615Y-22108166D01*
X68883637Y-21936024D01*
X69030024Y-21789637D01*
X69202166Y-21674615D01*
X69393435Y-21595389D01*
X69596484Y-21555000D01*
X69803516Y-21555000D01*
X70006565Y-21595389D01*
X70006565Y-21595389D01*
G37*
G36*
X60250565Y-21523389D02*
X60441834Y-21602615D01*
X60613976Y-21717637D01*
X60760363Y-21864024D01*
X60875385Y-22036166D01*
X60954611Y-22227435D01*
X60995000Y-22430484D01*
X60995000Y-22637516D01*
X60954611Y-22840565D01*
X60875385Y-23031834D01*
X60760363Y-23203976D01*
X60613976Y-23350363D01*
X60441834Y-23465385D01*
X60250565Y-23544611D01*
X60047516Y-23585000D01*
X59840484Y-23585000D01*
X59637435Y-23544611D01*
X59446166Y-23465385D01*
X59274024Y-23350363D01*
X59127637Y-23203976D01*
X59012615Y-23031834D01*
X58933389Y-22840565D01*
X58893000Y-22637516D01*
X58893000Y-22430484D01*
X58933389Y-22227435D01*
X59012615Y-22036166D01*
X59127637Y-21864024D01*
X59274024Y-21717637D01*
X59446166Y-21602615D01*
X59637435Y-21523389D01*
X59840484Y-21483000D01*
X60047516Y-21483000D01*
X60250565Y-21523389D01*
X60250565Y-21523389D01*
G37*
G36*
X66750565Y-21523389D02*
X66941834Y-21602615D01*
X67113976Y-21717637D01*
X67260363Y-21864024D01*
X67375385Y-22036166D01*
X67454611Y-22227435D01*
X67495000Y-22430484D01*
X67495000Y-22637516D01*
X67454611Y-22840565D01*
X67375385Y-23031834D01*
X67260363Y-23203976D01*
X67113976Y-23350363D01*
X66941834Y-23465385D01*
X66750565Y-23544611D01*
X66547516Y-23585000D01*
X66340484Y-23585000D01*
X66137435Y-23544611D01*
X65946166Y-23465385D01*
X65774024Y-23350363D01*
X65627637Y-23203976D01*
X65512615Y-23031834D01*
X65433389Y-22840565D01*
X65393000Y-22637516D01*
X65393000Y-22430484D01*
X65433389Y-22227435D01*
X65512615Y-22036166D01*
X65627637Y-21864024D01*
X65774024Y-21717637D01*
X65946166Y-21602615D01*
X66137435Y-21523389D01*
X66340484Y-21483000D01*
X66547516Y-21483000D01*
X66750565Y-21523389D01*
X66750565Y-21523389D01*
G37*
G36*
X53506821Y-21767313D02*
X53506824Y-21767314D01*
X53506825Y-21767314D01*
X53667239Y-21815975D01*
X53667241Y-21815976D01*
X53667244Y-21815977D01*
X53815078Y-21894995D01*
X53944659Y-22001341D01*
X54051005Y-22130922D01*
X54130023Y-22278756D01*
X54130024Y-22278759D01*
X54130025Y-22278761D01*
X54176050Y-22430486D01*
X54178687Y-22439179D01*
X54195117Y-22606000D01*
X54178687Y-22772821D01*
X54178686Y-22772824D01*
X54178686Y-22772825D01*
X54150722Y-22865011D01*
X54130023Y-22933244D01*
X54051005Y-23081078D01*
X53944659Y-23210659D01*
X53815078Y-23317005D01*
X53667244Y-23396023D01*
X53667241Y-23396024D01*
X53667239Y-23396025D01*
X53506825Y-23444686D01*
X53506824Y-23444686D01*
X53506821Y-23444687D01*
X53381804Y-23457000D01*
X53298196Y-23457000D01*
X53173179Y-23444687D01*
X53173176Y-23444686D01*
X53173175Y-23444686D01*
X53012761Y-23396025D01*
X53012759Y-23396024D01*
X53012756Y-23396023D01*
X52864922Y-23317005D01*
X52735341Y-23210659D01*
X52628995Y-23081078D01*
X52549977Y-22933244D01*
X52529279Y-22865011D01*
X52501314Y-22772825D01*
X52501314Y-22772824D01*
X52501313Y-22772821D01*
X52484883Y-22606000D01*
X52501313Y-22439179D01*
X52503950Y-22430486D01*
X52549975Y-22278761D01*
X52549976Y-22278759D01*
X52549977Y-22278756D01*
X52628995Y-22130922D01*
X52735341Y-22001341D01*
X52864922Y-21894995D01*
X53012756Y-21815977D01*
X53012759Y-21815976D01*
X53012761Y-21815975D01*
X53173175Y-21767314D01*
X53173176Y-21767314D01*
X53173179Y-21767313D01*
X53298196Y-21755000D01*
X53381804Y-21755000D01*
X53506821Y-21767313D01*
X53506821Y-21767313D01*
G37*
G36*
X56808821Y-21767313D02*
X56808824Y-21767314D01*
X56808825Y-21767314D01*
X56969239Y-21815975D01*
X56969241Y-21815976D01*
X56969244Y-21815977D01*
X57117078Y-21894995D01*
X57246659Y-22001341D01*
X57353005Y-22130922D01*
X57432023Y-22278756D01*
X57432024Y-22278759D01*
X57432025Y-22278761D01*
X57478050Y-22430486D01*
X57480687Y-22439179D01*
X57497117Y-22606000D01*
X57480687Y-22772821D01*
X57480686Y-22772824D01*
X57480686Y-22772825D01*
X57452722Y-22865011D01*
X57432023Y-22933244D01*
X57353005Y-23081078D01*
X57246659Y-23210659D01*
X57117078Y-23317005D01*
X56969244Y-23396023D01*
X56969241Y-23396024D01*
X56969239Y-23396025D01*
X56808825Y-23444686D01*
X56808824Y-23444686D01*
X56808821Y-23444687D01*
X56683804Y-23457000D01*
X56600196Y-23457000D01*
X56475179Y-23444687D01*
X56475176Y-23444686D01*
X56475175Y-23444686D01*
X56314761Y-23396025D01*
X56314759Y-23396024D01*
X56314756Y-23396023D01*
X56166922Y-23317005D01*
X56037341Y-23210659D01*
X55930995Y-23081078D01*
X55851977Y-22933244D01*
X55831279Y-22865011D01*
X55803314Y-22772825D01*
X55803314Y-22772824D01*
X55803313Y-22772821D01*
X55786883Y-22606000D01*
X55803313Y-22439179D01*
X55805950Y-22430486D01*
X55851975Y-22278761D01*
X55851976Y-22278759D01*
X55851977Y-22278756D01*
X55930995Y-22130922D01*
X56037341Y-22001341D01*
X56166922Y-21894995D01*
X56314756Y-21815977D01*
X56314759Y-21815976D01*
X56314761Y-21815975D01*
X56475175Y-21767314D01*
X56475176Y-21767314D01*
X56475179Y-21767313D01*
X56600196Y-21755000D01*
X56683804Y-21755000D01*
X56808821Y-21767313D01*
X56808821Y-21767313D01*
G37*
G36*
X85454443Y-19933519D02*
X85520627Y-19940037D01*
X85633853Y-19974384D01*
X85690467Y-19991557D01*
X85829087Y-20065652D01*
X85846991Y-20075222D01*
X85882729Y-20104552D01*
X85984186Y-20187814D01*
X86067448Y-20289271D01*
X86096778Y-20325009D01*
X86096779Y-20325011D01*
X86180443Y-20481533D01*
X86180443Y-20481534D01*
X86231963Y-20651373D01*
X86249359Y-20828000D01*
X86231963Y-21004627D01*
X86197616Y-21117853D01*
X86180443Y-21174467D01*
X86106348Y-21313087D01*
X86096778Y-21330991D01*
X86067448Y-21366729D01*
X85984186Y-21468186D01*
X85882729Y-21551448D01*
X85846991Y-21580778D01*
X85846989Y-21580779D01*
X85690467Y-21664443D01*
X85656930Y-21674616D01*
X85520627Y-21715963D01*
X85454443Y-21722481D01*
X85388260Y-21729000D01*
X85299740Y-21729000D01*
X85233557Y-21722481D01*
X85167373Y-21715963D01*
X85031070Y-21674616D01*
X84997533Y-21664443D01*
X84841011Y-21580779D01*
X84841009Y-21580778D01*
X84805271Y-21551448D01*
X84703814Y-21468186D01*
X84620552Y-21366729D01*
X84591222Y-21330991D01*
X84581652Y-21313087D01*
X84507557Y-21174467D01*
X84490384Y-21117853D01*
X84456037Y-21004627D01*
X84438641Y-20828000D01*
X84456037Y-20651373D01*
X84507557Y-20481534D01*
X84507557Y-20481533D01*
X84591221Y-20325011D01*
X84591222Y-20325009D01*
X84620552Y-20289271D01*
X84703814Y-20187814D01*
X84805271Y-20104552D01*
X84841009Y-20075222D01*
X84858913Y-20065652D01*
X84997533Y-19991557D01*
X85054147Y-19974384D01*
X85167373Y-19940037D01*
X85233557Y-19933519D01*
X85299740Y-19927000D01*
X85388260Y-19927000D01*
X85454443Y-19933519D01*
X85454443Y-19933519D01*
G37*
G36*
X53196443Y-17647519D02*
X53262627Y-17654037D01*
X53375853Y-17688384D01*
X53432467Y-17705557D01*
X53434719Y-17706761D01*
X53588991Y-17789222D01*
X53601435Y-17799435D01*
X53726186Y-17901814D01*
X53808804Y-18002486D01*
X53838778Y-18039009D01*
X53838779Y-18039011D01*
X53922443Y-18195533D01*
X53939616Y-18252147D01*
X53973963Y-18365373D01*
X53991359Y-18542000D01*
X53973963Y-18718627D01*
X53941991Y-18824025D01*
X53922443Y-18888467D01*
X53901213Y-18928185D01*
X53838778Y-19044991D01*
X53809448Y-19080729D01*
X53726186Y-19182186D01*
X53624729Y-19265448D01*
X53588991Y-19294778D01*
X53588989Y-19294779D01*
X53432467Y-19378443D01*
X53375853Y-19395616D01*
X53262627Y-19429963D01*
X53196443Y-19436481D01*
X53130260Y-19443000D01*
X53041740Y-19443000D01*
X52975557Y-19436481D01*
X52909373Y-19429963D01*
X52796147Y-19395616D01*
X52739533Y-19378443D01*
X52583011Y-19294779D01*
X52583009Y-19294778D01*
X52547271Y-19265448D01*
X52445814Y-19182186D01*
X52362552Y-19080729D01*
X52333222Y-19044991D01*
X52270787Y-18928185D01*
X52249557Y-18888467D01*
X52230009Y-18824025D01*
X52198037Y-18718627D01*
X52180641Y-18542000D01*
X52198037Y-18365373D01*
X52232384Y-18252147D01*
X52249557Y-18195533D01*
X52333221Y-18039011D01*
X52333222Y-18039009D01*
X52363196Y-18002486D01*
X52445814Y-17901814D01*
X52570565Y-17799435D01*
X52583009Y-17789222D01*
X52737281Y-17706761D01*
X52739533Y-17705557D01*
X52796147Y-17688384D01*
X52909373Y-17654037D01*
X52975557Y-17647519D01*
X53041740Y-17641000D01*
X53130260Y-17641000D01*
X53196443Y-17647519D01*
X53196443Y-17647519D01*
G37*
G36*
X56527000Y-19443000D02*
X54725000Y-19443000D01*
X54725000Y-17641000D01*
X56527000Y-17641000D01*
X56527000Y-19443000D01*
X56527000Y-19443000D01*
G37*
G36*
X85454442Y-17393518D02*
X85520627Y-17400037D01*
X85633853Y-17434384D01*
X85690467Y-17451557D01*
X85829087Y-17525652D01*
X85846991Y-17535222D01*
X85848141Y-17536166D01*
X85984186Y-17647814D01*
X86049528Y-17727435D01*
X86096778Y-17785009D01*
X86096779Y-17785011D01*
X86180443Y-17941533D01*
X86180443Y-17941534D01*
X86231963Y-18111373D01*
X86249359Y-18288000D01*
X86231963Y-18464627D01*
X86208492Y-18542000D01*
X86180443Y-18634467D01*
X86143289Y-18703976D01*
X86096778Y-18790991D01*
X86067448Y-18826729D01*
X85984186Y-18928186D01*
X85882729Y-19011448D01*
X85846991Y-19040778D01*
X85846989Y-19040779D01*
X85690467Y-19124443D01*
X85633853Y-19141616D01*
X85520627Y-19175963D01*
X85457453Y-19182185D01*
X85388260Y-19189000D01*
X85299740Y-19189000D01*
X85230547Y-19182185D01*
X85167373Y-19175963D01*
X85054147Y-19141616D01*
X84997533Y-19124443D01*
X84841011Y-19040779D01*
X84841009Y-19040778D01*
X84805271Y-19011448D01*
X84703814Y-18928186D01*
X84620552Y-18826729D01*
X84591222Y-18790991D01*
X84544711Y-18703976D01*
X84507557Y-18634467D01*
X84479508Y-18542000D01*
X84456037Y-18464627D01*
X84438641Y-18288000D01*
X84456037Y-18111373D01*
X84507557Y-17941534D01*
X84507557Y-17941533D01*
X84591221Y-17785011D01*
X84591222Y-17785009D01*
X84638472Y-17727435D01*
X84703814Y-17647814D01*
X84839859Y-17536166D01*
X84841009Y-17535222D01*
X84858913Y-17525652D01*
X84997533Y-17451557D01*
X85054147Y-17434384D01*
X85167373Y-17400037D01*
X85233558Y-17393518D01*
X85299740Y-17387000D01*
X85388260Y-17387000D01*
X85454442Y-17393518D01*
X85454442Y-17393518D01*
G37*
G36*
X76506565Y-17095389D02*
X76697834Y-17174615D01*
X76869976Y-17289637D01*
X77016363Y-17436024D01*
X77131385Y-17608166D01*
X77210611Y-17799435D01*
X77251000Y-18002484D01*
X77251000Y-18209516D01*
X77210611Y-18412565D01*
X77131385Y-18603834D01*
X77016363Y-18775976D01*
X76869976Y-18922363D01*
X76697834Y-19037385D01*
X76506565Y-19116611D01*
X76303516Y-19157000D01*
X76096484Y-19157000D01*
X75893435Y-19116611D01*
X75702166Y-19037385D01*
X75530024Y-18922363D01*
X75383637Y-18775976D01*
X75268615Y-18603834D01*
X75189389Y-18412565D01*
X75149000Y-18209516D01*
X75149000Y-18002484D01*
X75189389Y-17799435D01*
X75268615Y-17608166D01*
X75383637Y-17436024D01*
X75530024Y-17289637D01*
X75702166Y-17174615D01*
X75893435Y-17095389D01*
X76096484Y-17055000D01*
X76303516Y-17055000D01*
X76506565Y-17095389D01*
X76506565Y-17095389D01*
G37*
G36*
X70006565Y-17095389D02*
X70197834Y-17174615D01*
X70369976Y-17289637D01*
X70516363Y-17436024D01*
X70631385Y-17608166D01*
X70710611Y-17799435D01*
X70751000Y-18002484D01*
X70751000Y-18209516D01*
X70710611Y-18412565D01*
X70631385Y-18603834D01*
X70516363Y-18775976D01*
X70369976Y-18922363D01*
X70197834Y-19037385D01*
X70006565Y-19116611D01*
X69803516Y-19157000D01*
X69596484Y-19157000D01*
X69393435Y-19116611D01*
X69202166Y-19037385D01*
X69030024Y-18922363D01*
X68883637Y-18775976D01*
X68768615Y-18603834D01*
X68689389Y-18412565D01*
X68649000Y-18209516D01*
X68649000Y-18002484D01*
X68689389Y-17799435D01*
X68768615Y-17608166D01*
X68883637Y-17436024D01*
X69030024Y-17289637D01*
X69202166Y-17174615D01*
X69393435Y-17095389D01*
X69596484Y-17055000D01*
X69803516Y-17055000D01*
X70006565Y-17095389D01*
X70006565Y-17095389D01*
G37*
G36*
X60250565Y-17023389D02*
X60441834Y-17102615D01*
X60613976Y-17217637D01*
X60760363Y-17364024D01*
X60875385Y-17536166D01*
X60954611Y-17727435D01*
X60995000Y-17930484D01*
X60995000Y-18137516D01*
X60954611Y-18340565D01*
X60875385Y-18531834D01*
X60760363Y-18703976D01*
X60613976Y-18850363D01*
X60441834Y-18965385D01*
X60250565Y-19044611D01*
X60047516Y-19085000D01*
X59840484Y-19085000D01*
X59637435Y-19044611D01*
X59446166Y-18965385D01*
X59274024Y-18850363D01*
X59127637Y-18703976D01*
X59012615Y-18531834D01*
X58933389Y-18340565D01*
X58893000Y-18137516D01*
X58893000Y-17930484D01*
X58933389Y-17727435D01*
X59012615Y-17536166D01*
X59127637Y-17364024D01*
X59274024Y-17217637D01*
X59446166Y-17102615D01*
X59637435Y-17023389D01*
X59840484Y-16983000D01*
X60047516Y-16983000D01*
X60250565Y-17023389D01*
X60250565Y-17023389D01*
G37*
G36*
X66750565Y-17023389D02*
X66941834Y-17102615D01*
X67113976Y-17217637D01*
X67260363Y-17364024D01*
X67375385Y-17536166D01*
X67454611Y-17727435D01*
X67495000Y-17930484D01*
X67495000Y-18137516D01*
X67454611Y-18340565D01*
X67375385Y-18531834D01*
X67260363Y-18703976D01*
X67113976Y-18850363D01*
X66941834Y-18965385D01*
X66750565Y-19044611D01*
X66547516Y-19085000D01*
X66340484Y-19085000D01*
X66137435Y-19044611D01*
X65946166Y-18965385D01*
X65774024Y-18850363D01*
X65627637Y-18703976D01*
X65512615Y-18531834D01*
X65433389Y-18340565D01*
X65393000Y-18137516D01*
X65393000Y-17930484D01*
X65433389Y-17727435D01*
X65512615Y-17536166D01*
X65627637Y-17364024D01*
X65774024Y-17217637D01*
X65946166Y-17102615D01*
X66137435Y-17023389D01*
X66340484Y-16983000D01*
X66547516Y-16983000D01*
X66750565Y-17023389D01*
X66750565Y-17023389D01*
G37*
G36*
X79922821Y-17195313D02*
X79922824Y-17195314D01*
X79922825Y-17195314D01*
X80083239Y-17243975D01*
X80083241Y-17243976D01*
X80083244Y-17243977D01*
X80231078Y-17322995D01*
X80360659Y-17429341D01*
X80467005Y-17558922D01*
X80546023Y-17706756D01*
X80546024Y-17706759D01*
X80546025Y-17706761D01*
X80571039Y-17789221D01*
X80594687Y-17867179D01*
X80611117Y-18034000D01*
X80594687Y-18200821D01*
X80594686Y-18200824D01*
X80594686Y-18200825D01*
X80568242Y-18288000D01*
X80546023Y-18361244D01*
X80467005Y-18509078D01*
X80360659Y-18638659D01*
X80231078Y-18745005D01*
X80083244Y-18824023D01*
X80083241Y-18824024D01*
X80083239Y-18824025D01*
X79922825Y-18872686D01*
X79922824Y-18872686D01*
X79922821Y-18872687D01*
X79797804Y-18885000D01*
X79714196Y-18885000D01*
X79589179Y-18872687D01*
X79589176Y-18872686D01*
X79589175Y-18872686D01*
X79428761Y-18824025D01*
X79428759Y-18824024D01*
X79428756Y-18824023D01*
X79280922Y-18745005D01*
X79151341Y-18638659D01*
X79044995Y-18509078D01*
X78965977Y-18361244D01*
X78943759Y-18288000D01*
X78917314Y-18200825D01*
X78917314Y-18200824D01*
X78917313Y-18200821D01*
X78900883Y-18034000D01*
X78917313Y-17867179D01*
X78940961Y-17789221D01*
X78965975Y-17706761D01*
X78965976Y-17706759D01*
X78965977Y-17706756D01*
X79044995Y-17558922D01*
X79151341Y-17429341D01*
X79280922Y-17322995D01*
X79428756Y-17243977D01*
X79428759Y-17243976D01*
X79428761Y-17243975D01*
X79589175Y-17195314D01*
X79589176Y-17195314D01*
X79589179Y-17195313D01*
X79714196Y-17183000D01*
X79797804Y-17183000D01*
X79922821Y-17195313D01*
X79922821Y-17195313D01*
G37*
M02*
